<?xml version="1.0" encoding="UTF-8"?>
<svg id="Calque_2" data-name="Calque 2" xmlns="http://www.w3.org/2000/svg" viewBox="0 0 178.2 120.16">
  <defs>
    <style>
      .cls-1 {
        fill: #0a1527;
      }

      .cls-2 {
        fill: none;
        stroke: #0a1527;
        stroke-linecap: round;
        stroke-linejoin: round;
        stroke-width: 1.75px;
      }

      .cls-3 {
        fill: #ec641d;
      }
    </style>
  </defs>
  <g id="Calque_1-2" data-name="Calque 1">
    <g>
      <path class="cls-1" d="m10.75,81.75c2.61,0,4.1-1.39,4.1-3.44v-.07c0-2.29-1.6-3.47-4.2-3.47h-5.31v6.98h5.41ZM0,69.95h11.1c3.08,0,5.48.87,7.08,2.47,1.35,1.35,2.09,3.27,2.09,5.55v.07c0,3.93-2.12,6.38-5.2,7.53l5.94,8.68h-3.27c-1.86,0-3.6-.93-4.64-2.47l-3.55-5.29h-4.2v7.78H0v-24.3Z"/>
      <path class="cls-1" d="m26.48,69.95h18.33v1.41c0,1.85-1.5,3.35-3.35,3.35h-9.67v4.93h9.45v4.75h-9.45v5.1h9.84c1.85,0,3.35,1.5,3.35,3.35v1.41h-18.5v-24.3Z"/>
      <path class="cls-1" d="m51.34,69.95h5.76l6.38,10.28,6.38-10.28h5.76v24.3h-1.96c-1.85,0-3.35-1.5-3.35-3.35v-12.51l-6.84,10.38h-.14l-6.77-10.27v12.41c0,1.85-1.5,3.35-3.35,3.35h-1.9v-24.3h.02Z"/>
      <path class="cls-1" d="m92.51,82.2c2.67,0,4.23-1.6,4.23-3.68v-.07c0-2.39-1.67-3.68-4.34-3.68h-4.13v7.42h4.24Zm-9.58-12.25h9.92c5.8,0,9.3,3.44,9.3,8.4v.07c0,5.62-4.37,8.54-9.82,8.54h-4.06v3.94c0,1.85-1.5,3.35-3.35,3.35h-2v-24.3h0Z"/>
      <path class="cls-1" d="m119.1,84.07l-3.22-7.88-3.22,7.88h6.46,0Zm-5.62-14.3h4.92l10.41,24.47h-3.34c-1.36,0-2.58-.82-3.1-2.08l-1.37-3.37h-10.28l-1.37,3.37c-.51,1.26-1.74,2.08-3.1,2.08h-3.2l10.41-24.47h.02Z"/>
      <path class="cls-1" d="m144.33,81.75c2.61,0,4.1-1.39,4.1-3.44v-.07c0-2.29-1.6-3.47-4.2-3.47h-5.31v6.98h5.41Zm-10.76-11.8h11.1c3.09,0,5.49.87,7.08,2.47,1.35,1.35,2.08,3.27,2.08,5.55v.07c0,3.93-2.12,6.38-5.2,7.53l5.94,8.68h-3.35c-1.82,0-3.51-.91-4.52-2.41l-3.59-5.36h-4.2v4.43c0,1.85-1.5,3.35-3.35,3.35h-2v-24.3h0Z"/>
      <path class="cls-1" d="m165.46,74.88h-7.39v-4.92h20.13v4.92h-7.39v19.37h-1.99c-1.85,0-3.35-1.5-3.35-3.35v-16.02h0Z"/>
      <path class="cls-3" d="m80.73,35.82l-15.88,15.96,5.86-.02c1.78,0,3.45-.7,4.7-1.96l11.1-11.15c1.57-1.58,1.56-4.12-.02-5.69l-9.44-9.39c-.26-.26-.49-.56-.62-.92-.44-1.15-.17-2.35.64-3.16l8.64-8.68c1.39-1.4,2.18-3.31,2.18-5.29l-.02-5.53-21.47,21.57,14.31,14.24h0Z"/>
      <path class="cls-3" d="m97.39,35.78l15.95,15.88-5.86.02c-1.78,0-3.46-.68-4.71-1.94l-11.15-11.1c-1.58-1.57-1.58-4.12-.02-5.69l9.39-9.43c.26-.26.49-.57.62-.92.44-1.15.16-2.35-.64-3.15l-8.68-8.64c-1.4-1.39-2.19-3.29-2.2-5.27l-.02-5.53,21.57,21.47-14.24,14.31h0Z"/>
      <path class="cls-3" d="m32.07,109.35l-1.39,3.39h2.78l-1.39-3.39h0Zm3.17,7.76l-.96-2.34h-4.42l-.96,2.34h-2.34l4.48-10.52h2.12l4.48,10.52h-2.41,0Z"/>
      <path class="cls-3" d="m45.39,106.66h-2.3v10.45h2.3v-10.45Z"/>
      <path class="cls-3" d="m58.95,111.89c0-.45-.07-.88-.23-1.27-.16-.39-.37-.73-.64-1-.27-.28-.6-.5-.99-.65-.39-.16-.82-.23-1.29-.23h-1.77v6.3h1.77c.47,0,.9-.07,1.29-.22.39-.15.72-.36.99-.64.27-.28.49-.61.64-.98.16-.38.23-.8.23-1.27v-.03Zm2,2.06c-.27.64-.65,1.19-1.15,1.66-.49.47-1.08.83-1.77,1.11-.68.27-1.43.4-2.24.4h-4.07v-10.45h4.07c.82,0,1.57.13,2.24.4.68.26,1.27.63,1.77,1.1.49.47.87,1.01,1.15,1.65.27.64.4,1.32.4,2.05v.03c0,.73-.13,1.43-.4,2.06"/>
      <path class="cls-3" d="m71.75,109.35l-1.39,3.39h2.78l-1.39-3.39h0Zm3.17,7.76l-.96-2.34h-4.42l-.96,2.34h-2.34l4.48-10.52h2.12l4.48,10.52h-2.4Z"/>
      <path class="cls-3" d="m90,117.11l-5.06-6.64v6.64h-2.28v-10.45h2.12l4.9,6.43v-6.43h2.27v10.45h-1.95Z"/>
      <path class="cls-3" d="m102.93,108.78v8.33h-2.3v-8.33h-3.18v-2.12h8.66v2.12h-3.18Z"/>
      <path class="cls-3" d="m118.88,115.41c-.19.4-.45.74-.78,1.01-.34.27-.74.48-1.2.63-.47.14-.98.21-1.55.21-.8,0-1.57-.14-2.34-.41-.77-.27-1.46-.69-2.1-1.26l1.36-1.62c.48.39.97.7,1.47.92.5.23,1.06.35,1.65.35.48,0,.85-.09,1.11-.26.26-.17.4-.42.4-.73v-.03c0-.15-.03-.28-.08-.4-.06-.12-.16-.22-.31-.32-.16-.1-.37-.2-.64-.3-.27-.1-.63-.21-1.07-.31-.53-.13-1.01-.27-1.43-.43-.43-.16-.79-.35-1.09-.59-.3-.23-.53-.53-.69-.87-.17-.35-.25-.78-.25-1.3v-.03c0-.48.09-.91.26-1.29.18-.38.43-.72.75-.99.32-.28.7-.49,1.15-.64.44-.15.94-.22,1.48-.22.77,0,1.47.12,2.11.35.64.23,1.23.56,1.77.99l-1.19,1.73c-.47-.32-.92-.57-1.38-.75-.44-.18-.9-.27-1.34-.27s-.78.09-1.01.26c-.22.17-.34.39-.34.65v.03c0,.17.03.31.1.44.07.12.18.24.35.34.17.1.4.2.69.28.3.09.67.2,1.11.31.53.14,1,.3,1.42.47.42.17.77.38,1.05.63.28.25.5.53.64.86.14.33.21.73.21,1.18v.03c0,.52-.09.98-.28,1.38"/>
      <path class="cls-2" d="m127.43,112.67c.65-.41,1.53-.2,1.97.48l2.64,4.15c.44.68.26,1.57-.4,1.99m14.54-10.05c.86-.65,4.05-3.56,4.94-2.95m-9.09,3.92c1.91,0,2.86-.1,4.15-.96.86-.65,4.05-3.56,4.94-2.95.33.22.53.6.53,1.01,0,.35-.15.68-.4.9l-5.85,4.87c-.5.45-1.15.7-1.82.7h-5.38c-1.99,0-5.64,3-5.64,3m5.87-6.53c3.05,0,5.55.17,5.55-1.08,0-.88-2.23-1.26-4.68-1.26-1.18,0-1.69-.38-3.09-.21-1.39.17-2.66,1.61-3.17,2.31-1.23,1.7-3.63,3.15-3.63,3.15"/>
    </g>
  </g>
</svg>