<?xml version="1.0" encoding="UTF-8"?>
<svg id="Calque_2" data-name="Calque 2" xmlns="http://www.w3.org/2000/svg" viewBox="0 0 179.86 119.99">
  <defs>
    <style>
      .cls-1 {
        fill: #0a1527;
      }

      .cls-2 {
        fill: #ec641d;
      }
    </style>
  </defs>
  <g id="Calque_1-2" data-name="Calque 1">
    <g>
      <path class="cls-1" d="m11.06,82.3c2.62,0,4.13-1.39,4.13-3.46v-.07c0-2.31-1.61-3.5-4.23-3.5h-5.35v7.02h5.45ZM.23,70.42h11.18c3.11,0,5.52.87,7.12,2.48,1.36,1.36,2.09,3.29,2.09,5.59v.07c0,3.95-2.13,6.43-5.24,7.58l5.98,8.73h-3.29c-1.88,0-3.63-.94-4.67-2.49l-3.57-5.33h-4.23v7.83H.23v-24.46Z"/>
      <path class="cls-1" d="m26.89,70.42h18.45v1.42c0,1.86-1.51,3.37-3.37,3.37h-9.73v4.97h9.51v4.78h-9.51v5.13h9.91c1.86,0,3.37,1.51,3.37,3.37v1.42h-18.62v-24.46Z"/>
      <path class="cls-1" d="m51.92,70.42h5.8l6.43,10.35,6.43-10.35h5.8v24.46h-1.98c-1.86,0-3.37-1.51-3.37-3.37v-12.6l-6.88,10.44h-.14l-6.82-10.35v12.5c0,1.86-1.51,3.37-3.37,3.37h-1.91v-24.46h.02Z"/>
      <path class="cls-1" d="m93.36,82.75c2.69,0,4.26-1.61,4.26-3.7v-.07c0-2.41-1.68-3.7-4.37-3.7h-4.16v7.47h4.27Zm-9.64-12.33h9.99c5.84,0,9.37,3.46,9.37,8.45v.07c0,5.66-4.4,8.59-9.89,8.59h-4.08v3.97c0,1.86-1.51,3.37-3.37,3.37h-2.01v-24.46h0Z"/>
      <path class="cls-1" d="m120.13,84.64l-3.25-7.93-3.25,7.93h6.5,0Zm-5.66-14.4h4.96l10.48,24.63h-3.36c-1.37,0-2.6-.83-3.12-2.1l-1.38-3.39h-10.34l-1.38,3.39c-.51,1.27-1.75,2.1-3.12,2.1h-3.22l10.48-24.63h0Z"/>
      <path class="cls-1" d="m145.53,82.3c2.62,0,4.13-1.39,4.13-3.46v-.07c0-2.31-1.61-3.5-4.23-3.5h-5.35v7.02h5.45Zm-10.83-11.88h11.18c3.1,0,5.52.87,7.12,2.48,1.36,1.36,2.09,3.29,2.09,5.59v.07c0,3.95-2.13,6.43-5.24,7.58l5.98,8.73h-3.36c-1.83,0-3.53-.91-4.55-2.42l-3.61-5.4h-4.23v4.46c0,1.86-1.51,3.37-3.37,3.37h-2.01v-24.46Z"/>
      <path class="cls-1" d="m166.79,75.38h-7.44v-4.96h20.27v4.96h-7.44v19.49h-2.01c-1.86,0-3.37-1.51-3.37-3.37v-16.12h0Z"/>
      <path class="cls-2" d="m88.71,0l-21.61,21.71,14.41,14.34-15.98,16.07,5.9-.02c1.79,0,3.47-.71,4.73-1.98l11.18-11.23c1.58-1.59,1.57-4.14-.02-5.73l-9.5-9.45c-.27-.27-.49-.56-.62-.92-.44-1.16-.17-2.37.64-3.18l8.7-8.74c1.4-1.41,2.19-3.33,2.19-5.32"/>
      <path class="cls-2" d="m90.9,0l21.71,21.61-14.34,14.41,16.06,15.98-5.9.02c-1.79,0-3.48-.69-4.74-1.95l-11.23-11.18c-1.59-1.58-1.59-4.14-.02-5.73l9.45-9.5c.27-.27.49-.57.62-.92.44-1.16.16-2.37-.66-3.17l-8.74-8.7c-1.41-1.4-2.21-3.31-2.22-5.31"/>
      <path class="cls-2" d="m6.84,113.62l-1.38-3.36-1.38,3.36h2.76Zm-2.4-6.1h2.1l4.44,10.44h-2.38l-.95-2.32H3.27l-.95,2.32H0l4.44-10.44Z"/>
      <path class="cls-2" d="m15.43,116.45l1.35-1.61c.93.77,1.91,1.26,3.1,1.26.93,0,1.49-.37,1.49-.98v-.03c0-.58-.36-.87-2.09-1.32-2.09-.53-3.44-1.11-3.44-3.17v-.03c0-1.89,1.51-3.13,3.63-3.13,1.51,0,2.8.47,3.85,1.32l-1.19,1.72c-.92-.64-1.83-1.02-2.7-1.02s-1.34.4-1.34.91v.03c0,.68.45.9,2.24,1.36,2.1.55,3.29,1.3,3.29,3.11v.03c0,2.06-1.57,3.21-3.81,3.21-1.57,0-3.16-.55-4.4-1.66"/>
      <path class="cls-2" d="m28.47,116.45l1.35-1.61c.93.77,1.91,1.26,3.1,1.26.93,0,1.49-.37,1.49-.98v-.03c0-.58-.36-.87-2.09-1.32-2.09-.53-3.44-1.11-3.44-3.17v-.03c0-1.89,1.51-3.13,3.63-3.13,1.51,0,2.8.47,3.85,1.32l-1.19,1.72c-.92-.64-1.82-1.02-2.7-1.02s-1.34.4-1.34.91v.03c0,.68.45.9,2.24,1.36,2.1.55,3.29,1.3,3.29,3.11v.03c0,2.06-1.57,3.21-3.81,3.21-1.57,0-3.16-.55-4.4-1.66"/>
      <path class="cls-2" d="m44.75,107.59h-2.28v10.37h2.28v-10.37Z"/>
      <path class="cls-2" d="m50.33,116.45l1.35-1.61c.93.77,1.91,1.26,3.1,1.26.93,0,1.49-.37,1.49-.98v-.03c0-.58-.36-.87-2.09-1.32-2.09-.53-3.44-1.11-3.44-3.17v-.03c0-1.89,1.51-3.13,3.63-3.13,1.51,0,2.8.47,3.85,1.32l-1.19,1.72c-.92-.64-1.83-1.02-2.7-1.02s-1.34.4-1.34.91v.03c0,.68.45.9,2.24,1.36,2.1.55,3.29,1.3,3.29,3.11v.03c0,2.06-1.57,3.21-3.81,3.21-1.57,0-3.16-.55-4.4-1.66"/>
      <path class="cls-2" d="m66.42,109.7h-3.16v-2.11h8.59v2.11h-3.16v8.27h-2.28v-8.27Z"/>
      <path class="cls-2" d="m81.93,113.62l-1.38-3.36-1.38,3.36h2.76Zm-2.4-6.1h2.1l4.44,10.44h-2.38l-.95-2.32h-4.38l-.95,2.32h-2.32l4.44-10.44Z"/>
      <path class="cls-2" d="m91.38,107.59h2.1l4.87,6.39v-6.39h2.25v10.38h-1.94l-5.02-6.59v6.59h-2.25v-10.38Z"/>
      <path class="cls-2" d="m106.33,112.81v-.03c0-2.95,2.22-5.36,5.4-5.36,1.96,0,3.13.65,4.09,1.6l-1.45,1.68c-.8-.72-1.61-1.17-2.65-1.17-1.75,0-3.01,1.45-3.01,3.23v.03c0,1.78,1.23,3.26,3.01,3.26,1.19,0,1.91-.47,2.72-1.21l1.45,1.47c-1.06,1.15-2.25,1.85-4.25,1.85-3.06,0-5.32-2.36-5.32-5.33"/>
      <path class="cls-2" d="m121.42,107.59h7.82v2.03h-5.55v2.1h4.89v2.03h-4.89v2.18h5.63v2.03h-7.9v-10.38Z"/>
      <path class="cls-1" d="m149.02,107.67c-1.36-1.36-3.18-2.12-5.11-2.12s-3.74.76-5.11,2.12c-.12.12-.18.27-.18.43s.07.32.18.43c.23.23.64.23.86,0,1.13-1.13,2.64-1.75,4.24-1.75s3.1.62,4.23,1.75c1.13,1.13,1.75,2.64,1.75,4.23s-.62,3.11-1.75,4.24c-1.13,1.14-2.64,1.75-4.23,1.75s-3.1-.62-4.24-1.75c-.24-.24-.63-.24-.86,0-.12.12-.18.27-.18.43s.07.31.18.43c1.37,1.37,3.22,2.12,5.11,2.12.62,0,1.25-.08,1.86-.25,2.48-.66,4.44-2.62,5.11-5.11.66-2.48-.05-5.16-1.87-6.97"/>
      <path class="cls-1" d="m144.18,108.39c-.28,0-.51.23-.51.51v3.6c0,.14.06.27.15.37l1.8,1.8c.1.1.23.15.37.15s.27-.05.37-.15c.2-.2.2-.53,0-.73l-1.65-1.65v-3.39c0-.28-.23-.51-.51-.51Z"/>
      <path class="cls-1" d="m141.15,113.21c.12-.12.18-.27.18-.43s-.07-.32-.18-.43c-.12-.12-.27-.18-.43-.18h-4.69c-.34,0-.61.27-.61.62s.27.61.61.61h4.69c.17,0,.32-.07.43-.18Z"/>
      <path class="cls-1" d="m137.73,110.83h2.98c.34,0,.61-.27.61-.61s-.27-.61-.61-.61h-2.98c-.34,0-.61.27-.61.61s.27.61.61.61Z"/>
      <path class="cls-1" d="m141.15,115.77c.12-.12.18-.27.18-.43s-.07-.31-.18-.43c-.12-.12-.27-.18-.43-.18h-2.98c-.34,0-.61.27-.61.61s.27.62.61.62h2.98c.16,0,.32-.07.43-.18Z"/>
      <path class="cls-1" d="m155.2,114.46l1.8-1.48c.67-.56.94-.85.94-1.3s-.3-.71-.73-.71-.71.23-1.1.73l-.84-.67c.53-.73,1.05-1.12,2.02-1.12,1.12,0,1.87.66,1.87,1.67v.02c0,.9-.46,1.35-1.43,2.1l-.88.68h2.36v1.03h-4.01v-.95h0Z"/>
      <path class="cls-1" d="m162.99,113.27v-1.69l-1.44,1.69h1.44Zm0,.97h-2.65l-.19-.85,2.97-3.44h1v3.32h.73v.97h-.73v1.17h-1.14v-1.17Z"/>
      <path class="cls-1" d="m168.69,109.23h1l-3.43,7.17h-1l3.43-7.17Z"/>
      <path class="cls-1" d="m170.19,114.46l1.8-1.48c.67-.56.94-.85.94-1.3s-.3-.71-.73-.71-.71.23-1.1.73l-.84-.67c.53-.73,1.05-1.12,2.02-1.12,1.12,0,1.87.66,1.87,1.67v.02c0,.9-.46,1.35-1.43,2.1l-.88.68h2.36v1.03h-4.01v-.95h0Z"/>
      <path class="cls-1" d="m177.99,113.27v-1.69l-1.44,1.69h1.44Zm0,.97h-2.65l-.19-.85,2.97-3.44h1.01v3.32h.73v.97h-.73v1.17h-1.14v-1.17Z"/>
    </g>
  </g>
</svg>