<?xml version="1.0" encoding="UTF-8"?>
<svg id="Calque_2" data-name="Calque 2" xmlns="http://www.w3.org/2000/svg" viewBox="0 0 181.14 120.15">
  <defs>
    <style>
      .cls-1 {
        fill: #0a1527;
      }

      .cls-2 {
        fill: none;
        stroke: #0a1527;
        stroke-linecap: round;
        stroke-linejoin: round;
        stroke-width: 1.75px;
      }

      .cls-3 {
        fill: #ec641d;
      }
    </style>
  </defs>
  <g id="Calque_1-2" data-name="Calque 1">
    <g>
      <path class="cls-1" d="m10.93,83.1c2.65,0,4.17-1.41,4.17-3.5v-.07c0-2.33-1.63-3.53-4.27-3.53h-5.4v7.09h5.5ZM0,71.1h11.28c3.14,0,5.58.88,7.19,2.51,1.37,1.37,2.12,3.32,2.12,5.64v.07c0,3.99-2.15,6.49-5.29,7.65l6.04,8.82h-3.32c-1.89,0-3.66-.95-4.71-2.52l-3.6-5.38h-4.27v7.91H0v-24.7Z"/>
      <path class="cls-1" d="m26.92,71.1h18.63v1.43c0,1.88-1.53,3.4-3.4,3.4h-9.83v5.01h9.61v4.83h-9.61v5.18h10c1.88,0,3.4,1.53,3.4,3.4v1.43h-18.8v-24.7h0Z"/>
      <path class="cls-1" d="m52.19,71.1h5.85l6.49,10.45,6.49-10.45h5.85v24.7h-2c-1.88,0-3.4-1.53-3.4-3.4v-12.72l-6.95,10.55h-.14l-6.88-10.45v12.62c0,1.88-1.53,3.4-3.4,3.4h-1.93v-24.7h.03Z"/>
      <path class="cls-1" d="m94.04,83.56c2.72,0,4.3-1.63,4.3-3.74v-.07c0-2.43-1.69-3.74-4.41-3.74h-4.2v7.55h4.31Zm-9.73-12.45h10.09c5.89,0,9.46,3.5,9.46,8.53v.07c0,5.72-4.44,8.68-9.98,8.68h-4.12v4.01c0,1.88-1.53,3.4-3.4,3.4h-2.03v-24.7h0Z"/>
      <path class="cls-1" d="m121.06,85.46l-3.28-8.01-3.28,8.01h6.56,0Zm-5.72-14.54h5.01l10.58,24.87h-3.39c-1.38,0-2.62-.84-3.15-2.12l-1.39-3.42h-10.45l-1.39,3.42c-.52,1.28-1.77,2.12-3.15,2.12h-3.25l10.58-24.87h.02Z"/>
      <path class="cls-1" d="m146.71,83.1c2.65,0,4.16-1.41,4.16-3.5v-.07c0-2.33-1.62-3.53-4.27-3.53h-5.4v7.09h5.51Zm-10.93-12h11.28c3.13,0,5.57.88,7.19,2.51,1.38,1.37,2.11,3.32,2.11,5.64v.07c0,3.99-2.15,6.49-5.29,7.65l6.03,8.82h-3.4c-1.85,0-3.56-.92-4.59-2.45l-3.65-5.45h-4.27v4.5c0,1.88-1.53,3.4-3.4,3.4h-2.03v-24.7h0Z"/>
      <path class="cls-1" d="m168.19,76.11h-7.51v-5h20.46v5h-7.51v19.68h-2.03c-1.88,0-3.4-1.53-3.4-3.4v-16.28h0Z"/>
      <path class="cls-3" d="m82.07,36.41l-16.14,16.22,5.96-.02c1.81,0,3.5-.71,4.78-2l11.28-11.33c1.59-1.6,1.58-4.18-.02-5.78l-9.59-9.54c-.27-.27-.49-.57-.63-.93-.44-1.17-.18-2.39.65-3.21l8.79-8.83c1.42-1.43,2.21-3.36,2.21-5.37l-.02-5.62-21.82,21.92,14.55,14.48h0Z"/>
      <path class="cls-3" d="m98.99,36.37l16.21,16.14-5.96.02c-1.81,0-3.51-.7-4.79-1.97l-11.33-11.28c-1.6-1.59-1.61-4.18-.02-5.78l9.54-9.59c.27-.27.49-.58.63-.93.44-1.17.16-2.39-.65-3.2l-8.83-8.79c-1.43-1.42-2.23-3.34-2.24-5.36l-.02-5.62,21.92,21.82-14.48,14.55h0Z"/>
      <path class="cls-3" d="m25,114.73l-1.39-3.39-1.39,3.39h2.78Zm-2.42-6.16h2.12l4.49,10.55h-2.41l-.96-2.35h-4.43l-.96,2.35h-2.35l4.49-10.55Z"/>
      <path class="cls-3" d="m32.15,108.63h2.54l2.73,7.38,2.74-7.38h2.48l-4.23,10.56h-2.03l-4.23-10.56Z"/>
      <path class="cls-3" d="m52.52,114.73l-1.39-3.39-1.39,3.39h2.78Zm-2.42-6.16h2.12l4.49,10.55h-2.41l-.96-2.35h-4.43l-.96,2.35h-2.35l4.49-10.55Z"/>
      <path class="cls-3" d="m62.06,108.63h2.12l4.9,6.46v-6.46h2.28v10.48h-1.96l-5.07-6.66v6.66h-2.27v-10.48Z"/>
      <path class="cls-3" d="m80.05,110.76h-3.19v-2.13h8.68v2.13h-3.19v8.35h-2.31v-8.35Z"/>
      <path class="cls-3" d="m95.71,114.73l-1.39-3.39-1.39,3.39h2.78Zm-2.42-6.16h2.12l4.49,10.55h-2.41l-.96-2.35h-4.43l-.96,2.35h-2.35l4.49-10.55Z"/>
      <path class="cls-3" d="m104.11,113.9v-.03c0-2.98,2.32-5.42,5.49-5.42,1.89,0,3.03.51,4.12,1.43l-1.45,1.75c-.81-.67-1.53-1.07-2.74-1.07-1.68,0-3.01,1.48-3.01,3.26v.03c0,1.91,1.32,3.32,3.17,3.32.84,0,1.58-.21,2.17-.63v-1.49h-2.32v-1.99h4.54v4.55c-1.07.91-2.56,1.66-4.47,1.66-3.26,0-5.51-2.29-5.51-5.38"/>
      <path class="cls-3" d="m120.04,108.63h7.9v2.05h-5.62v2.12h4.94v2.05h-4.94v2.2h5.69v2.05h-7.98v-10.48Z"/>
      <path class="cls-3" d="m133.09,117.59l1.36-1.63c.94.78,1.93,1.27,3.13,1.27.94,0,1.51-.38,1.51-.99v-.03c0-.59-.36-.88-2.11-1.33-2.11-.54-3.47-1.12-3.47-3.2v-.03c0-1.9,1.53-3.16,3.66-3.16,1.53,0,2.82.48,3.89,1.33l-1.2,1.74c-.93-.65-1.84-1.03-2.72-1.03s-1.35.4-1.35.91v.03c0,.69.45.91,2.26,1.38,2.12.55,3.32,1.32,3.32,3.14v.03c0,2.08-1.58,3.24-3.85,3.24-1.58,0-3.19-.55-4.44-1.68"/>
      <path class="cls-2" d="m155.29,116.82c.15-.08.29-.08.44,0l3.04,2.22c.23.15.44.23.67.23s.44-.08.67-.23c.37-.29.52-.74.37-1.26l-1.18-3.56c-.08-.15,0-.29.15-.44l3.03-2.22c.52-.22.67-.74.52-1.18-.15-.44-.6-.74-1.04-.74h-3.78c-.15,0-.29-.08-.37-.23l-1.18-3.55c-.15-.44-.6-.74-1.04-.74s-.89.29-1.04.74m8.45,4.52c-.15-.44-.6-.74-1.04-.74h-3.78c-.15,0-.29-.08-.37-.23l-1.18-3.55c-.15-.44-.6-.74-1.04-.74s-.89.29-1.04.74l-1.18,3.48c-.07.15-.23.23-.37.23h-3.78c-.52,0-.89.29-1.04.74-.15.44,0,.96.37,1.26l3.03,2.22c.15.08.15.29.15.44l-1.18,3.56c-.15.44,0,.96.37,1.26.37.29.89.29,1.33,0l3.04-2.22c.15-.08.29-.08.44,0l3.04,2.22c.23.15.44.23.67.23s.44-.08.67-.23c.37-.29.52-.74.37-1.26l-1.18-3.56c-.08-.15,0-.29.15-.44l3.03-2.22c.52-.22.67-.74.52-1.18Z"/>
    </g>
  </g>
</svg>