<?xml version="1.0" encoding="UTF-8"?>
<svg id="Calque_2" data-name="Calque 2" xmlns="http://www.w3.org/2000/svg" viewBox="0 0 183.77 120.03">
  <defs>
    <style>
      .cls-1 {
        fill: #0a1527;
      }

      .cls-2 {
        fill: none;
        stroke: #0a1527;
        stroke-miterlimit: 10;
        stroke-width: .45px;
      }

      .cls-3 {
        fill: #ec641d;
      }
    </style>
  </defs>
  <g id="Calque_1-2" data-name="Calque 1">
    <g>
      <path class="cls-1" d="m11.96,82.58c2.63,0,4.14-1.4,4.14-3.47v-.07c0-2.32-1.62-3.51-4.24-3.51h-5.37v7.05h5.47Zm-10.86-11.92h11.21c3.12,0,5.54.87,7.15,2.49,1.37,1.37,2.11,3.3,2.11,5.61v.07c0,3.97-2.14,6.45-5.26,7.61l6,8.76h-3.3c-1.88,0-3.64-.94-4.68-2.5l-3.58-5.35h-4.24v7.86H1.08v-24.54h0Z"/>
      <path class="cls-1" d="m27.84,70.66h18.51v1.42c0,1.87-1.52,3.38-3.38,3.38h-9.76v4.97h9.55v4.8h-9.55v5.15h9.94c1.87,0,3.37,1.52,3.37,3.38v1.42h-18.69v-24.54h0Z"/>
      <path class="cls-1" d="m52.95,70.66h5.82l6.45,10.38,6.45-10.38h5.82v24.54h-1.98c-1.87,0-3.38-1.52-3.38-3.38v-12.64l-6.91,10.48h-.14l-6.84-10.37v12.54c0,1.87-1.52,3.38-3.38,3.38h-1.92v-24.54h.03Z"/>
      <path class="cls-1" d="m94.53,83.04c2.7,0,4.27-1.62,4.27-3.72v-.07c0-2.42-1.68-3.72-4.38-3.72h-4.17v7.5h4.28Zm-9.67-12.37h10.02c5.86,0,9.4,3.47,9.4,8.48v.07c0,5.68-4.42,8.62-9.92,8.62h-4.1v3.98c0,1.87-1.52,3.38-3.38,3.38h-2.02v-24.54h0Z"/>
      <path class="cls-1" d="m121.4,84.93l-3.26-7.96-3.26,7.96h6.52,0Zm-5.68-14.45h4.97l10.51,24.72h-3.37c-1.37,0-2.61-.83-3.13-2.11l-1.38-3.4h-10.38l-1.38,3.4c-.52,1.27-1.76,2.11-3.13,2.11h-3.23l10.51-24.72h.02Z"/>
      <path class="cls-1" d="m146.88,82.58c2.63,0,4.13-1.4,4.13-3.47v-.07c0-2.32-1.62-3.51-4.24-3.51h-5.37v7.05h5.47Zm-10.86-11.92h11.21c3.12,0,5.54.87,7.15,2.49,1.37,1.37,2.1,3.3,2.1,5.61v.07c0,3.97-2.14,6.45-5.26,7.61l6,8.76h-3.37c-1.83,0-3.54-.92-4.57-2.43l-3.62-5.42h-4.24v4.47c0,1.87-1.52,3.38-3.38,3.38h-2.02v-24.54Z"/>
      <path class="cls-1" d="m168.22,75.64h-7.46v-4.97h20.34v4.97h-7.46v19.56h-2.02c-1.87,0-3.38-1.52-3.38-3.38v-16.18h0Z"/>
      <path class="cls-3" d="m82.64,36.18l-16.04,16.12,5.92-.02c1.8,0,3.48-.71,4.75-1.98l11.21-11.26c1.58-1.59,1.57-4.17-.02-5.75l-9.53-9.48c-.27-.27-.49-.57-.62-.92-.44-1.17-.18-2.37.64-3.19l8.73-8.77c1.41-1.42,2.2-3.34,2.2-5.33l-.02-5.58-21.69,21.79,14.45,14.39Z"/>
      <path class="cls-3" d="m99.46,36.14l16.11,16.04-5.92.02c-1.8,0-3.49-.69-4.76-1.96l-11.26-11.21c-1.59-1.58-1.6-4.16-.02-5.75l9.48-9.53c.27-.27.49-.57.62-.92.44-1.17.16-2.37-.65-3.18l-8.77-8.73c-1.42-1.41-2.22-3.32-2.22-5.32l-.02-5.58,21.79,21.69-14.39,14.45h0Z"/>
      <path class="cls-3" d="m6.45,110.84c0-.56-.18-.98-.54-1.28-.36-.29-.86-.43-1.48-.43h-1.92v3.47h1.97c.62,0,1.11-.17,1.46-.49.35-.33.52-.73.52-1.22v-.03Zm2.17,1.72c-.24.5-.57.92-.98,1.25-.42.33-.9.58-1.46.75-.56.17-1.15.25-1.79.25h-1.9v3.4H0v-11.33h4.63c.68,0,1.28.09,1.82.28.53.19.99.46,1.36.8.37.35.66.76.86,1.24.2.48.3,1.01.3,1.59v.03c0,.66-.12,1.23-.36,1.73Z"/>
      <path class="cls-3" d="m19.51,109.79l-1.51,3.67h3.01l-1.51-3.67h0Zm3.43,8.42l-1.03-2.54h-4.79l-1.03,2.54h-2.54l4.86-11.41h2.3l4.86,11.41h-2.62Z"/>
      <path class="cls-3" d="m37.91,110.74c0-.54-.17-.94-.52-1.22-.35-.27-.82-.41-1.44-.41h-2.47v3.26h2.52c.62,0,1.08-.15,1.42-.44.32-.29.49-.68.49-1.17v-.03h0Zm-.05,7.47l-2.43-3.62h-1.96v3.62h-2.49v-11.33h5.18c1.35,0,2.4.33,3.15.99.75.66,1.12,1.58,1.12,2.75v.03c0,.92-.22,1.67-.67,2.24-.45.57-1.03,1-1.76,1.27l2.77,4.05h-2.92,0Z"/>
      <path class="cls-3" d="m46.39,118.21v-11.34h8.53v2.22h-6.07v2.3h5.34v2.22h-5.34v2.38h6.16v2.22h-8.61Z"/>
      <path class="cls-3" d="m68.87,118.21l-5.49-7.21v7.21h-2.46v-11.34h2.3l5.31,6.98v-6.98h2.47v11.34h-2.12Z"/>
      <path class="cls-3" d="m82.54,109.17v9.04h-2.49v-9.04h-3.45v-2.3h9.39v2.3h-3.45Z"/>
      <path class="cls-3" d="m96.59,109.79l-1.51,3.67h3.01l-1.51-3.67h0Zm3.43,8.42l-1.03-2.54h-4.79l-1.03,2.54h-2.54l4.86-11.41h2.3l4.86,11.41h-2.62Z"/>
      <path class="cls-3" d="m108.07,118.21v-11.34h2.49v9.08h5.65v2.26h-8.14Z"/>
      <path class="cls-3" d="m124.39,106.87h-2.49v11.33h2.49v-11.33Z"/>
      <path class="cls-3" d="m136.05,109.17v9.04h-2.49v-9.04h-3.45v-2.3h9.39v2.3h-3.45Z"/>
      <path class="cls-3" d="m148.01,105.98l1.83-2.87,2.12.92-2.07,1.94h-1.88Zm-2.92,12.22v-11.33h8.53v2.22h-6.07v2.3h5.34v2.22h-5.34v2.38h6.16v2.22h-8.61Z"/>
      <path class="cls-1" d="m171.33,106.27c.04.25.25.43.5.43s.46-.18.51-.43c.04-.22.31-1.35,1.64-1.14.35.06,1.12.61,1.13,1.88,0,1.67-2.17,3.42-3.28,4.13-1.12-.72-3.29-2.46-3.28-4.13,0-1.28.78-1.83,1.13-1.88.11-.02.22-.03.31-.03,1.07,0,1.29.96,1.33,1.17m.77,5.92c.17-.1,4.06-2.41,4.05-5.18,0-1.67-1.03-2.74-2-2.9-1.14-.18-1.87.28-2.31.83-.43-.57-1.17-1.02-2.31-.83-.97.15-1.99,1.22-2,2.9-.02,2.77,3.88,5.08,4.05,5.18.08.04.17.07.26.07s.18-.02.26-.07Zm11.44,6.07c0-.82-.73-1.7-1.82-2.26.62-.64.96-1.49.96-2.41,0-1.93-1.56-3.48-3.48-3.48s-3.48,1.57-3.48,3.48c0,.92.35,1.77.97,2.41-1.09.57-1.82,1.43-1.82,2.26,0,.28.23.52.52.52s.52-.22.52-.52c0-.43.67-1.22,1.94-1.62.19-.06.33-.23.36-.43.02-.2-.08-.4-.24-.5-.75-.45-1.2-1.24-1.2-2.11,0-1.36,1.1-2.46,2.46-2.46s2.46,1.1,2.46,2.46c0,.87-.45,1.66-1.2,2.11-.17.1-.27.3-.25.5.03.2.16.37.36.43,1.27.4,1.94,1.2,1.94,1.62,0,.28.23.52.52.52s.51-.22.51-.52h0Zm-14.73,0c0-.82-.73-1.7-1.82-2.26.62-.64.97-1.49.97-2.41,0-1.93-1.56-3.48-3.48-3.48s-3.48,1.57-3.48,3.48c0,.92.35,1.77.97,2.41-1.09.57-1.82,1.43-1.82,2.26,0,.28.23.52.52.52s.52-.22.52-.52c0-.43.67-1.22,1.94-1.62.19-.06.33-.23.36-.43.03-.2-.07-.4-.25-.5-.75-.45-1.2-1.24-1.2-2.11,0-1.36,1.1-2.46,2.46-2.46s2.46,1.1,2.46,2.46c0,.87-.45,1.66-1.2,2.11-.18.1-.27.3-.24.5.02.2.16.37.36.43,1.27.4,1.94,1.2,1.94,1.62,0,.28.23.52.52.52s.51-.22.51-.52m5.7,1.54c-.28,0-.52-.22-.52-.52,0-.22-.42-.73-1.25-.99-.19-.06-.33-.23-.36-.43-.02-.2.08-.4.24-.5.48-.28.76-.79.76-1.34,0-.87-.7-1.57-1.56-1.57s-1.56.7-1.56,1.57c0,.55.28,1.06.77,1.34.18.1.27.3.24.5-.02.2-.16.37-.35.43-.83.27-1.25.77-1.25.99,0,.28-.23.52-.52.52s-.52-.22-.52-.52c0-.6.46-1.2,1.17-1.62-.38-.46-.58-1.03-.58-1.64,0-1.42,1.16-2.59,2.58-2.59s2.59,1.17,2.59,2.59c0,.61-.21,1.18-.58,1.64.72.42,1.17,1.02,1.17,1.62,0,.28-.23.51-.51.51"/>
      <path class="cls-2" d="m171.33,106.27c.04.25.25.43.5.43s.46-.18.51-.43c.04-.22.31-1.35,1.64-1.14.35.06,1.12.61,1.13,1.88,0,1.67-2.17,3.42-3.28,4.13-1.12-.72-3.29-2.46-3.28-4.13,0-1.28.78-1.83,1.13-1.88.11-.02.22-.03.31-.03,1.07,0,1.29.96,1.33,1.17h0Zm.77,5.92c.17-.1,4.06-2.41,4.05-5.18,0-1.67-1.03-2.74-2-2.9-1.14-.18-1.87.28-2.31.83-.43-.57-1.17-1.02-2.31-.83-.97.15-1.99,1.22-2,2.9-.02,2.77,3.88,5.08,4.05,5.18.08.04.17.07.26.07s.18-.02.26-.07Zm11.44,6.07c0-.82-.72-1.7-1.82-2.26.62-.64.96-1.49.96-2.41,0-1.93-1.56-3.48-3.48-3.48s-3.48,1.57-3.48,3.48c0,.92.35,1.77.97,2.41-1.09.57-1.82,1.43-1.82,2.26,0,.28.23.52.52.52s.52-.22.52-.52c0-.43.67-1.22,1.94-1.62.19-.06.33-.23.36-.43.02-.2-.07-.4-.24-.5-.75-.45-1.2-1.24-1.2-2.11,0-1.36,1.1-2.46,2.46-2.46s2.46,1.1,2.46,2.46c0,.87-.45,1.66-1.2,2.11-.18.1-.27.3-.25.5.03.2.16.37.36.43,1.27.4,1.94,1.2,1.94,1.62,0,.28.23.52.52.52s.51-.22.51-.52h0Zm-14.73,0c0-.82-.72-1.7-1.82-2.26.62-.64.97-1.49.97-2.41,0-1.93-1.56-3.48-3.48-3.48s-3.48,1.57-3.48,3.48c0,.92.35,1.77.97,2.41-1.09.57-1.82,1.43-1.82,2.26,0,.28.23.52.52.52s.52-.22.52-.52c0-.43.68-1.22,1.94-1.62.19-.06.33-.23.36-.43.03-.2-.07-.4-.25-.5-.75-.45-1.2-1.24-1.2-2.11,0-1.36,1.1-2.46,2.46-2.46s2.46,1.1,2.46,2.46c0,.87-.45,1.66-1.2,2.11-.18.1-.27.3-.24.5.02.2.16.37.36.43,1.27.4,1.94,1.2,1.94,1.62,0,.28.23.52.52.52s.51-.22.51-.52h-.02Zm5.7,1.54c-.28,0-.52-.22-.52-.52,0-.22-.42-.73-1.25-.99-.19-.06-.33-.23-.36-.43s.07-.4.24-.5c.47-.28.76-.79.76-1.34,0-.87-.7-1.57-1.56-1.57s-1.56.7-1.56,1.57c0,.55.28,1.06.77,1.34.18.1.27.3.24.5-.02.2-.16.37-.35.43-.83.27-1.25.77-1.25.99,0,.28-.23.52-.52.52s-.52-.22-.52-.52c0-.6.46-1.2,1.18-1.62-.38-.46-.58-1.03-.58-1.64,0-1.42,1.16-2.59,2.58-2.59s2.59,1.17,2.59,2.59c0,.61-.21,1.18-.58,1.64.72.42,1.18,1.02,1.18,1.62,0,.28-.22.51-.51.51h.02Z"/>
    </g>
  </g>
</svg>