<?xml version="1.0" encoding="UTF-8"?>
<svg id="Calque_2" data-name="Calque 2" xmlns="http://www.w3.org/2000/svg" viewBox="0 0 180.55 120.14">
  <defs>
    <style>
      .cls-1 {
        fill: #0a1527;
      }

      .cls-2 {
        fill: none;
        stroke: #0a1527;
        stroke-linecap: round;
        stroke-linejoin: round;
        stroke-width: 1.75px;
      }

      .cls-3 {
        fill: #ec641d;
      }
    </style>
  </defs>
  <g id="Calque_1-2" data-name="Calque 1">
    <g>
      <path class="cls-1" d="m10.9,82.82c2.64,0,4.15-1.4,4.15-3.48v-.07c0-2.32-1.62-3.52-4.25-3.52h-5.38v7.07h5.48ZM0,70.87h11.25c3.13,0,5.56.88,7.17,2.5,1.37,1.37,2.11,3.31,2.11,5.62v.07c0,3.98-2.15,6.47-5.27,7.63l6.02,8.79h-3.31c-1.89,0-3.65-.94-4.7-2.51l-3.59-5.36h-4.25v7.88H0v-24.62Z"/>
      <path class="cls-1" d="m26.83,70.87h18.57v1.43c0,1.87-1.52,3.39-3.39,3.39h-9.79v5h9.58v4.81h-9.58v5.16h9.97c1.87,0,3.39,1.52,3.39,3.39v1.43h-18.74v-24.62Z"/>
      <path class="cls-1" d="m52.02,70.87h5.83l6.47,10.41,6.47-10.41h5.84v24.62h-1.99c-1.87,0-3.39-1.52-3.39-3.39v-12.68l-6.93,10.51h-.14l-6.86-10.4v12.58c0,1.87-1.52,3.39-3.39,3.39h-1.92v-24.62h.02Z"/>
      <path class="cls-1" d="m93.73,83.28c2.71,0,4.29-1.62,4.29-3.73v-.07c0-2.42-1.69-3.73-4.4-3.73h-4.19v7.52h4.29Zm-9.7-12.41h10.05c5.87,0,9.43,3.48,9.43,8.51v.07c0,5.7-4.43,8.65-9.95,8.65h-4.11v3.99c0,1.87-1.52,3.39-3.39,3.39h-2.02v-24.62h0Z"/>
      <path class="cls-1" d="m120.67,85.18l-3.27-7.98-3.27,7.98h6.54,0Zm-5.7-14.49h4.99l10.54,24.79h-3.38c-1.38,0-2.62-.84-3.14-2.11l-1.39-3.41h-10.4l-1.39,3.41c-.52,1.28-1.76,2.11-3.14,2.11h-3.24l10.54-24.79h0Z"/>
      <path class="cls-1" d="m146.23,82.82c2.64,0,4.15-1.4,4.15-3.48v-.07c0-2.32-1.62-3.52-4.25-3.52h-5.38v7.07h5.48Zm-10.9-11.96h11.25c3.12,0,5.56.88,7.17,2.5,1.37,1.37,2.11,3.31,2.11,5.62v.07c0,3.98-2.15,6.47-5.27,7.63l6.02,8.79h-3.38c-1.84,0-3.55-.92-4.58-2.44l-3.63-5.43h-4.25v4.49c0,1.87-1.52,3.39-3.39,3.39h-2.02v-24.62Z"/>
      <path class="cls-1" d="m167.64,75.86h-7.49v-4.99h20.4v4.99h-7.49v19.62h-2.02c-1.87,0-3.39-1.52-3.39-3.39v-16.23h0Z"/>
      <path class="cls-3" d="m81.8,36.29l-16.09,16.17,5.94-.02c1.8,0,3.49-.71,4.76-1.99l11.25-11.3c1.59-1.6,1.58-4.17-.02-5.77l-9.56-9.51c-.27-.27-.49-.57-.63-.93-.44-1.17-.18-2.38.64-3.2l8.76-8.8c1.41-1.42,2.21-3.35,2.21-5.36l-.02-5.6-21.75,21.85,14.5,14.43h0Z"/>
      <path class="cls-3" d="m98.67,36.25l16.16,16.09-5.93.02c-1.8,0-3.5-.69-4.77-1.96l-11.3-11.25c-1.6-1.59-1.6-4.17-.02-5.77l9.51-9.56c.27-.27.49-.58.63-.93.44-1.17.16-2.38-.66-3.19l-8.8-8.76c-1.42-1.41-2.22-3.33-2.23-5.34l-.02-5.6,21.85,21.75-14.43,14.5h0Z"/>
      <path class="cls-3" d="m18.96,113.54c1.14,0,1.82-.69,1.82-1.58v-.03c0-1.03-.72-1.58-1.86-1.58h-1.77v3.19h1.82,0Zm-4.12-5.26h4.26c2.49,0,3.99,1.48,3.99,3.61v.03c0,2.42-1.88,3.67-4.22,3.67h-1.75v3.13h-2.3v-10.44h0Z"/>
      <path class="cls-3" d="m33.48,114.35l-1.39-3.38-1.39,3.38h2.77Zm-2.41-6.14h2.11l4.47,10.51h-2.4l-.95-2.34h-4.41l-.95,2.34h-2.34l4.47-10.51Z"/>
      <path class="cls-3" d="m44.08,110.4h-3.18v-2.12h8.65v2.12h-3.18v8.32h-2.3v-8.32Z"/>
      <path class="cls-3" d="m59.65,113.35c1.12,0,1.76-.59,1.76-1.48v-.03c0-.99-.69-1.5-1.8-1.5h-2.28v3h2.32Zm-4.62-5.07h4.77c1.33,0,2.36.38,3.04,1.06.58.58.89,1.4.89,2.38v.03c0,1.69-.91,2.74-2.24,3.23l2.55,3.73h-2.68l-2.24-3.34h-1.8v3.34h-2.3v-10.44h0Z"/>
      <path class="cls-3" d="m71.94,108.28h-2.3v10.44h2.3v-10.44Z"/>
      <path class="cls-3" d="m78.28,108.28h2.47l2.74,4.42,2.75-4.42h2.47v10.44h-2.28v-6.82l-2.94,4.46h-.06l-2.91-4.42v6.78h-2.25v-10.44Z"/>
      <path class="cls-3" d="m113.74,108.28h-2.3v10.44h2.3v-10.44Z"/>
      <path class="cls-3" d="m120.08,108.28h2.12l4.89,6.43v-6.43h2.26v10.44h-1.95l-5.06-6.64v6.64h-2.26v-10.44Z"/>
      <path class="cls-3" d="m135.58,108.28h7.87v2.05h-5.59v2.11h4.91v2.05h-4.91v2.19h5.67v2.05h-7.95v-10.44Z"/>
      <path class="cls-3" d="m103.05,113.57v-.03c0-1.79-1.31-3.28-3.16-3.28s-3.13,1.46-3.13,3.25v.03c0,1.79,1.31,3.28,3.16,3.28s3.13-1.46,3.13-3.25Zm-8.69,0v-.03c0-2.97,2.34-5.4,5.57-5.4s5.53,2.4,5.53,5.36v.03c0,2.97-2.34,5.4-5.57,5.4s-5.53-2.4-5.53-5.36Z"/>
      <path class="cls-2" d="m157.32,119.26h-3.72c-.43,0-.77-.34-.77-.77v-5.94c0-.38.13-.75.39-1.05l5.27-4.89c.43-.43,1.1-.43,1.54,0l5.27,4.89c.26.29.39.66.39,1.05v5.94c0,.43-.34.77-.77.77h-3.72c-.3,0-.54-.24-.54-.54v-3.54c0-.31-.19-.56-.43-.56h-1.93c-.23,0-.43.25-.43.56v3.54c0,.3-.24.54-.54.54h0Z"/>
    </g>
  </g>
</svg>