<?xml version="1.0" encoding="UTF-8"?>
<svg id="Calque_2" data-name="Calque 2" xmlns="http://www.w3.org/2000/svg" viewBox="0 0 1785.99 357.97">
  <defs>
    <style>
      .cls-1 {
        fill: #fff;
      }

      .cls-2 {
        fill: #ec641d;
      }
    </style>
  </defs>
  <g id="Calque_1-2" data-name="Calque 1">
    <g>
      <g>
        <path class="cls-1" d="m522.76,90.33c19.64,0,30.9-10.47,30.9-25.92v-.52c0-17.28-12.04-26.18-31.68-26.18h-40.06v52.62h40.85ZM441.59,1.31h83.78c23.3,0,41.37,6.54,53.41,18.59,10.21,10.21,15.71,24.61,15.71,41.89v.52c0,29.59-15.97,48.18-39.27,56.81l44.77,65.46h-24.65c-14.05,0-27.17-7.01-34.98-18.67l-26.77-39.97h-31.68v58.65h-40.32V1.31Z"/>
        <path class="cls-1" d="m641.4,1.31h138.24v10.63c0,13.94-11.3,25.24-25.24,25.24h-72.94v37.18h71.28v35.87h-71.28v38.49h74.25c13.94,0,25.24,11.3,25.24,25.24v10.63h-139.55V1.31Z"/>
        <path class="cls-1" d="m828.95,1.31h43.46l48.18,77.5L968.77,1.31h43.46v183.28h-14.82c-13.94,0-25.24-11.3-25.24-25.24v-94.41l-51.58,78.29h-1.05l-51.06-77.5v93.63c0,13.94-11.3,25.24-25.24,25.24h-14.3V1.31Z"/>
        <path class="cls-1" d="m1139.54,93.73c20.16,0,31.94-12.04,31.94-27.75v-.52c0-18.07-12.57-27.75-32.73-27.75h-31.16v56.03h31.94ZM1067.28,1.31h74.88c43.73,0,70.17,25.92,70.17,63.36v.52c0,42.42-32.99,64.41-74.1,64.41h-30.63v29.74c0,13.94-11.3,25.24-25.24,25.24h-15.08V1.31Z"/>
        <path class="cls-1" d="m1340.16,107.87l-24.35-59.43-24.35,59.43h48.7ZM1297.74,0h37.18l78.55,184.58h-25.19c-10.26,0-19.5-6.21-23.37-15.71l-10.35-25.39h-77.5l-10.35,25.39c-3.88,9.5-13.11,15.71-23.37,15.71h-24.14L1297.74,0Z"/>
        <path class="cls-1" d="m1530.49,90.33c19.64,0,30.89-10.47,30.89-25.92v-.52c0-17.28-12.04-26.18-31.68-26.18h-40.06v52.62h40.85ZM1449.33,1.31h83.78c23.3,0,41.37,6.54,53.41,18.59,10.21,10.21,15.71,24.61,15.71,41.89v.52c0,29.59-15.97,48.18-39.27,56.81l44.77,65.46h-25.24c-13.68,0-26.46-6.82-34.08-18.19l-27.09-40.45h-31.68v33.41c0,13.94-11.3,25.24-25.24,25.24h-15.08V1.31Z"/>
        <path class="cls-1" d="m1689.9,38.49h-55.77V1.31h151.86v37.18h-55.77v146.1h-15.05c-13.96,0-25.27-11.32-25.27-25.27V38.49Z"/>
        <path class="cls-2" d="m109.5,247.02L0,357.04l40.41-.09c12.27-.03,23.78-4.83,32.44-13.53l76.53-76.89c10.8-10.85,10.76-28.41-.09-39.21l-65.04-64.74c-1.81-1.81-3.37-3.89-4.28-6.29-3.04-7.97-1.17-16.21,4.36-21.78l59.63-59.91c9.63-9.67,15.02-22.78,14.99-36.42l-.09-38.12L10.82,148.8l98.69,98.22Z"/>
        <path class="cls-2" d="m224.33,246.72l110.02,109.51-40.41.09c-12.27.03-23.81-4.72-32.5-13.37l-76.9-76.53c-10.85-10.8-10.89-28.36-.09-39.21l64.74-65.04c1.81-1.81,3.36-3.91,4.25-6.3,3-7.99,1.1-16.22-4.46-21.75l-59.91-59.63c-9.67-9.63-15.13-22.71-15.16-36.36L173.82,0l148.73,148.03-98.22,98.69Z"/>
        <path class="cls-1" d="m437.82,345.71l9.95-11.92c6.89,5.69,14.11,9.3,22.86,9.3,6.89,0,11.05-2.74,11.05-7.22v-.22c0-4.27-2.63-6.45-15.43-9.73-15.42-3.94-25.38-8.21-25.38-23.41v-.22c0-13.89,11.16-23.08,26.8-23.08,11.16,0,20.68,3.5,28.44,9.74l-8.75,12.69c-6.78-4.71-13.46-7.55-19.91-7.55s-9.84,2.96-9.84,6.67v.22c0,5.03,3.28,6.67,16.52,10.06,15.53,4.05,24.28,9.63,24.28,22.97v.22c0,15.2-11.6,23.74-28.12,23.74-11.59,0-23.3-4.04-32.49-12.25"/>
      </g>
      <path class="cls-1" d="m572.61,299.99l10.17,24.83h-20.35l10.18-24.83Zm-7.55-20.24l-32.82,77.12h17.18l7-17.18h32.37l7.01,17.18h17.61l-32.82-77.12h-15.53Z"/>
      <polygon class="cls-1" points="704.01 280.3 704.01 327.45 668.13 280.3 652.6 280.3 652.6 356.87 669.23 356.87 669.23 308.2 706.31 356.87 720.64 356.87 720.64 280.3 704.01 280.3"/>
      <polygon class="cls-1" points="760.92 280.3 760.92 295.84 784.22 295.84 784.22 356.87 801.06 356.87 801.06 295.84 824.36 295.84 824.36 280.3 760.92 280.3"/>
      <path class="cls-1" d="m864.64,280.3v76.57h58.3v-14.98h-41.57v-16.08h36.1v-14.98h-36.1v-15.54h41.02v-14.98h-57.76Zm22.31-6.02h12.69l14.87-10.94-14.33-6.23-13.24,17.17Z"/>
    </g>
  </g>
</svg>