<?xml version="1.0" encoding="UTF-8"?>
<svg id="Calque_2" data-name="Calque 2" xmlns="http://www.w3.org/2000/svg" viewBox="0 0 180.7 120.15">
  <defs>
    <style>
      .cls-1 {
        fill: #0a1527;
      }

      .cls-2 {
        stroke-linejoin: round;
      }

      .cls-2, .cls-3 {
        fill: none;
        stroke: #0a1527;
        stroke-linecap: round;
        stroke-width: 1.75px;
      }

      .cls-4 {
        fill: #ec641d;
      }

      .cls-3 {
        stroke-miterlimit: 10;
      }
    </style>
  </defs>
  <g id="Calque_1-2" data-name="Calque 1">
    <g>
      <path class="cls-1" d="m10.91,82.89c2.64,0,4.16-1.4,4.16-3.49v-.07c0-2.32-1.62-3.52-4.26-3.52h-5.39v7.08h5.49ZM0,70.93h11.26c3.13,0,5.56.88,7.18,2.5,1.37,1.37,2.12,3.31,2.12,5.63v.07c0,3.98-2.15,6.47-5.28,7.64l6.01,8.8h-3.31c-1.89,0-3.65-.94-4.7-2.51l-3.6-5.37h-4.26v7.89H0v-24.64Z"/>
      <path class="cls-1" d="m26.85,70.93h18.58v1.43c0,1.87-1.51,3.4-3.4,3.4h-9.8v5h9.58v4.82h-9.58v5.17h9.98c1.87,0,3.4,1.52,3.4,3.4v1.43h-18.76v-24.64Z"/>
      <path class="cls-1" d="m52.06,70.93h5.84l6.47,10.42,6.47-10.42h5.84v24.64h-1.99c-1.87,0-3.4-1.52-3.4-3.4v-12.69l-6.93,10.52h-.14l-6.87-10.42v12.59c0,1.87-1.52,3.4-3.4,3.4h-1.92v-24.64h.03Z"/>
      <path class="cls-1" d="m93.81,83.35c2.71,0,4.29-1.62,4.29-3.73v-.07c0-2.43-1.69-3.73-4.4-3.73h-4.19v7.53h4.3Zm-9.71-12.42h10.06c5.88,0,9.43,3.49,9.43,8.51v.07c0,5.7-4.43,8.66-9.96,8.66h-4.11v4c0,1.87-1.52,3.4-3.4,3.4h-2.02v-24.64h0Z"/>
      <path class="cls-1" d="m120.77,85.25l-3.27-7.99-3.27,7.99h6.55,0Zm-5.7-14.5h4.99l10.55,24.81h-3.39c-1.38,0-2.62-.84-3.14-2.12l-1.39-3.41h-10.42l-1.39,3.41c-.52,1.28-1.76,2.12-3.14,2.12h-3.24l10.55-24.81h.02Z"/>
      <path class="cls-1" d="m146.35,82.89c2.64,0,4.15-1.4,4.15-3.49v-.07c0-2.32-1.61-3.52-4.26-3.52h-5.39v7.08h5.5Zm-10.91-11.97h11.26c3.13,0,5.56.88,7.18,2.5,1.37,1.37,2.11,3.31,2.11,5.63v.07c0,3.98-2.15,6.47-5.28,7.64l6.01,8.8h-3.39c-1.84,0-3.56-.92-4.58-2.44l-3.64-5.44h-4.26v4.49c0,1.87-1.52,3.4-3.39,3.4h-2.02v-24.64h0Z"/>
      <path class="cls-1" d="m167.78,75.93h-7.49v-4.99h20.41v4.99h-7.49v19.64h-2.02c-1.87,0-3.4-1.52-3.4-3.4v-16.24h0Z"/>
      <path class="cls-4" d="m81.86,36.32l-16.1,16.18,5.95-.02c1.81,0,3.5-.71,4.77-1.99l11.26-11.31c1.59-1.6,1.58-4.17-.02-5.77l-9.57-9.52c-.27-.27-.49-.57-.63-.93-.44-1.17-.18-2.38.64-3.2l8.76-8.81c1.41-1.42,2.21-3.35,2.21-5.36l-.02-5.6-21.77,21.87,14.51,14.44h0Z"/>
      <path class="cls-4" d="m98.75,36.28l16.17,16.1-5.95.02c-1.81,0-3.5-.69-4.78-1.97l-11.31-11.26c-1.6-1.59-1.6-4.17-.02-5.77l9.52-9.57c.27-.27.49-.58.63-.93.44-1.17.16-2.38-.65-3.19l-8.81-8.76c-1.42-1.41-2.22-3.34-2.23-5.34l-.02-5.6,21.87,21.77-14.44,14.51h0Z"/>
      <path class="cls-4" d="m10.14,117.31l1.35-1.62c.94.78,1.92,1.27,3.12,1.27.94,0,1.51-.38,1.51-.99v-.03c0-.59-.36-.88-2.11-1.33-2.11-.53-3.46-1.12-3.46-3.19v-.03c0-1.9,1.52-3.15,3.65-3.15,1.52,0,2.82.48,3.88,1.33l-1.2,1.73c-.93-.64-1.84-1.03-2.72-1.03s-1.35.4-1.35.91v.03c0,.69.44.91,2.25,1.37,2.12.55,3.31,1.31,3.31,3.14v.03c0,2.07-1.58,3.24-3.84,3.24-1.58,0-3.18-.55-4.43-1.67"/>
      <path class="cls-4" d="m40.54,108.23h2.3v8.36h5.21v2.09h-7.51v-10.45Z"/>
      <path class="cls-4" d="m55.91,108.23h-2.3v10.45h2.3v-10.45Z"/>
      <path class="cls-4" d="m64.55,110.31v6.3h1.77c1.88,0,3.15-1.27,3.15-3.12v-.03c0-1.85-1.27-3.15-3.15-3.15h-1.77Zm-2.3-2.07h4.07c3.29,0,5.55,2.26,5.55,5.19v.03c0,2.94-2.27,5.23-5.55,5.23h-4.07v-10.45Z"/>
      <path class="cls-4" d="m82.91,114.39l-1.39-3.39-1.39,3.39h2.78Zm-2.42-6.15h2.12l4.47,10.52h-2.4l-.95-2.34h-4.42l-.95,2.34h-2.34l4.47-10.52Z"/>
      <path class="cls-4" d="m97.05,113.31c1.12,0,1.76-.59,1.76-1.48v-.03c0-.99-.69-1.49-1.81-1.49h-2.28v3h2.32Zm-4.62-5.08h4.78c1.33,0,2.36.38,3.04,1.06.58.58.89,1.4.89,2.38v.03c0,1.69-.91,2.74-2.24,3.24l2.55,3.73h-2.68l-2.24-3.35h-1.81v3.35h-2.3v-10.45h0Z"/>
      <path class="cls-4" d="m109.35,108.23h-2.3v10.45h2.3v-10.45Z"/>
      <path class="cls-4" d="m118.12,110.36h-3.18v-2.12h8.66v2.12h-3.18v8.33h-2.3v-8.33Z"/>
      <path class="cls-4" d="m133.93,105l1.96.85-2.03,1.5h-1.73l1.81-2.34h0Zm-4.85,3.16h7.88v2.05h-5.6v2.12h4.93v2.05h-4.93v2.19h5.67v2.04h-7.95v-10.45Z"/>
      <path class="cls-4" d="m142.09,117.24l1.35-1.62c.94.78,1.92,1.27,3.12,1.27.94,0,1.51-.38,1.51-.99v-.03c0-.59-.36-.88-2.11-1.33-2.11-.53-3.46-1.12-3.46-3.19v-.03c0-1.9,1.52-3.15,3.65-3.15,1.52,0,2.82.48,3.88,1.33l-1.2,1.73c-.93-.64-1.84-1.03-2.72-1.03s-1.35.4-1.35.91v.03c0,.69.45.91,2.25,1.37,2.12.55,3.31,1.31,3.31,3.14v.03c0,2.07-1.58,3.24-3.84,3.24-1.58,0-3.18-.55-4.43-1.67"/>
      <path class="cls-4" d="m32.11,113.67v-.03c0-1.79-1.31-3.29-3.16-3.29s-3.14,1.46-3.14,3.25v.03c0,1.79,1.31,3.29,3.16,3.29s3.14-1.46,3.14-3.25Zm-8.7,0v-.03c0-2.97,2.34-5.4,5.57-5.4s5.54,2.4,5.54,5.37v.03c0,2.97-2.34,5.4-5.57,5.4s-5.54-2.4-5.54-5.37Z"/>
      <path class="cls-2" d="m164.03,109.11c-3.39-4.47-8.83.49-5.45,4.71,1.21,1.5,5.45,5.45,5.45,5.45,0,0,4.25-3.95,5.45-5.45,3.38-4.22-2.07-9.17-5.45-4.71Z"/>
      <path class="cls-3" d="m158.58,113.82c-3.37-4.22,2.07-9.17,5.45-4.71,3.39-4.47,8.83.49,5.45,4.71"/>
      <path class="cls-2" d="m164.03,119.27s4.25-3.95,5.45-5.45"/>
    </g>
  </g>
</svg>