<svg width="30" height="31" viewBox="0 0 30 31" fill="none" xmlns="http://www.w3.org/2000/svg">
<path d="M14.9268 29.2736C22.7585 29.2736 29.1073 22.9248 29.1073 15.0931C29.1073 7.26142 22.7585 0.912598 14.9268 0.912598C7.09516 0.912598 0.746338 7.26142 0.746338 15.0931C0.746338 22.9248 7.09516 29.2736 14.9268 29.2736Z" stroke="white" stroke-linejoin="round"/>
<path d="M17.295 10.1072H18.6585V7.73366C17.9992 7.66126 17.3365 7.62623 16.6733 7.62852C14.7089 7.62852 13.3625 8.86443 13.3625 11.1363V13.2261H11.1951V15.8793H13.3594V22.5568H16.0179V15.8815H18.098L18.4285 13.2283H16.0171V11.4005C16.0171 10.634 16.2239 10.1093 17.2926 10.1093L17.295 10.1072Z" fill="white"/>
</svg>
