<svg width="30" height="31" viewBox="0 0 30 31" fill="none" xmlns="http://www.w3.org/2000/svg">
<path d="M14.9757 29.2736C22.8073 29.2736 29.1561 22.9248 29.1561 15.0931C29.1561 7.26142 22.8073 0.912598 14.9757 0.912598C7.14399 0.912598 0.795166 7.26142 0.795166 15.0931C0.795166 22.9248 7.14399 29.2736 14.9757 29.2736Z" stroke="white" stroke-linejoin="round"/>
<path d="M11.8984 22.5119C11.2793 22.4991 10.6669 22.3817 10.087 22.1642C9.59099 21.9723 9.14054 21.6788 8.76437 21.3027C8.3882 20.9267 8.0946 20.4764 7.90251 19.9804C7.68503 19.4009 7.56779 18.7886 7.55557 18.1698C7.52124 17.3734 7.51221 17.1204 7.51221 15.0933C7.51221 13.0662 7.52117 12.8132 7.55849 12.0139C7.57094 11.3951 7.68835 10.7828 7.9056 10.2033C8.09372 9.70596 8.38716 9.25527 8.76601 8.88222C9.13874 8.50103 9.59089 8.20647 10.0901 8.01945C10.6698 7.80141 11.2824 7.68375 11.9015 7.6716C12.6979 7.63652 12.9507 7.62842 14.9778 7.62842C17.0049 7.62842 17.2578 7.63664 18.0579 7.6747C18.677 7.68755 19.2895 7.80501 19.8693 8.02236C20.3653 8.21436 20.8158 8.50783 21.192 8.88386C21.5681 9.25989 21.8617 9.71023 22.0538 10.2062C22.2716 10.7859 22.3891 11.3984 22.401 12.0175C22.436 12.8131 22.439 13.067 22.439 15.0933C22.439 17.1196 22.4307 17.3734 22.3957 18.1698C22.383 18.7885 22.266 19.4007 22.0495 19.9804C21.8573 20.4765 21.5637 20.9269 21.1874 21.3029C20.8111 21.679 20.3604 21.9724 19.8642 22.1642C19.2845 22.382 18.672 22.4995 18.0528 22.5119C17.2565 22.5462 17.0034 22.5552 14.9764 22.5552C12.9493 22.5552 12.694 22.5462 11.8984 22.5119ZM11.9678 9.02781C11.4948 9.03304 11.0262 9.11989 10.5827 9.28455C10.2591 9.40396 9.96644 9.59408 9.7259 9.8412C9.47645 10.0807 9.28499 10.3741 9.16615 10.6989C9.00097 11.142 8.9141 11.6104 8.90941 12.0833C8.87508 12.8677 8.86604 13.1066 8.86604 15.0993C8.86604 17.092 8.87508 17.3272 8.90941 18.1138C8.91441 18.5869 9.00126 19.0555 9.16615 19.499C9.28942 19.8218 9.47936 20.115 9.72372 20.3594C9.96808 20.6038 10.2613 20.7937 10.5841 20.917C11.0276 21.0818 11.4962 21.1687 11.9693 21.1737C12.7537 21.208 12.9925 21.2164 14.9853 21.2164C16.978 21.2164 17.2131 21.208 18.0005 21.1737C18.4738 21.1683 18.9426 21.0814 19.3864 20.917C19.7085 20.7924 20.001 20.602 20.2452 20.3578C20.4894 20.1136 20.68 19.8211 20.8046 19.499C20.9694 19.0555 21.0562 18.5869 21.0613 18.1138C21.0957 17.3264 21.1045 17.0935 21.1045 15.1022C21.1045 13.111 21.0957 12.8736 21.0613 12.0862C21.056 11.6134 20.9692 11.1451 20.8046 10.7018C20.6846 10.3783 20.4944 10.0855 20.2478 9.8443C20.0072 9.59679 19.7142 9.40644 19.3903 9.28746C18.9468 9.12253 18.4782 9.03567 18.0051 9.03072C17.2199 8.99639 16.9841 8.98754 14.9891 8.98754C12.9941 8.98754 12.7552 8.99348 11.9678 9.02781ZM11.1424 15.0933C11.1421 14.3346 11.3669 13.5929 11.7882 12.962C12.2095 12.331 12.8083 11.8392 13.5092 11.5487C14.21 11.2582 14.9813 11.182 15.7254 11.3299C16.4695 11.4778 17.1532 11.843 17.6897 12.3794C18.2262 12.9158 18.5916 13.5994 18.7396 14.3435C18.8876 15.0876 18.8117 15.8588 18.5213 16.5597C18.2309 17.2606 17.7393 17.8597 17.1084 18.2811C16.4776 18.7025 15.7358 18.9274 14.9771 18.9272C13.9602 18.927 12.9852 18.523 12.2661 17.8041C11.547 17.0851 11.1428 16.1101 11.1424 15.0933ZM12.4895 15.0933C12.4895 15.5853 12.6355 16.0663 12.9088 16.4754C13.1821 16.8844 13.5707 17.2033 14.0252 17.3915C14.4797 17.5798 14.98 17.6291 15.4625 17.5331C15.945 17.4371 16.3883 17.2001 16.7362 16.8522C17.084 16.5043 17.3209 16.0611 17.4169 15.5785C17.5129 15.096 17.4636 14.596 17.2753 14.1414C17.087 13.6869 16.7682 13.2983 16.3592 13.025C15.9501 12.7517 15.4691 12.6057 14.9771 12.6057C14.3175 12.6061 13.6852 12.8683 13.2189 13.3348C12.7526 13.8012 12.4897 14.4337 12.4895 15.0933ZM18.0647 11.107C18.0647 10.9299 18.1173 10.7569 18.2157 10.6096C18.3141 10.4623 18.454 10.3474 18.6177 10.2796C18.7813 10.2118 18.9613 10.1942 19.135 10.2288C19.3087 10.2633 19.4684 10.3486 19.5936 10.4738C19.7189 10.5991 19.8041 10.7586 19.8387 10.9323C19.8732 11.106 19.8556 11.2861 19.7878 11.4498C19.7201 11.6134 19.6051 11.7533 19.4579 11.8517C19.3106 11.9501 19.1376 12.0026 18.9604 12.0026C18.723 12.0024 18.4954 11.908 18.3276 11.74C18.1598 11.5721 18.0647 11.3444 18.0647 11.107Z" fill="white"/>
</svg>
