<svg width="30" height="31" viewBox="0 0 30 31" fill="none" xmlns="http://www.w3.org/2000/svg">
<path d="M15.0731 29.2736C22.9047 29.2736 29.2536 22.9248 29.2536 15.0931C29.2536 7.26142 22.9047 0.912598 15.0731 0.912598C7.2414 0.912598 0.892578 7.26142 0.892578 15.0931C0.892578 22.9248 7.2414 29.2736 15.0731 29.2736Z" stroke="white" stroke-linejoin="round"/>
<path d="M7.85599 22.5568V12.593H10.9532V22.5568H7.85599ZM19.4443 22.5568V17.7056C19.4443 16.5495 19.4204 15.0673 17.8352 15.0673C16.2261 15.0673 15.9806 16.3233 15.9806 17.6227V22.5568H12.8885V12.5916H15.8575V13.9507H15.9016C16.1982 13.4427 16.6271 13.0247 17.1426 12.7414C17.6581 12.458 18.2408 12.3198 18.8286 12.3416C21.9595 12.3416 22.5365 14.4038 22.5365 17.0824V22.5568H19.4443ZM7.60963 9.4211C7.61111 9.06715 7.71749 8.72162 7.9152 8.42804C8.11292 8.13446 8.39315 7.90614 8.72058 7.77171C9.04801 7.63728 9.40785 7.60281 9.75482 7.67277C10.1018 7.74272 10.4203 7.91394 10.6701 8.16474C10.9198 8.41554 11.0897 8.73474 11.1582 9.082C11.2267 9.42926 11.1909 9.789 11.0551 10.1159C10.9193 10.4427 10.6897 10.722 10.3953 10.9185C10.1009 11.115 9.75473 11.2199 9.40078 11.2199C9.16493 11.2199 8.93147 11.1734 8.71366 11.0829C8.49585 10.9924 8.2981 10.8597 8.13167 10.6926C7.96524 10.5255 7.8335 10.3271 7.74393 10.1089C7.65435 9.89076 7.60865 9.65695 7.60963 9.4211Z" fill="white"/>
</svg>
