<svg width="30" height="31" viewBox="0 0 30 31" fill="none" xmlns="http://www.w3.org/2000/svg">
<path d="M15.0245 29.2736C22.8561 29.2736 29.205 22.9248 29.205 15.0931C29.205 7.26142 22.8561 0.912598 15.0245 0.912598C7.19281 0.912598 0.843994 7.26142 0.843994 15.0931C0.843994 22.9248 7.19281 29.2736 15.0245 29.2736Z" stroke="white" stroke-linejoin="round"/>
<path d="M23.2342 9.96511C22.6476 10.2353 22.0236 10.4157 21.3833 10.5003C22.0655 10.0672 22.5677 9.40172 22.7969 8.62694C22.172 9.01915 21.4824 9.2972 20.7601 9.44799C20.4669 9.1135 20.1061 8.84497 19.7015 8.6601C19.2969 8.47524 18.8577 8.37823 18.4129 8.37549C17.5381 8.40029 16.7088 8.77109 16.1072 9.40663C15.5055 10.0422 15.1805 10.8905 15.2036 11.7654C15.2011 12.025 15.2262 12.2841 15.2783 12.5385C13.9833 12.4629 12.7201 12.1067 11.5765 11.4944C10.4328 10.8821 9.43613 10.0285 8.65523 8.99264C8.36642 9.51866 8.21513 10.1092 8.21555 10.7093C8.21171 11.2585 8.33922 11.8007 8.58745 12.2907C8.83568 12.7806 9.19751 13.2041 9.64264 13.5259C9.13141 13.5109 8.63213 13.3676 8.19095 13.1088V13.1462C8.17748 13.9113 8.42508 14.6582 8.89302 15.2637C9.36095 15.8692 10.0213 16.2971 10.7651 16.477C10.491 16.5534 10.2077 16.591 9.92325 16.5889C9.7187 16.5925 9.51446 16.573 9.31429 16.5308C9.50452 17.1891 9.89655 17.7712 10.4353 18.1947C10.974 18.6183 11.6321 18.862 12.3168 18.8915C11.1979 19.8231 9.78863 20.3343 8.33271 20.337C8.07547 20.3389 7.81839 20.3236 7.56323 20.2909C9.01407 21.2834 10.7313 21.8135 12.4892 21.8118C18.4017 21.8118 21.634 16.6448 21.634 12.1661C21.634 12.0168 21.6289 11.8676 21.6222 11.728C22.2623 11.2433 22.8085 10.6459 23.2342 9.96511Z" fill="white"/>
</svg>
