<svg width="30" height="36" viewBox="0 0 30 36" fill="none" xmlns="http://www.w3.org/2000/svg">
<path d="M29.3576 14.5119C29.3576 25.3916 16.1646 35.4726 16.1646 35.4726C15.7619 35.7585 15.2695 35.9133 14.7631 35.9133C14.2568 35.9133 13.7644 35.7585 13.3617 35.4726C13.3617 35.4726 0.168701 25.3916 0.168701 14.5119C0.168701 10.9053 1.70633 7.44647 4.44332 4.89625C7.1803 2.34603 10.8925 0.91333 14.7631 0.91333C18.6338 0.91333 22.346 2.34603 25.083 4.89625C27.82 7.44647 29.3576 10.9053 29.3576 14.5119Z" fill="#EC641D"/>
<path d="M14.7704 21.3532C13.3192 21.3532 11.9006 20.9522 10.6939 20.201C9.48725 19.4497 8.54677 18.3819 7.9914 17.1327C7.43604 15.8834 7.29073 14.5087 7.57385 13.1825C7.85698 11.8563 8.55581 10.6381 9.58199 9.68192C10.6082 8.72577 11.9156 8.07462 13.339 7.81081C14.7623 7.54701 16.2376 7.68241 17.5784 8.19987C18.9192 8.71734 20.0652 9.59364 20.8714 10.718C21.6777 11.8423 22.108 13.1641 22.108 14.5163C22.108 16.3296 21.335 18.0686 19.9589 19.3507C18.5828 20.6329 16.7165 21.3532 14.7704 21.3532Z" fill="#0A1527"/>
</svg>
