<svg width="150" height="77" viewBox="0 0 150 77" fill="none" xmlns="http://www.w3.org/2000/svg">
<g clip-path="url(#clip0_130_603)">
<path d="M5.78796 56.1895V55.7264C5.78796 54.9229 6.30341 54.7485 6.67389 54.7485C6.91819 54.7485 7.1249 54.7894 7.16785 54.8057C7.21349 54.8085 7.24034 54.8275 7.24034 54.8738V55.0863C7.24034 55.1244 7.22155 55.1544 7.18128 55.1544H7.16785C7.06584 55.1435 6.85107 55.1244 6.68462 55.1244C6.41885 55.1244 6.23092 55.2688 6.23092 55.7264V56.1895C6.23092 56.6335 6.41885 56.7806 6.68462 56.7806C6.85107 56.7806 7.06584 56.767 7.16785 56.7588H7.18128C7.22155 56.7588 7.24034 56.7833 7.24034 56.8269V57.0366C7.24034 57.0857 7.21349 57.0966 7.16785 57.1102C7.1249 57.1238 6.91819 57.1646 6.67389 57.1646C6.30341 57.1646 5.78796 56.9767 5.78796 56.1895Z" fill="white"/>
<path d="M8.37598 57.9407V61.0378C8.37598 61.0814 8.3384 61.1222 8.28739 61.1222H7.86322C7.8149 61.1222 7.78 61.0814 7.78 61.0378V59.684H6.54508V61.0378C6.54508 61.0814 6.51018 61.1222 6.45917 61.1222H6.02963C5.98399 61.1222 5.94104 61.0814 5.94104 61.0378V57.9407C5.94104 57.8862 5.98399 57.8535 6.02963 57.8535H6.45917C6.51018 57.8535 6.54508 57.8862 6.54508 57.9407V59.1583H7.78V57.9407C7.78 57.8862 7.8149 57.8535 7.86322 57.8535H8.28739C8.3384 57.8535 8.37598 57.8862 8.37598 57.9407Z" fill="white"/>
<path d="M8.37066 54.7485C7.85253 54.7485 7.474 55.0427 7.474 55.74V56.1704C7.474 56.8732 7.85253 57.1646 8.37066 57.1646C8.88879 57.1646 9.25927 56.8732 9.25927 56.1704V55.74C9.25927 55.0427 8.8861 54.7485 8.37066 54.7485ZM8.82704 56.1704C8.82704 56.5899 8.67939 56.7724 8.37066 56.7724C8.06193 56.7724 7.91696 56.5899 7.91696 56.1704V55.74C7.91696 55.3233 8.06193 55.1326 8.37066 55.1326C8.67939 55.1326 8.82704 55.3233 8.82704 55.74V56.1704Z" fill="white"/>
<path d="M10.7143 51.5176H5.95178V53.1982H10.7143V51.5176Z" fill="white"/>
<path d="M11.2003 61.0268L10.4888 58.2702C10.3868 57.8562 10.0727 57.8208 9.88748 57.8208C9.70224 57.8208 9.38814 57.8562 9.28344 58.2702L8.57471 61.0268C8.57471 61.0268 8.56934 61.0405 8.56934 61.0459C8.56934 61.0949 8.60155 61.1222 8.64987 61.1222H9.10894C9.14653 61.1222 9.18143 61.0841 9.1868 61.0459L9.38814 60.2124H10.3868L10.5855 61.0459C10.5935 61.0841 10.6257 61.1222 10.666 61.1222H11.1251C11.168 61.1222 11.2083 61.0949 11.2083 61.0459C11.2083 61.0405 11.2003 61.0377 11.2003 61.0268ZM9.50627 59.7112L9.815 58.4037C9.8311 58.352 9.84453 58.3356 9.88748 58.3356C9.92775 58.3356 9.94654 58.352 9.9546 58.4037L10.266 59.7112H9.50627Z" fill="white"/>
<path d="M10.2713 54.8765L10.9988 56.5108C10.9988 56.5108 11.0149 56.5353 11.0257 56.5353C11.0257 56.5353 11.0444 56.5244 11.0444 56.5054V54.8329C11.0444 54.8056 11.0713 54.7729 11.1035 54.7729H11.372C11.4069 54.7729 11.4337 54.8056 11.4337 54.8329V57.0093C11.4337 57.0828 11.372 57.1346 11.3049 57.1346H10.9854C10.9102 57.1346 10.8458 57.1346 10.7975 57.0229L10.1021 55.4757C10.0941 55.4512 10.0834 55.443 10.0834 55.443C10.0619 55.443 10.0592 55.4512 10.0592 55.4757V57.0747C10.0592 57.1046 10.0297 57.1346 9.99745 57.1346H9.73167C9.69408 57.1346 9.67261 57.1046 9.67261 57.0747V54.901C9.67261 54.8329 9.72898 54.7729 9.79342 54.7729H10.1344C10.1961 54.7729 10.2337 54.7947 10.2713 54.8765Z" fill="white"/>
<path d="M12.2445 55.356C12.2445 55.4568 12.2955 55.5221 12.4968 55.6365L12.8754 55.8463C13.2244 56.0451 13.3103 56.2467 13.3103 56.4918C13.3103 56.8133 13.1143 57.1646 12.4888 57.1646C12.2498 57.1646 12.0807 57.1374 11.9331 57.102C11.9008 57.0966 11.8713 57.0748 11.8713 57.0421V56.8105C11.8713 56.7724 11.9008 56.7506 11.9331 56.7506C12.0646 56.767 12.376 56.7806 12.4941 56.7806C12.7733 56.7806 12.8566 56.6771 12.8566 56.4918C12.8566 56.372 12.8002 56.3066 12.5962 56.1895L12.1747 55.9334C11.8874 55.7591 11.8069 55.5766 11.8069 55.356C11.8069 55.0046 12.0082 54.7485 12.5962 54.7485C12.8002 54.7485 13.0848 54.7785 13.1921 54.8057C13.2244 54.8085 13.2485 54.833 13.2485 54.8657V55.0999C13.2485 55.1326 13.2297 55.1571 13.1948 55.1571H13.1921C12.9774 55.1408 12.7733 55.1244 12.572 55.1244C12.3438 55.1244 12.2445 55.2089 12.2445 55.356Z" fill="white"/>
<path d="M13.6701 57.9407V59.9128C13.6701 60.8498 13.1788 61.1576 12.4835 61.1576C11.7882 61.1576 11.2861 60.8498 11.2861 59.9128V57.9407C11.2861 57.8862 11.3264 57.8535 11.372 57.8535H11.7989C11.8499 57.8535 11.8929 57.8862 11.8929 57.9407V59.9128C11.8929 60.414 12.0137 60.6537 12.4835 60.6537C12.9533 60.6537 13.0687 60.414 13.0687 59.9128V57.9407C13.0687 57.8862 13.1063 57.8535 13.1573 57.8535H13.5868C13.6352 57.8535 13.6701 57.8862 13.6701 57.9407Z" fill="white"/>
<path d="M14.411 57.1646C14.0003 57.1646 13.6888 57.053 13.6888 56.5109V55.3996C13.6888 54.8629 14.0003 54.7485 14.411 54.7485C14.7815 54.7485 14.9077 54.7758 15.007 54.7948C15.0553 54.8057 15.0687 54.8112 15.0687 54.8629V55.0618C15.0687 55.0945 15.0392 55.1244 15.007 55.1244H14.368C14.1882 55.1244 14.1184 55.1925 14.1184 55.3996V55.7428H14.9721C15.0043 55.7428 15.0365 55.7754 15.0365 55.8054V56.0342C15.0365 56.0751 15.0043 56.0996 14.9721 56.0996H14.1184V56.5109C14.1184 56.7207 14.1882 56.7806 14.368 56.7806H15.007C15.0392 56.7806 15.0687 56.8105 15.0687 56.8487V57.053C15.0687 57.0938 15.0553 57.1102 15.007 57.1211C14.9077 57.132 14.7815 57.1646 14.411 57.1646Z" fill="white"/>
<path d="M15.5573 57.1346C15.5224 57.1346 15.4902 57.1046 15.4902 57.0747V54.8329C15.4902 54.8056 15.5224 54.7729 15.5573 54.7729H15.8634C15.8983 54.7729 15.9225 54.8056 15.9225 54.8329V57.0747C15.9225 57.1046 15.8983 57.1346 15.8634 57.1346H15.5573Z" fill="white"/>
<path d="M16.1586 57.9407V58.2866C16.1586 58.3356 16.1237 58.3629 16.0727 58.3629H15.3157V61.0378C15.3157 61.0814 15.2727 61.1222 15.2244 61.1222H14.7948C14.7546 61.1222 14.7116 61.0814 14.7116 61.0378V58.3629H13.9572C13.9036 58.3629 13.8687 58.3356 13.8687 58.2866V57.9407C13.8687 57.8862 13.9036 57.8535 13.9572 57.8535H16.0727C16.1237 57.8535 16.1586 57.8862 16.1586 57.9407Z" fill="white"/>
<path d="M16.1694 51.5176H11.4069V53.1982H16.1694V51.5176Z" fill="white"/>
<path d="M16.3976 56.5108V54.8356C16.3976 54.8056 16.4217 54.7729 16.4566 54.7729H16.7734C16.803 54.7729 16.8325 54.8056 16.8325 54.8356V56.5108C16.8325 56.7206 16.8969 56.7805 17.0768 56.7805H17.6567C17.6862 56.7805 17.7184 56.8104 17.7184 56.8486V57.0529C17.7184 57.0937 17.6969 57.1046 17.6567 57.121C17.56 57.1373 17.2889 57.1645 17.1197 57.1645C16.7117 57.1645 16.3976 57.0529 16.3976 56.5108Z" fill="white"/>
<path d="M18.1802 57.9761V58.2512C18.1802 58.3057 18.14 58.3438 18.089 58.3438H17.2084C16.9534 58.3438 16.8675 58.431 16.8675 58.7224V59.1991H18.0406C18.0863 59.1991 18.1265 59.24 18.1265 59.2808V59.6022C18.1265 59.6485 18.0863 59.684 18.0406 59.684H16.8675V60.256C16.8675 60.5447 16.9534 60.6346 17.2084 60.6346H18.089C18.14 60.6346 18.1802 60.6755 18.1802 60.7163V60.9996C18.1802 61.0677 18.1588 61.0841 18.089 61.0977C17.952 61.1167 17.7856 61.1576 17.2702 61.1576C16.7064 61.1576 16.2661 60.9996 16.2661 60.256V58.7224C16.2661 57.9761 16.7064 57.8208 17.2702 57.8208C17.7856 57.8208 17.952 57.8562 18.089 57.8834C18.1588 57.8862 18.1802 57.9134 18.1802 57.9761Z" fill="white"/>
<path d="M19.4285 59.6352V59.9103C19.4285 59.9594 19.3936 59.9893 19.3453 59.9893H18.4969C18.4459 59.9893 18.4056 59.9594 18.4056 59.9103V59.6352C18.4056 59.5889 18.4459 59.5508 18.4969 59.5508H19.3453C19.3936 59.5508 19.4285 59.5889 19.4285 59.6352Z" fill="white"/>
<path d="M19.4983 54.7485C19.2728 54.7485 18.9721 54.7676 18.8808 54.7894C18.8245 54.7976 18.7949 54.8248 18.7949 54.8847V57.023C18.7949 57.0884 18.8245 57.1156 18.8808 57.1238C18.9721 57.1374 19.2728 57.1646 19.4983 57.1646C20.1265 57.1646 20.4835 56.8133 20.4835 56.1895V55.7264C20.4835 55.089 20.1265 54.7485 19.4983 54.7485ZM20.0486 56.1895C20.0486 56.6689 19.8097 56.7833 19.4983 56.7833C19.3829 56.7833 19.2996 56.7806 19.2352 56.7751V55.1244C19.2996 55.1244 19.3829 55.1217 19.4983 55.1217C19.8097 55.1217 20.0486 55.2443 20.0486 55.7264V56.1895Z" fill="white"/>
<path d="M21.6246 51.5176H16.8647V53.1982H21.6246V51.5176Z" fill="white"/>
<path d="M21.8259 57.9897V58.2866C21.8259 58.3465 21.8071 58.3765 21.7427 58.3765H21.7266C21.5252 58.3629 21.2245 58.3438 20.8057 58.3438C20.5185 58.3438 20.2393 58.5508 20.2393 59.1746V59.8065C20.2393 60.433 20.5427 60.6346 20.7977 60.6346C20.9561 60.6346 21.093 60.6346 21.2245 60.6183V59.5015C21.2245 59.4524 21.2594 59.4116 21.3078 59.4116H21.7427C21.7856 59.4116 21.8259 59.4524 21.8259 59.5015V60.9751C21.8259 61.0377 21.7964 61.0704 21.7427 61.0813C21.5252 61.1276 21.2433 61.1576 20.7977 61.1576C20.352 61.1576 19.6353 60.8471 19.6353 59.8065V59.1746C19.6353 58.1313 20.2984 57.8208 20.8057 57.8208C21.2245 57.8208 21.5977 57.8726 21.7427 57.9025C21.7964 57.9134 21.8259 57.9325 21.8259 57.9897Z" fill="white"/>
<path d="M21.3346 54.5605L21.6299 54.1765C21.6594 54.1438 21.6729 54.1274 21.7104 54.1274H22.0406C22.0621 54.1274 22.0755 54.1411 22.0755 54.152C22.0755 54.1574 22.0729 54.1683 22.0621 54.1765L21.689 54.5714C21.6702 54.596 21.6567 54.6123 21.6192 54.6123H21.3507C21.3292 54.6123 21.3212 54.5987 21.3212 54.5905C21.3212 54.5796 21.3212 54.566 21.3346 54.5605Z" fill="white"/>
<path d="M21.6111 54.7485C21.9842 54.7485 22.1077 54.7758 22.2097 54.7948C22.2554 54.8057 22.2742 54.8112 22.2742 54.8629V55.0618C22.2742 55.0945 22.242 55.1244 22.2097 55.1244H21.5708C21.3909 55.1244 21.3211 55.1925 21.3211 55.3996V55.7428H22.1695C22.2044 55.7428 22.2366 55.7727 22.2366 55.8054V56.0342C22.2366 56.0751 22.2044 56.0996 22.1695 56.0996H21.3211V56.5109C21.3211 56.7207 21.3909 56.7806 21.5708 56.7806H22.2097C22.242 56.7806 22.2742 56.8105 22.2742 56.8487V57.053C22.2742 57.0938 22.2554 57.1102 22.2097 57.1211C22.1077 57.132 21.9842 57.1646 21.6111 57.1646C21.2057 57.1646 20.8916 57.053 20.8916 56.5109V55.3996C20.8916 54.8629 21.2057 54.7485 21.6111 54.7485Z" fill="white"/>
<path d="M23.4098 54.7485C23.1816 54.7485 22.9561 54.7649 22.7923 54.7921C22.7306 54.8057 22.6957 54.8248 22.6957 54.8847V57.0748C22.6957 57.1047 22.7225 57.1347 22.7547 57.1347H23.0715C23.1037 57.1347 23.1306 57.1047 23.1306 57.0748V56.2467C23.2031 56.2467 23.3266 56.2521 23.4098 56.2521C23.8984 56.2521 24.3064 56.0751 24.3064 55.5112V55.484C24.3064 54.9201 23.8984 54.7485 23.4098 54.7485ZM23.8769 55.5112C23.8769 55.7646 23.7507 55.8953 23.4098 55.8953C23.3534 55.8953 23.1816 55.8871 23.1306 55.8844V55.1244C23.187 55.1217 23.34 55.1163 23.4098 55.1163C23.7212 55.1163 23.8769 55.217 23.8769 55.484V55.5112Z" fill="white"/>
<path d="M24.6447 61.0268L23.9333 58.2702C23.8286 57.8562 23.5199 57.8208 23.3319 57.8208C23.144 57.8208 22.8353 57.8562 22.7333 58.2702L22.0192 61.0268C22.0192 61.0268 22.0111 61.0405 22.0111 61.0459C22.0111 61.0949 22.046 61.1222 22.0916 61.1222H22.5534C22.5937 61.1222 22.6259 61.0841 22.6339 61.0459L22.8353 60.2124H23.8286L24.0299 61.0459C24.0353 61.0841 24.0702 61.1222 24.1132 61.1222H24.5749C24.6125 61.1222 24.6501 61.0949 24.6501 61.0459C24.6501 61.0405 24.6447 61.0377 24.6447 61.0268ZM22.9507 59.7112L23.2621 58.4037C23.2756 58.352 23.2863 58.3356 23.3319 58.3356C23.3722 58.3356 23.3883 58.352 23.4044 58.4037L23.7158 59.7112H22.9507Z" fill="white"/>
<path d="M25.6971 55.0754C25.6247 54.7758 25.3965 54.7485 25.2596 54.7485C25.1226 54.7485 24.9025 54.7758 24.8273 55.0754L24.3065 57.0666V57.0857C24.3065 57.1156 24.336 57.1347 24.3683 57.1347H24.6985C24.7253 57.1347 24.7522 57.1102 24.7548 57.0857L24.9025 56.4837H25.6247L25.7669 57.0857C25.7723 57.1102 25.7965 57.1347 25.8233 57.1347H26.1589C26.1884 57.1347 26.2099 57.1156 26.2099 57.0829V57.0666L25.6971 55.0754ZM24.9884 56.1159L25.2085 55.168C25.2193 55.1326 25.23 55.1217 25.2596 55.1217C25.2918 55.1217 25.2998 55.1326 25.3132 55.168L25.5361 56.1159H24.9884Z" fill="white"/>
<path d="M27.0823 51.5176H22.3171V53.1982H27.0823V51.5176Z" fill="white"/>
<path d="M27.1709 61.0377L26.4944 59.7493C26.8461 59.6104 27.077 59.319 27.077 58.8532V58.8123C27.077 58.0605 26.4944 57.8208 25.8313 57.8208C25.5118 57.8208 25.2058 57.8426 24.9749 57.878C24.8944 57.8862 24.8353 57.9216 24.8353 58.0088V61.0377C24.8353 61.0813 24.881 61.1222 24.9293 61.1222H25.3615C25.4045 61.1222 25.442 61.0813 25.442 61.0377V59.8392C25.5414 59.8447 25.7132 59.8583 25.8313 59.8583H25.8904L26.5132 61.0377C26.5374 61.0786 26.5508 61.1222 26.5991 61.1222H27.1307C27.1629 61.1222 27.1817 61.1031 27.1817 61.0704C27.1817 61.065 27.1817 61.0459 27.1709 61.0377ZM26.4756 58.8532C26.4756 59.2427 26.277 59.3598 25.8313 59.3598C25.7561 59.3598 25.5118 59.3544 25.442 59.3489V58.3629C25.5226 58.352 25.74 58.3438 25.8313 58.3438C26.2635 58.3438 26.4756 58.4854 26.4756 58.8123V58.8532Z" fill="white"/>
<path d="M28.1937 57.0748L27.7025 56.1459C27.9629 56.0451 28.124 55.8354 28.124 55.4949V55.4704C28.124 54.9229 27.7052 54.7485 27.2219 54.7485C26.991 54.7485 26.7709 54.7649 26.6071 54.7921C26.5454 54.8057 26.5105 54.8248 26.5105 54.8847V57.0748C26.5105 57.1047 26.5373 57.1347 26.5696 57.1347H26.8837C26.9159 57.1347 26.9454 57.1047 26.9454 57.0748V56.2086C27.0152 56.214 27.1441 56.2249 27.2219 56.2249H27.2676L27.7186 57.0748C27.7347 57.102 27.7454 57.1347 27.7803 57.1347H28.1615C28.1857 57.1347 28.2045 57.1238 28.2045 57.0965C28.2045 57.0911 28.2045 57.0857 28.1937 57.0748ZM27.6944 55.4949C27.6944 55.7782 27.5441 55.8653 27.2219 55.8653C27.1682 55.8653 26.991 55.8626 26.9454 55.8517V55.1408C26.9991 55.1326 27.1548 55.1244 27.2219 55.1244C27.536 55.1244 27.6944 55.2279 27.6944 55.4704V55.4949Z" fill="white"/>
<path d="M28.5159 57.8208C27.8018 57.8208 27.281 58.2239 27.281 59.1909V59.7847C27.281 60.7517 27.8018 61.1576 28.5159 61.1576C29.23 61.1576 29.7508 60.7517 29.7508 59.7847V59.1909C29.7508 58.2239 29.2327 57.8208 28.5159 57.8208ZM29.1441 59.7847C29.1441 60.3649 28.9401 60.6292 28.5159 60.6292C28.0918 60.6292 27.8877 60.3649 27.8877 59.7847V59.1909C27.8877 58.608 28.0918 58.352 28.5159 58.352C28.9401 58.352 29.1441 58.608 29.1441 59.1909V59.7847Z" fill="white"/>
<path d="M29.9414 54.8329V55.0862C29.9414 55.1216 29.9119 55.1434 29.877 55.1434H29.332V57.0747C29.332 57.1046 29.3052 57.1346 29.2676 57.1346H28.9589C28.924 57.1346 28.8971 57.1046 28.8971 57.0747V55.1434H28.3468C28.3146 55.1434 28.2797 55.1216 28.2797 55.0862V54.8329C28.2797 54.8056 28.3146 54.7729 28.3468 54.7729H29.877C29.9119 54.7729 29.9414 54.8056 29.9414 54.8329Z" fill="white"/>
<path d="M30.6073 55.3996V55.7428H31.461C31.4932 55.7428 31.5227 55.7754 31.5227 55.8054V56.0342C31.5227 56.0751 31.4932 56.0996 31.461 56.0996H30.6073V56.5109C30.6073 56.7207 30.6771 56.7806 30.8569 56.7806H31.4986C31.5362 56.7806 31.5603 56.8105 31.5603 56.8487V57.053C31.5603 57.0938 31.5496 57.1102 31.4986 57.1211C31.3992 57.132 31.2731 57.1646 30.9026 57.1646C30.4918 57.1646 30.1831 57.053 30.1831 56.5109V55.3996C30.1831 54.8629 30.4918 54.7485 30.9026 54.7485C31.2731 54.7485 31.3992 54.7758 31.4986 54.7948C31.5496 54.8057 31.5603 54.8112 31.5603 54.8629V55.0618C31.5603 55.0945 31.5362 55.1244 31.4986 55.1244H30.8569C30.6771 55.1244 30.6073 55.1925 30.6073 55.3996Z" fill="white"/>
<path d="M32.5321 57.9407V60.9506C32.5321 61.0378 32.4569 61.1222 32.363 61.1222H31.9227C31.8207 61.1222 31.7267 61.1222 31.6596 60.9615L30.6958 58.8205C30.6824 58.8014 30.6663 58.7851 30.6663 58.7851C30.6475 58.7851 30.6314 58.8014 30.6314 58.8205V61.0378C30.6314 61.0814 30.6019 61.1222 30.5536 61.1222H30.1884C30.1374 61.1222 30.0972 61.0814 30.0972 61.0378V58.0306C30.0972 57.9325 30.1723 57.8535 30.2717 57.8535H30.7361C30.8328 57.8535 30.8784 57.8835 30.9321 57.9979L31.9415 60.256C31.9469 60.2778 31.963 60.2941 31.963 60.2941C31.9871 60.2941 31.9979 60.2778 31.9979 60.2506V57.9407C31.9979 57.8862 32.0301 57.8535 32.0784 57.8535H32.4543C32.4945 57.8535 32.5321 57.8862 32.5321 57.9407Z" fill="white"/>
<path d="M32.5375 51.5176H27.7723V53.1982H32.5375V51.5176Z" fill="white"/>
<path d="M33.1523 56.2466H32.8328C32.7899 56.2466 32.7496 56.2248 32.7308 56.1894L32.4248 55.582L32.4167 55.5602C32.4167 55.5602 32.4033 55.5683 32.4033 55.5956V57.0747C32.4033 57.1019 32.3845 57.1346 32.355 57.1346H32.0355C32.006 57.1346 31.9872 57.1237 31.9872 57.0883V54.901C31.9872 54.8329 32.0382 54.7729 32.108 54.7729H32.363C32.4167 54.7729 32.4597 54.8056 32.4812 54.8438L32.9536 55.8244C32.9671 55.8489 32.9751 55.868 32.9751 55.868C32.9993 55.868 33.01 55.8489 33.0234 55.8244L33.4932 54.8438C33.5201 54.8056 33.5604 54.7729 33.6167 54.7729H33.8718C33.9389 54.7729 33.9899 54.8329 33.9899 54.901V57.0883C33.9899 57.1237 33.9711 57.1346 33.9416 57.1346H33.6248C33.5953 57.1346 33.5711 57.1019 33.5711 57.0747V55.5956C33.5711 55.5683 33.5711 55.5602 33.5657 55.5602C33.5657 55.5602 33.555 55.5683 33.5496 55.582L33.2463 56.1894C33.2302 56.2248 33.1926 56.2466 33.1523 56.2466Z" fill="white"/>
<path d="M35.402 57.9407V60.9506C35.402 61.0378 35.3268 61.1222 35.2302 61.1222H34.7926C34.6852 61.1222 34.5939 61.1222 34.5295 60.9615L33.5657 58.8205C33.5523 58.8014 33.5389 58.7851 33.5254 58.7851C33.5254 58.7851 33.5066 58.8014 33.5066 58.8205V61.0378C33.5066 61.0814 33.4717 61.1222 33.4207 61.1222H33.0529C33.0046 61.1222 32.967 61.0814 32.967 61.0378V58.0306C32.967 57.9325 33.0476 57.8535 33.1389 57.8535H33.6113C33.6999 57.8535 33.7509 57.8835 33.7966 57.9979L34.806 60.256C34.8194 60.2778 34.8328 60.2941 34.8463 60.2941C34.8543 60.2941 34.8677 60.2778 34.8677 60.2506V57.9407C34.8677 57.8862 34.8973 57.8535 34.9456 57.8535H35.3214C35.3698 57.8535 35.402 57.8862 35.402 57.9407Z" fill="white"/>
<path d="M25.0018 33.5483C29.3536 22.955 32.704 23.2192 33.6167 23.3745C34.5215 23.5325 35.4691 24.4014 35.6248 26.5887C35.7859 28.7706 35.3403 31.0069 34.559 32.4234C32.8087 31.7805 34.4678 26.3817 32.8087 26.0303C31.8207 25.8233 29.0099 30.4458 27.2193 34.834C25.4233 39.225 23.1038 46.3398 26.2153 46.5796C29.324 46.8193 31.1469 40.7504 32.1724 37.8358C32.0946 37.8766 30.8355 38.5549 30.1965 38.6884C29.5361 38.8218 28.3764 38.9281 28.3227 38.3669C28.2744 37.8058 28.6985 36.8388 28.8811 36.5991C29.0636 36.3567 33.1255 35.2372 35.9174 34.8068C35.9174 34.8068 35.1523 36.038 34.9725 36.4084C34.7845 36.7898 34.4973 37.163 34.1778 37.1902C34.1778 37.1902 31.1764 48.7233 30.9107 49.2844C30.6476 49.8455 30.1429 49.8156 29.3616 50.6409C28.7093 49.5023 28.8811 48.0777 29.4851 46.3644C28.4328 47.868 26.9562 48.0777 26.0327 48.0559C22.8139 47.8189 20.6528 44.1471 25.0018 33.5483Z" fill="white"/>
<path d="M35.8477 57.053C35.8477 57.0938 35.8289 57.1102 35.7859 57.1211C35.6839 57.132 35.5604 57.1646 35.1872 57.1646C34.7819 57.1646 34.4651 57.053 34.4651 56.5109V55.3996C34.4651 54.8629 34.7819 54.7485 35.1872 54.7485C35.5604 54.7485 35.6839 54.7758 35.7859 54.7948C35.8289 54.8057 35.8477 54.8112 35.8477 54.8629V55.0618C35.8477 55.0945 35.8154 55.1244 35.7859 55.1244H35.147C34.9644 55.1244 34.8973 55.1925 34.8973 55.3996V55.7428H35.7483C35.7859 55.7428 35.8074 55.7754 35.8074 55.8054V56.0342C35.8074 56.0751 35.7859 56.0996 35.7483 56.0996H34.8973V56.5109C34.8973 56.7207 34.9644 56.7806 35.147 56.7806H35.7859C35.8154 56.7806 35.8477 56.8105 35.8477 56.8487V57.053Z" fill="white"/>
<path d="M37.7457 57.9761V58.2512C37.7457 58.3057 37.7108 58.3438 37.6598 58.3438H36.7819C36.5269 58.3438 36.4356 58.431 36.4356 58.7224V59.1991H37.6114C37.6544 59.1991 37.6947 59.24 37.6947 59.2808V59.6022C37.6947 59.6485 37.6544 59.684 37.6114 59.684H36.4356V60.256C36.4356 60.5447 36.5269 60.6346 36.7819 60.6346H37.6598C37.7108 60.6346 37.7457 60.6755 37.7457 60.7163V60.9996C37.7457 61.0677 37.7296 61.0841 37.6598 61.0977C37.5175 61.1167 37.3591 61.1576 36.8383 61.1576C36.2718 61.1576 35.8369 60.9996 35.8369 60.256V58.7224C35.8369 57.9761 36.2718 57.8208 36.8383 57.8208C37.3591 57.8208 37.5175 57.8562 37.6598 57.8834C37.7296 57.8862 37.7457 57.9134 37.7457 57.9761Z" fill="white"/>
<path d="M37.998 51.5176H33.2301V53.1982H37.998V51.5176Z" fill="white"/>
<path d="M38.033 54.8329V57.0093C38.033 57.0828 37.9739 57.1346 37.9068 57.1346H37.59C37.5121 57.1346 37.445 57.1346 37.3967 57.0229L36.7041 55.4757C36.696 55.4512 36.6906 55.443 36.6719 55.443C36.6719 55.443 36.6584 55.4512 36.6584 55.4757V57.0747C36.6584 57.1046 36.6316 57.1346 36.594 57.1346H36.3336C36.2987 57.1346 36.2692 57.1046 36.2692 57.0747V54.901C36.2692 54.8329 36.3255 54.7729 36.39 54.7729H36.7336C36.8034 54.7729 36.8356 54.7947 36.8678 54.8765L37.6034 56.5108L37.6168 56.5353C37.6303 56.5353 37.6464 56.5244 37.6464 56.5054V54.8329C37.6464 54.8056 37.6678 54.7729 37.7027 54.7729H37.9712C38.0061 54.7729 38.033 54.8056 38.033 54.8329Z" fill="white"/>
<path d="M38.6315 60.5395V61.038C38.6315 61.0816 38.5966 61.1224 38.5456 61.1224H38.159C38.108 61.1224 38.0731 61.0816 38.0731 61.038V60.5395C38.0731 60.4878 38.108 60.4551 38.159 60.4551H38.5456C38.5966 60.4551 38.6315 60.4878 38.6315 60.5395Z" fill="white"/>
<path d="M39.2356 57.1346H38.9269C38.892 57.1346 38.8678 57.1046 38.8678 57.0747V55.1434H38.3175C38.2799 55.1434 38.2531 55.1216 38.2531 55.0862V54.8329C38.2531 54.8056 38.2799 54.7729 38.3175 54.7729H39.8477C39.8826 54.7729 39.9121 54.8056 39.9121 54.8329V55.0862C39.9121 55.1216 39.8826 55.1434 39.8477 55.1434H39.3V57.0747C39.3 57.1046 39.2732 57.1346 39.2356 57.1346Z" fill="white"/>
<path d="M40.9323 57.9761V58.2512C40.9323 58.3029 40.8921 58.3438 40.8464 58.3438H39.9605C39.7081 58.3438 39.6195 58.4282 39.6195 58.7224V59.1991H40.7954C40.8437 59.1991 40.8813 59.24 40.8813 59.2808V59.6022C40.8813 59.6485 40.8437 59.684 40.7954 59.684H39.6195V61.0377C39.6195 61.0813 39.582 61.1222 39.531 61.1222H39.1068C39.0611 61.1222 39.0262 61.0813 39.0262 61.0377V58.7224C39.0262 57.9761 39.4585 57.8208 40.0222 57.8208C40.5404 57.8208 40.7068 57.8562 40.8464 57.8834C40.9108 57.8862 40.9323 57.9134 40.9323 57.9761Z" fill="white"/>
<path d="M41.7161 57.0666L41.198 55.0754C41.1228 54.7758 40.9 54.7485 40.7658 54.7485C40.6316 54.7485 40.406 54.7758 40.3309 55.0754L39.8181 57.0666V57.0857C39.8181 57.1156 39.8396 57.1347 39.8718 57.1347H40.202C40.2315 57.1347 40.2584 57.1102 40.2638 57.0857L40.406 56.4837H41.1228L41.2705 57.0857C41.2759 57.1102 41.3027 57.1347 41.3295 57.1347H41.6624C41.692 57.1347 41.7242 57.1156 41.7242 57.0829C41.7242 57.0829 41.7161 57.0748 41.7161 57.0666ZM40.4839 56.1159L40.7201 55.168C40.7255 55.1326 40.7336 55.1217 40.7658 55.1217C40.8007 55.1217 40.8061 55.1326 40.8195 55.168L41.045 56.1159H40.4839Z" fill="white"/>
<path d="M42.3873 54.8356V56.5108C42.3873 56.7206 42.449 56.7805 42.6289 56.7805H43.2061C43.241 56.7805 43.2705 56.8104 43.2705 56.8486V57.0529C43.2705 57.0937 43.2598 57.1046 43.2061 57.121C43.1175 57.1373 42.841 57.1645 42.6772 57.1645C42.2692 57.1645 41.9551 57.0529 41.9551 56.5108V54.8356C41.9551 54.8056 41.9792 54.7729 42.0115 54.7729H42.3229C42.3551 54.7729 42.3873 54.8056 42.3873 54.8356Z" fill="white"/>
<path d="M43.4505 51.5176H38.6853V53.1982H43.4505V51.5176Z" fill="white"/>
<path d="M43.6357 61.0377L42.9565 59.7493C43.3055 59.6104 43.5363 59.319 43.5363 58.8532V58.8123C43.5363 58.0605 42.9565 57.8208 42.2907 57.8208C41.9712 57.8208 41.6678 57.8426 41.4397 57.878C41.3511 57.8862 41.3054 57.9216 41.3054 58.0088V61.0377C41.3054 61.0813 41.3376 61.1222 41.3913 61.1222H41.8235C41.8665 61.1222 41.9041 61.0813 41.9041 61.0377V59.8392C42.0034 59.8447 42.1779 59.8583 42.2907 59.8583H42.3497L42.9752 61.0377C42.994 61.0786 43.0155 61.1222 43.0638 61.1222H43.5927C43.6276 61.1222 43.6437 61.1031 43.6437 61.0704C43.6437 61.065 43.6437 61.0459 43.6357 61.0377ZM42.9403 58.8532C42.9403 59.2427 42.7336 59.3598 42.2907 59.3598C42.2209 59.3598 41.9712 59.3544 41.9041 59.3489V58.3629C41.9819 58.352 42.1994 58.3438 42.2907 58.3438C42.7283 58.3438 42.9403 58.4854 42.9403 58.8123V58.8532Z" fill="white"/>
<path d="M48.0948 15.7203C47.1982 14.6906 45.9069 14.0233 44.4652 13.9661L5.98937 8.33573H5.96521C5.71554 8.29759 5.46318 8.28125 5.2162 8.28125C2.29266 8.28125 0 10.632 0 13.6337V61.1688C0 64.0344 2.29534 66.3633 5.11687 66.3633H7.39074L7.50349 71.3454L7.60819 76.1667L11.4284 73.2957L20.6474 66.3633H44.2612C45.8478 66.3633 47.268 65.6279 48.2076 64.4757C48.9405 63.5768 49.3807 62.4245 49.3807 61.1688V19.1633C49.3807 17.8422 48.8948 16.6382 48.0948 15.7203ZM46.919 61.1688C46.919 62.6643 45.7243 63.8682 44.2612 63.8682H19.8366L9.96259 71.2909L9.79883 63.8682H5.11687C3.65107 63.8682 2.46179 62.6643 2.46179 61.1688V13.6337C2.46179 11.9749 3.66718 10.7791 5.2162 10.7791C5.35312 10.7791 5.4954 10.7873 5.63768 10.8063L29.8958 14.3556C28.5482 16.562 27.1924 19.3349 25.9092 22.2631C24.5427 22.5954 23.1789 22.9386 21.8903 23.2791C22.8273 20.4354 23.5548 17.9021 24.0004 16.2623C24.0004 16.2623 23.493 15.7856 23.2622 15.5514C23.0205 15.3144 22.7091 15.3035 22.5239 15.3553C22.3413 15.4125 22.0917 15.4452 21.5735 15.7856C21.493 15.8946 21.3373 16.2351 21.1816 16.8561C20.5614 19.5065 19.9386 21.8409 19.3077 23.9601C16.3036 24.7691 14.1613 25.3874 14.1613 25.3874C13.5868 24.6411 11.1841 23.7831 11.2942 24.8536C11.3962 25.9268 11.3962 26.0575 11.4284 26.5369C11.4606 27.0763 12.4485 27.8989 15.007 27.5284C15.6271 27.4413 16.8513 27.1662 18.4245 26.7685C16.6392 32.17 14.7815 36.215 12.8432 40.8811C15.858 38.6665 18.7628 32.14 20.9158 26.1147C22.1131 25.7851 23.4098 25.412 24.728 25.0143C23.5682 27.8063 22.4917 30.6283 21.5467 33.1207C20.9937 34.4036 20.9695 35.3679 21.1521 35.9018C21.3185 36.3703 21.493 36.896 22.5749 37.4571C22.8702 35.8255 26.3414 28.0051 27.5844 24.4695C27.63 24.3442 27.6757 24.2134 27.724 24.08C30.0891 23.3118 32.3872 22.4783 34.2315 21.6666L35.1013 20.3836C33.3858 20.6015 31.0636 21.0619 28.5965 21.6284C29.4743 19.1687 30.5079 16.3059 31.1576 14.5408L44.2612 16.4584C45.7243 16.4584 46.919 17.6679 46.919 19.1633V61.1688Z" fill="white"/>
<path d="M5.78796 56.1895V55.7264C5.78796 54.9229 6.30341 54.7485 6.67389 54.7485C6.91819 54.7485 7.1249 54.7894 7.16785 54.8057C7.21349 54.8085 7.24034 54.8275 7.24034 54.8738V55.0863C7.24034 55.1244 7.22155 55.1544 7.18128 55.1544H7.16785C7.06584 55.1435 6.85107 55.1244 6.68462 55.1244C6.41885 55.1244 6.23092 55.2688 6.23092 55.7264V56.1895C6.23092 56.6335 6.41885 56.7806 6.68462 56.7806C6.85107 56.7806 7.06584 56.767 7.16785 56.7588H7.18128C7.22155 56.7588 7.24034 56.7833 7.24034 56.8269V57.0366C7.24034 57.0857 7.21349 57.0966 7.16785 57.1102C7.1249 57.1238 6.91819 57.1646 6.67389 57.1646C6.30341 57.1646 5.78796 56.9767 5.78796 56.1895Z" fill="#208BAD"/>
<path d="M8.37598 57.9407V61.0378C8.37598 61.0814 8.3384 61.1222 8.28739 61.1222H7.86322C7.8149 61.1222 7.78 61.0814 7.78 61.0378V59.684H6.54508V61.0378C6.54508 61.0814 6.51018 61.1222 6.45917 61.1222H6.02963C5.98399 61.1222 5.94104 61.0814 5.94104 61.0378V57.9407C5.94104 57.8862 5.98399 57.8535 6.02963 57.8535H6.45917C6.51018 57.8535 6.54508 57.8862 6.54508 57.9407V59.1583H7.78V57.9407C7.78 57.8862 7.8149 57.8535 7.86322 57.8535H8.28739C8.3384 57.8535 8.37598 57.8862 8.37598 57.9407Z" fill="#208BAD"/>
<path d="M8.37066 54.7485C7.85253 54.7485 7.474 55.0427 7.474 55.74V56.1704C7.474 56.8732 7.85253 57.1646 8.37066 57.1646C8.88879 57.1646 9.25927 56.8732 9.25927 56.1704V55.74C9.25927 55.0427 8.8861 54.7485 8.37066 54.7485ZM8.82704 56.1704C8.82704 56.5899 8.67939 56.7724 8.37066 56.7724C8.06193 56.7724 7.91696 56.5899 7.91696 56.1704V55.74C7.91696 55.3233 8.06193 55.1326 8.37066 55.1326C8.67939 55.1326 8.82704 55.3233 8.82704 55.74V56.1704Z" fill="#208BAD"/>
<path d="M10.7143 51.5176H5.95178V53.1982H10.7143V51.5176Z" fill="#208BAD"/>
<path d="M11.2003 61.0268L10.4888 58.2702C10.3868 57.8562 10.0727 57.8208 9.88748 57.8208C9.70224 57.8208 9.38814 57.8562 9.28344 58.2702L8.57471 61.0268C8.57471 61.0268 8.56934 61.0405 8.56934 61.0459C8.56934 61.0949 8.60155 61.1222 8.64987 61.1222H9.10894C9.14653 61.1222 9.18143 61.0841 9.1868 61.0459L9.38814 60.2124H10.3868L10.5855 61.0459C10.5935 61.0841 10.6257 61.1222 10.666 61.1222H11.1251C11.168 61.1222 11.2083 61.0949 11.2083 61.0459C11.2083 61.0405 11.2003 61.0377 11.2003 61.0268ZM9.50627 59.7112L9.815 58.4037C9.8311 58.352 9.84453 58.3356 9.88748 58.3356C9.92775 58.3356 9.94654 58.352 9.9546 58.4037L10.266 59.7112H9.50627Z" fill="#208BAD"/>
<path d="M10.2713 54.8765L10.9988 56.5108C10.9988 56.5108 11.0149 56.5353 11.0257 56.5353C11.0257 56.5353 11.0444 56.5244 11.0444 56.5054V54.8329C11.0444 54.8056 11.0713 54.7729 11.1035 54.7729H11.372C11.4069 54.7729 11.4337 54.8056 11.4337 54.8329V57.0093C11.4337 57.0828 11.372 57.1346 11.3049 57.1346H10.9854C10.9102 57.1346 10.8458 57.1346 10.7975 57.0229L10.1021 55.4757C10.0941 55.4512 10.0834 55.443 10.0834 55.443C10.0619 55.443 10.0592 55.4512 10.0592 55.4757V57.0747C10.0592 57.1046 10.0297 57.1346 9.99745 57.1346H9.73167C9.69408 57.1346 9.67261 57.1046 9.67261 57.0747V54.901C9.67261 54.8329 9.72898 54.7729 9.79342 54.7729H10.1344C10.1961 54.7729 10.2337 54.7947 10.2713 54.8765Z" fill="#208BAD"/>
<path d="M12.2445 55.356C12.2445 55.4568 12.2955 55.5221 12.4968 55.6365L12.8754 55.8463C13.2244 56.0451 13.3103 56.2467 13.3103 56.4918C13.3103 56.8133 13.1143 57.1646 12.4888 57.1646C12.2498 57.1646 12.0807 57.1374 11.9331 57.102C11.9008 57.0966 11.8713 57.0748 11.8713 57.0421V56.8105C11.8713 56.7724 11.9008 56.7506 11.9331 56.7506C12.0646 56.767 12.376 56.7806 12.4941 56.7806C12.7733 56.7806 12.8566 56.6771 12.8566 56.4918C12.8566 56.372 12.8002 56.3066 12.5962 56.1895L12.1747 55.9334C11.8874 55.7591 11.8069 55.5766 11.8069 55.356C11.8069 55.0046 12.0082 54.7485 12.5962 54.7485C12.8002 54.7485 13.0848 54.7785 13.1921 54.8057C13.2244 54.8085 13.2485 54.833 13.2485 54.8657V55.0999C13.2485 55.1326 13.2297 55.1571 13.1948 55.1571H13.1921C12.9774 55.1408 12.7733 55.1244 12.572 55.1244C12.3438 55.1244 12.2445 55.2089 12.2445 55.356Z" fill="#208BAD"/>
<path d="M13.6701 57.9407V59.9128C13.6701 60.8498 13.1788 61.1576 12.4835 61.1576C11.7882 61.1576 11.2861 60.8498 11.2861 59.9128V57.9407C11.2861 57.8862 11.3264 57.8535 11.372 57.8535H11.7989C11.8499 57.8535 11.8929 57.8862 11.8929 57.9407V59.9128C11.8929 60.414 12.0137 60.6537 12.4835 60.6537C12.9533 60.6537 13.0687 60.414 13.0687 59.9128V57.9407C13.0687 57.8862 13.1063 57.8535 13.1573 57.8535H13.5868C13.6352 57.8535 13.6701 57.8862 13.6701 57.9407Z" fill="#208BAD"/>
<path d="M14.411 57.1646C14.0003 57.1646 13.6888 57.053 13.6888 56.5109V55.3996C13.6888 54.8629 14.0003 54.7485 14.411 54.7485C14.7815 54.7485 14.9077 54.7758 15.007 54.7948C15.0553 54.8057 15.0687 54.8112 15.0687 54.8629V55.0618C15.0687 55.0945 15.0392 55.1244 15.007 55.1244H14.368C14.1882 55.1244 14.1184 55.1925 14.1184 55.3996V55.7428H14.9721C15.0043 55.7428 15.0365 55.7754 15.0365 55.8054V56.0342C15.0365 56.0751 15.0043 56.0996 14.9721 56.0996H14.1184V56.5109C14.1184 56.7207 14.1882 56.7806 14.368 56.7806H15.007C15.0392 56.7806 15.0687 56.8105 15.0687 56.8487V57.053C15.0687 57.0938 15.0553 57.1102 15.007 57.1211C14.9077 57.132 14.7815 57.1646 14.411 57.1646Z" fill="#208BAD"/>
<path d="M15.5573 57.1346C15.5224 57.1346 15.4902 57.1046 15.4902 57.0747V54.8329C15.4902 54.8056 15.5224 54.7729 15.5573 54.7729H15.8634C15.8983 54.7729 15.9225 54.8056 15.9225 54.8329V57.0747C15.9225 57.1046 15.8983 57.1346 15.8634 57.1346H15.5573Z" fill="#208BAD"/>
<path d="M16.1586 57.9407V58.2866C16.1586 58.3356 16.1237 58.3629 16.0727 58.3629H15.3157V61.0378C15.3157 61.0814 15.2727 61.1222 15.2244 61.1222H14.7948C14.7546 61.1222 14.7116 61.0814 14.7116 61.0378V58.3629H13.9572C13.9036 58.3629 13.8687 58.3356 13.8687 58.2866V57.9407C13.8687 57.8862 13.9036 57.8535 13.9572 57.8535H16.0727C16.1237 57.8535 16.1586 57.8862 16.1586 57.9407Z" fill="#208BAD"/>
<path d="M16.1694 51.5176H11.4069V53.1982H16.1694V51.5176Z" fill="#208BAD"/>
<path d="M16.8325 54.8356V56.5108C16.8325 56.7206 16.8969 56.7805 17.0768 56.7805H17.6567C17.6862 56.7805 17.7184 56.8104 17.7184 56.8486V57.0529C17.7184 57.0937 17.6969 57.1046 17.6567 57.121C17.56 57.1373 17.2889 57.1645 17.1197 57.1645C16.7117 57.1645 16.3976 57.0529 16.3976 56.5108V54.8356C16.3976 54.8056 16.4217 54.7729 16.4566 54.7729H16.7734C16.803 54.7729 16.8325 54.8056 16.8325 54.8356Z" fill="#208BAD"/>
<path d="M18.1802 57.9761V58.2512C18.1802 58.3057 18.14 58.3438 18.089 58.3438H17.2084C16.9534 58.3438 16.8675 58.431 16.8675 58.7224V59.1991H18.0406C18.0863 59.1991 18.1265 59.24 18.1265 59.2808V59.6022C18.1265 59.6485 18.0863 59.684 18.0406 59.684H16.8675V60.256C16.8675 60.5447 16.9534 60.6346 17.2084 60.6346H18.089C18.14 60.6346 18.1802 60.6755 18.1802 60.7163V60.9996C18.1802 61.0677 18.1588 61.0841 18.089 61.0977C17.952 61.1167 17.7856 61.1576 17.2702 61.1576C16.7064 61.1576 16.2661 60.9996 16.2661 60.256V58.7224C16.2661 57.9761 16.7064 57.8208 17.2702 57.8208C17.7856 57.8208 17.952 57.8562 18.089 57.8834C18.1588 57.8862 18.1802 57.9134 18.1802 57.9761Z" fill="#208BAD"/>
<path d="M19.4285 59.6352V59.9103C19.4285 59.9594 19.3936 59.9893 19.3453 59.9893H18.4969C18.4459 59.9893 18.4056 59.9594 18.4056 59.9103V59.6352C18.4056 59.5889 18.4459 59.5508 18.4969 59.5508H19.3453C19.3936 59.5508 19.4285 59.5889 19.4285 59.6352Z" fill="#208BAD"/>
<path d="M19.4983 54.7485C19.2728 54.7485 18.9721 54.7676 18.8808 54.7894C18.8245 54.7976 18.7949 54.8248 18.7949 54.8847V57.023C18.7949 57.0884 18.8245 57.1156 18.8808 57.1238C18.9721 57.1374 19.2728 57.1646 19.4983 57.1646C20.1265 57.1646 20.4835 56.8133 20.4835 56.1895V55.7264C20.4835 55.089 20.1265 54.7485 19.4983 54.7485ZM20.0486 56.1895C20.0486 56.6689 19.8097 56.7833 19.4983 56.7833C19.3829 56.7833 19.2996 56.7806 19.2352 56.7751V55.1244C19.2996 55.1244 19.3829 55.1217 19.4983 55.1217C19.8097 55.1217 20.0486 55.2443 20.0486 55.7264V56.1895Z" fill="#208BAD"/>
<path d="M21.6246 51.5176H16.8647V53.1982H21.6246V51.5176Z" fill="#208BAD"/>
<path d="M21.8259 57.9897V58.2866C21.8259 58.3465 21.8071 58.3765 21.7427 58.3765H21.7266C21.5252 58.3629 21.2245 58.3438 20.8057 58.3438C20.5185 58.3438 20.2393 58.5508 20.2393 59.1746V59.8065C20.2393 60.433 20.5427 60.6346 20.7977 60.6346C20.9561 60.6346 21.093 60.6346 21.2245 60.6183V59.5015C21.2245 59.4524 21.2594 59.4116 21.3078 59.4116H21.7427C21.7856 59.4116 21.8259 59.4524 21.8259 59.5015V60.9751C21.8259 61.0377 21.7964 61.0704 21.7427 61.0813C21.5252 61.1276 21.2433 61.1576 20.7977 61.1576C20.352 61.1576 19.6353 60.8471 19.6353 59.8065V59.1746C19.6353 58.1313 20.2984 57.8208 20.8057 57.8208C21.2245 57.8208 21.5977 57.8726 21.7427 57.9025C21.7964 57.9134 21.8259 57.9325 21.8259 57.9897Z" fill="#208BAD"/>
<path d="M21.3346 54.5605L21.6299 54.1765C21.6594 54.1438 21.6729 54.1274 21.7104 54.1274H22.0406C22.0621 54.1274 22.0755 54.1411 22.0755 54.152C22.0755 54.1574 22.0729 54.1683 22.0621 54.1765L21.689 54.5714C21.6702 54.596 21.6567 54.6123 21.6192 54.6123H21.3507C21.3292 54.6123 21.3212 54.5987 21.3212 54.5905C21.3212 54.5796 21.3212 54.566 21.3346 54.5605Z" fill="#208BAD"/>
<path d="M21.3211 55.3996V55.7428H22.1695C22.2044 55.7428 22.2366 55.7727 22.2366 55.8054V56.0342C22.2366 56.0751 22.2044 56.0996 22.1695 56.0996H21.3211V56.5109C21.3211 56.7207 21.3909 56.7806 21.5708 56.7806H22.2097C22.242 56.7806 22.2742 56.8105 22.2742 56.8487V57.053C22.2742 57.0938 22.2554 57.1102 22.2097 57.1211C22.1077 57.132 21.9842 57.1646 21.6111 57.1646C21.2057 57.1646 20.8916 57.053 20.8916 56.5109V55.3996C20.8916 54.8629 21.2057 54.7485 21.6111 54.7485C21.9842 54.7485 22.1077 54.7758 22.2097 54.7948C22.2554 54.8057 22.2742 54.8112 22.2742 54.8629V55.0618C22.2742 55.0945 22.242 55.1244 22.2097 55.1244H21.5708C21.3909 55.1244 21.3211 55.1925 21.3211 55.3996Z" fill="#208BAD"/>
<path d="M23.4098 54.7485C23.1816 54.7485 22.9561 54.7649 22.7923 54.7921C22.7306 54.8057 22.6957 54.8248 22.6957 54.8847V57.0748C22.6957 57.1047 22.7225 57.1347 22.7547 57.1347H23.0715C23.1037 57.1347 23.1306 57.1047 23.1306 57.0748V56.2467C23.2031 56.2467 23.3266 56.2521 23.4098 56.2521C23.8984 56.2521 24.3064 56.0751 24.3064 55.5112V55.484C24.3064 54.9201 23.8984 54.7485 23.4098 54.7485ZM23.8769 55.5112C23.8769 55.7646 23.7507 55.8953 23.4098 55.8953C23.3534 55.8953 23.1816 55.8871 23.1306 55.8844V55.1244C23.187 55.1217 23.34 55.1163 23.4098 55.1163C23.7212 55.1163 23.8769 55.217 23.8769 55.484V55.5112Z" fill="#208BAD"/>
<path d="M24.6447 61.0268L23.9333 58.2702C23.8286 57.8562 23.5199 57.8208 23.3319 57.8208C23.144 57.8208 22.8353 57.8562 22.7333 58.2702L22.0192 61.0268C22.0192 61.0268 22.0111 61.0405 22.0111 61.0459C22.0111 61.0949 22.046 61.1222 22.0916 61.1222H22.5534C22.5937 61.1222 22.6259 61.0841 22.6339 61.0459L22.8353 60.2124H23.8286L24.0299 61.0459C24.0353 61.0841 24.0702 61.1222 24.1132 61.1222H24.5749C24.6125 61.1222 24.6501 61.0949 24.6501 61.0459C24.6501 61.0405 24.6447 61.0377 24.6447 61.0268ZM22.9507 59.7112L23.2621 58.4037C23.2756 58.352 23.2863 58.3356 23.3319 58.3356C23.3722 58.3356 23.3883 58.352 23.4044 58.4037L23.7158 59.7112H22.9507Z" fill="#208BAD"/>
<path d="M25.6971 55.0754C25.6247 54.7758 25.3965 54.7485 25.2596 54.7485C25.1226 54.7485 24.9025 54.7758 24.8273 55.0754L24.3065 57.0666V57.0857C24.3065 57.1156 24.336 57.1347 24.3683 57.1347H24.6985C24.7253 57.1347 24.7522 57.1102 24.7548 57.0857L24.9025 56.4837H25.6247L25.7669 57.0857C25.7723 57.1102 25.7965 57.1347 25.8233 57.1347H26.1589C26.1884 57.1347 26.2099 57.1156 26.2099 57.0829V57.0666L25.6971 55.0754ZM24.9884 56.1159L25.2085 55.168C25.2193 55.1326 25.23 55.1217 25.2596 55.1217C25.2918 55.1217 25.2998 55.1326 25.3132 55.168L25.5361 56.1159H24.9884Z" fill="#208BAD"/>
<path d="M27.0823 51.5176H22.3171V53.1982H27.0823V51.5176Z" fill="#208BAD"/>
<path d="M27.1709 61.0377L26.4944 59.7493C26.8461 59.6104 27.077 59.319 27.077 58.8532V58.8123C27.077 58.0605 26.4944 57.8208 25.8313 57.8208C25.5118 57.8208 25.2058 57.8426 24.9749 57.878C24.8944 57.8862 24.8353 57.9216 24.8353 58.0088V61.0377C24.8353 61.0813 24.881 61.1222 24.9293 61.1222H25.3615C25.4045 61.1222 25.442 61.0813 25.442 61.0377V59.8392C25.5414 59.8447 25.7132 59.8583 25.8313 59.8583H25.8904L26.5132 61.0377C26.5374 61.0786 26.5508 61.1222 26.5991 61.1222H27.1307C27.1629 61.1222 27.1817 61.1031 27.1817 61.0704C27.1817 61.065 27.1817 61.0459 27.1709 61.0377ZM26.4756 58.8532C26.4756 59.2427 26.277 59.3598 25.8313 59.3598C25.7561 59.3598 25.5118 59.3544 25.442 59.3489V58.3629C25.5226 58.352 25.74 58.3438 25.8313 58.3438C26.2635 58.3438 26.4756 58.4854 26.4756 58.8123V58.8532Z" fill="#208BAD"/>
<path d="M28.1937 57.0748L27.7025 56.1459C27.9629 56.0451 28.124 55.8354 28.124 55.4949V55.4704C28.124 54.9229 27.7052 54.7485 27.2219 54.7485C26.991 54.7485 26.7709 54.7649 26.6071 54.7921C26.5454 54.8057 26.5105 54.8248 26.5105 54.8847V57.0748C26.5105 57.1047 26.5373 57.1347 26.5696 57.1347H26.8837C26.9159 57.1347 26.9454 57.1047 26.9454 57.0748V56.2086C27.0152 56.214 27.1441 56.2249 27.2219 56.2249H27.2676L27.7186 57.0748C27.7347 57.102 27.7454 57.1347 27.7803 57.1347H28.1615C28.1857 57.1347 28.2045 57.1238 28.2045 57.0965C28.2045 57.0911 28.2045 57.0857 28.1937 57.0748ZM27.6944 55.4949C27.6944 55.7782 27.5441 55.8653 27.2219 55.8653C27.1682 55.8653 26.991 55.8626 26.9454 55.8517V55.1408C26.9991 55.1326 27.1548 55.1244 27.2219 55.1244C27.536 55.1244 27.6944 55.2279 27.6944 55.4704V55.4949Z" fill="#208BAD"/>
<path d="M28.5159 57.8208C27.8018 57.8208 27.281 58.2239 27.281 59.1909V59.7847C27.281 60.7517 27.8018 61.1576 28.5159 61.1576C29.23 61.1576 29.7508 60.7517 29.7508 59.7847V59.1909C29.7508 58.2239 29.2327 57.8208 28.5159 57.8208ZM29.1441 59.7847C29.1441 60.3649 28.9401 60.6292 28.5159 60.6292C28.0918 60.6292 27.8877 60.3649 27.8877 59.7847V59.1909C27.8877 58.608 28.0918 58.352 28.5159 58.352C28.9401 58.352 29.1441 58.608 29.1441 59.1909V59.7847Z" fill="#208BAD"/>
<path d="M29.9414 54.8329V55.0862C29.9414 55.1216 29.9119 55.1434 29.877 55.1434H29.332V57.0747C29.332 57.1046 29.3052 57.1346 29.2676 57.1346H28.9589C28.924 57.1346 28.8971 57.1046 28.8971 57.0747V55.1434H28.3468C28.3146 55.1434 28.2797 55.1216 28.2797 55.0862V54.8329C28.2797 54.8056 28.3146 54.7729 28.3468 54.7729H29.877C29.9119 54.7729 29.9414 54.8056 29.9414 54.8329Z" fill="#208BAD"/>
<path d="M30.6073 55.3996V55.7428H31.461C31.4932 55.7428 31.5227 55.7754 31.5227 55.8054V56.0342C31.5227 56.0751 31.4932 56.0996 31.461 56.0996H30.6073V56.5109C30.6073 56.7207 30.6771 56.7806 30.8569 56.7806H31.4986C31.5362 56.7806 31.5603 56.8105 31.5603 56.8487V57.053C31.5603 57.0938 31.5496 57.1102 31.4986 57.1211C31.3992 57.132 31.2731 57.1646 30.9026 57.1646C30.4918 57.1646 30.1831 57.053 30.1831 56.5109V55.3996C30.1831 54.8629 30.4918 54.7485 30.9026 54.7485C31.2731 54.7485 31.3992 54.7758 31.4986 54.7948C31.5496 54.8057 31.5603 54.8112 31.5603 54.8629V55.0618C31.5603 55.0945 31.5362 55.1244 31.4986 55.1244H30.8569C30.6771 55.1244 30.6073 55.1925 30.6073 55.3996Z" fill="#208BAD"/>
<path d="M32.5321 57.9407V60.9506C32.5321 61.0378 32.4569 61.1222 32.363 61.1222H31.9227C31.8207 61.1222 31.7267 61.1222 31.6596 60.9615L30.6958 58.8205C30.6824 58.8014 30.6663 58.7851 30.6663 58.7851C30.6475 58.7851 30.6314 58.8014 30.6314 58.8205V61.0378C30.6314 61.0814 30.6019 61.1222 30.5536 61.1222H30.1884C30.1374 61.1222 30.0972 61.0814 30.0972 61.0378V58.0306C30.0972 57.9325 30.1723 57.8535 30.2717 57.8535H30.7361C30.8328 57.8535 30.8784 57.8835 30.9321 57.9979L31.9415 60.256C31.9469 60.2778 31.963 60.2941 31.963 60.2941C31.9871 60.2941 31.9979 60.2778 31.9979 60.2506V57.9407C31.9979 57.8862 32.0301 57.8535 32.0784 57.8535H32.4543C32.4945 57.8535 32.5321 57.8862 32.5321 57.9407Z" fill="#208BAD"/>
<path d="M32.5375 51.5176H27.7723V53.1982H32.5375V51.5176Z" fill="#208BAD"/>
<path d="M33.1523 56.2466H32.8328C32.7899 56.2466 32.7496 56.2248 32.7308 56.1894L32.4248 55.582L32.4167 55.5602C32.4167 55.5602 32.4033 55.5683 32.4033 55.5956V57.0747C32.4033 57.1019 32.3845 57.1346 32.355 57.1346H32.0355C32.006 57.1346 31.9872 57.1237 31.9872 57.0883V54.901C31.9872 54.8329 32.0382 54.7729 32.108 54.7729H32.363C32.4167 54.7729 32.4597 54.8056 32.4812 54.8438L32.9536 55.8244C32.9671 55.8489 32.9751 55.868 32.9751 55.868C32.9993 55.868 33.01 55.8489 33.0234 55.8244L33.4932 54.8438C33.5201 54.8056 33.5604 54.7729 33.6167 54.7729H33.8718C33.9389 54.7729 33.9899 54.8329 33.9899 54.901V57.0883C33.9899 57.1237 33.9711 57.1346 33.9416 57.1346H33.6248C33.5953 57.1346 33.5711 57.1019 33.5711 57.0747V55.5956C33.5711 55.5683 33.5711 55.5602 33.5657 55.5602C33.5657 55.5602 33.555 55.5683 33.5496 55.582L33.2463 56.1894C33.2302 56.2248 33.1926 56.2466 33.1523 56.2466Z" fill="#208BAD"/>
<path d="M11.4284 26.5368C11.3962 26.0574 11.3962 25.9267 11.2942 24.8534C11.1841 23.7829 13.5868 24.641 14.1614 25.3873C14.1614 25.3873 16.3037 24.769 19.3078 23.96C19.9386 21.8408 20.5615 19.5064 21.1816 16.856C21.3373 16.235 21.493 15.8945 21.5736 15.7855C22.0917 15.445 22.3414 15.4123 22.5239 15.3551C22.7092 15.3034 23.0206 15.3143 23.2622 15.5513C23.4931 15.7855 24.0005 16.2622 24.0005 16.2622C23.5548 17.902 22.8273 20.4353 21.8904 23.279C23.179 22.9385 24.5428 22.5953 25.9092 22.263C27.1925 19.3348 28.5482 16.5618 29.8959 14.3555L31.1576 14.5407C30.508 16.3058 29.4744 19.1686 28.5965 21.6283C31.0637 21.0618 33.3859 20.6014 35.1013 20.3835L34.2315 21.6665C32.3872 22.4782 30.0892 23.3117 27.724 24.0799C27.6757 24.2133 27.6301 24.3441 27.5844 24.4694C26.3414 28.005 22.8702 35.8254 22.5749 37.457C21.493 36.8959 21.3185 36.3702 21.1521 35.9017C20.9695 35.3678 20.9937 34.4035 21.5467 33.1205C22.4917 30.6281 23.5682 27.8062 24.728 25.0142C23.4098 25.4118 22.1132 25.785 20.9158 26.1146C18.7628 32.1399 15.858 38.6664 12.8432 40.881C14.7815 36.2149 16.6393 32.1699 18.4245 26.7684C16.8513 27.1661 15.6272 27.4412 15.007 27.5283C12.4486 27.8988 11.4606 27.0762 11.4284 26.5368Z" fill="#208BAD"/>
<path d="M35.402 57.9407V60.9506C35.402 61.0378 35.3268 61.1222 35.2302 61.1222H34.7926C34.6852 61.1222 34.5939 61.1222 34.5295 60.9615L33.5657 58.8205C33.5523 58.8014 33.5389 58.7851 33.5254 58.7851C33.5254 58.7851 33.5066 58.8014 33.5066 58.8205V61.0378C33.5066 61.0814 33.4717 61.1222 33.4207 61.1222H33.0529C33.0046 61.1222 32.967 61.0814 32.967 61.0378V58.0306C32.967 57.9325 33.0476 57.8535 33.1389 57.8535H33.6113C33.6999 57.8535 33.7509 57.8835 33.7966 57.9979L34.806 60.256C34.8194 60.2778 34.8328 60.2941 34.8463 60.2941C34.8543 60.2941 34.8677 60.2778 34.8677 60.2506V57.9407C34.8677 57.8862 34.8973 57.8535 34.9456 57.8535H35.3214C35.3698 57.8535 35.402 57.8862 35.402 57.9407Z" fill="#208BAD"/>
<path d="M35.6248 26.5887C35.7859 28.7706 35.3403 31.0069 34.559 32.4234C32.8087 31.7805 34.4678 26.3817 32.8087 26.0303C31.8207 25.8233 29.0099 30.4458 27.2193 34.834C25.4233 39.225 23.1038 46.3398 26.2153 46.5796C29.324 46.8193 31.1469 40.7504 32.1724 37.8358C32.0946 37.8766 30.8355 38.5549 30.1965 38.6884C29.5361 38.8218 28.3764 38.9281 28.3227 38.3669C28.2744 37.8058 28.6985 36.8388 28.8811 36.5991C29.0636 36.3567 33.1255 35.2372 35.9174 34.8068C35.9174 34.8068 35.1523 36.038 34.9725 36.4084C34.7845 36.7898 34.4973 37.163 34.1778 37.1902C34.1778 37.1902 31.1764 48.7233 30.9107 49.2844C30.6476 49.8455 30.1429 49.8156 29.3616 50.6409C28.7093 49.5023 28.8811 48.0777 29.4851 46.3644C28.4328 47.868 26.9562 48.0777 26.0327 48.0559C22.8139 47.8189 20.6528 44.1471 25.0018 33.5483C29.3536 22.955 32.704 23.2192 33.6167 23.3745C34.5215 23.5325 35.4691 24.4014 35.6248 26.5887Z" fill="#208BAD"/>
<path d="M35.8477 57.053C35.8477 57.0938 35.8289 57.1102 35.7859 57.1211C35.6839 57.132 35.5604 57.1646 35.1872 57.1646C34.7819 57.1646 34.4651 57.053 34.4651 56.5109V55.3996C34.4651 54.8629 34.7819 54.7485 35.1872 54.7485C35.5604 54.7485 35.6839 54.7758 35.7859 54.7948C35.8289 54.8057 35.8477 54.8112 35.8477 54.8629V55.0618C35.8477 55.0945 35.8154 55.1244 35.7859 55.1244H35.147C34.9644 55.1244 34.8973 55.1925 34.8973 55.3996V55.7428H35.7483C35.7859 55.7428 35.8074 55.7754 35.8074 55.8054V56.0342C35.8074 56.0751 35.7859 56.0996 35.7483 56.0996H34.8973V56.5109C34.8973 56.7207 34.9644 56.7806 35.147 56.7806H35.7859C35.8154 56.7806 35.8477 56.8105 35.8477 56.8487V57.053Z" fill="#208BAD"/>
<path d="M37.7457 57.9761V58.2512C37.7457 58.3057 37.7108 58.3438 37.6598 58.3438H36.7819C36.5269 58.3438 36.4356 58.431 36.4356 58.7224V59.1991H37.6114C37.6544 59.1991 37.6947 59.24 37.6947 59.2808V59.6022C37.6947 59.6485 37.6544 59.684 37.6114 59.684H36.4356V60.256C36.4356 60.5447 36.5269 60.6346 36.7819 60.6346H37.6598C37.7108 60.6346 37.7457 60.6755 37.7457 60.7163V60.9996C37.7457 61.0677 37.7296 61.0841 37.6598 61.0977C37.5175 61.1167 37.3591 61.1576 36.8383 61.1576C36.2718 61.1576 35.8369 60.9996 35.8369 60.256V58.7224C35.8369 57.9761 36.2718 57.8208 36.8383 57.8208C37.3591 57.8208 37.5175 57.8562 37.6598 57.8834C37.7296 57.8862 37.7457 57.9134 37.7457 57.9761Z" fill="#208BAD"/>
<path d="M37.998 51.5176H33.2301V53.1982H37.998V51.5176Z" fill="#208BAD"/>
<path d="M38.033 54.8329V57.0093C38.033 57.0828 37.9739 57.1346 37.9068 57.1346H37.59C37.5121 57.1346 37.445 57.1346 37.3967 57.0229L36.7041 55.4757C36.696 55.4512 36.6906 55.443 36.6719 55.443C36.6719 55.443 36.6584 55.4512 36.6584 55.4757V57.0747C36.6584 57.1046 36.6316 57.1346 36.594 57.1346H36.3336C36.2987 57.1346 36.2692 57.1046 36.2692 57.0747V54.901C36.2692 54.8329 36.3255 54.7729 36.39 54.7729H36.7336C36.8034 54.7729 36.8356 54.7947 36.8678 54.8765L37.6034 56.5108L37.6168 56.5353C37.6303 56.5353 37.6464 56.5244 37.6464 56.5054V54.8329C37.6464 54.8056 37.6678 54.7729 37.7027 54.7729H37.9712C38.0061 54.7729 38.033 54.8056 38.033 54.8329Z" fill="#208BAD"/>
<path d="M38.6315 60.5395V61.038C38.6315 61.0816 38.5966 61.1224 38.5456 61.1224H38.159C38.108 61.1224 38.0731 61.0816 38.0731 61.038V60.5395C38.0731 60.4878 38.108 60.4551 38.159 60.4551H38.5456C38.5966 60.4551 38.6315 60.4878 38.6315 60.5395Z" fill="#208BAD"/>
<path d="M39.2356 57.1346H38.9269C38.892 57.1346 38.8678 57.1046 38.8678 57.0747V55.1434H38.3175C38.2799 55.1434 38.2531 55.1216 38.2531 55.0862V54.8329C38.2531 54.8056 38.2799 54.7729 38.3175 54.7729H39.8477C39.8826 54.7729 39.9121 54.8056 39.9121 54.8329V55.0862C39.9121 55.1216 39.8826 55.1434 39.8477 55.1434H39.3V57.0747C39.3 57.1046 39.2732 57.1346 39.2356 57.1346Z" fill="#208BAD"/>
<path d="M40.9323 57.9761V58.2512C40.9323 58.3029 40.8921 58.3438 40.8464 58.3438H39.9605C39.7081 58.3438 39.6195 58.4282 39.6195 58.7224V59.1991H40.7954C40.8437 59.1991 40.8813 59.24 40.8813 59.2808V59.6022C40.8813 59.6485 40.8437 59.684 40.7954 59.684H39.6195V61.0377C39.6195 61.0813 39.582 61.1222 39.531 61.1222H39.1068C39.0611 61.1222 39.0262 61.0813 39.0262 61.0377V58.7224C39.0262 57.9761 39.4585 57.8208 40.0222 57.8208C40.5404 57.8208 40.7068 57.8562 40.8464 57.8834C40.9108 57.8862 40.9323 57.9134 40.9323 57.9761Z" fill="#208BAD"/>
<path d="M41.7161 57.0666L41.198 55.0754C41.1228 54.7758 40.9 54.7485 40.7658 54.7485C40.6316 54.7485 40.406 54.7758 40.3309 55.0754L39.8181 57.0666V57.0857C39.8181 57.1156 39.8396 57.1347 39.8718 57.1347H40.202C40.2315 57.1347 40.2584 57.1102 40.2638 57.0857L40.406 56.4837H41.1228L41.2705 57.0857C41.2759 57.1102 41.3027 57.1347 41.3295 57.1347H41.6624C41.692 57.1347 41.7242 57.1156 41.7242 57.0829C41.7242 57.0829 41.7161 57.0748 41.7161 57.0666ZM40.4839 56.1159L40.7201 55.168C40.7255 55.1326 40.7336 55.1217 40.7658 55.1217C40.8007 55.1217 40.8061 55.1326 40.8195 55.168L41.045 56.1159H40.4839Z" fill="#208BAD"/>
<path d="M42.3873 54.8356V56.5108C42.3873 56.7206 42.449 56.7805 42.6289 56.7805H43.2061C43.241 56.7805 43.2705 56.8104 43.2705 56.8486V57.0529C43.2705 57.0937 43.2598 57.1046 43.2061 57.121C43.1175 57.1373 42.841 57.1645 42.6772 57.1645C42.2692 57.1645 41.9551 57.0529 41.9551 56.5108V54.8356C41.9551 54.8056 41.9792 54.7729 42.0115 54.7729H42.3229C42.3551 54.7729 42.3873 54.8056 42.3873 54.8356Z" fill="#208BAD"/>
<path d="M43.4505 51.5176H38.6853V53.1982H43.4505V51.5176Z" fill="#208BAD"/>
<path d="M43.6357 61.0377L42.9565 59.7493C43.3055 59.6104 43.5363 59.319 43.5363 58.8532V58.8123C43.5363 58.0605 42.9565 57.8208 42.2907 57.8208C41.9712 57.8208 41.6678 57.8426 41.4397 57.878C41.3511 57.8862 41.3054 57.9216 41.3054 58.0088V61.0377C41.3054 61.0813 41.3376 61.1222 41.3913 61.1222H41.8235C41.8665 61.1222 41.9041 61.0813 41.9041 61.0377V59.8392C42.0034 59.8447 42.1779 59.8583 42.2907 59.8583H42.3497L42.9752 61.0377C42.994 61.0786 43.0155 61.1222 43.0638 61.1222H43.5927C43.6276 61.1222 43.6437 61.1031 43.6437 61.0704C43.6437 61.065 43.6437 61.0459 43.6357 61.0377ZM42.9403 58.8532C42.9403 59.2427 42.7336 59.3598 42.2907 59.3598C42.2209 59.3598 41.9712 59.3544 41.9041 59.3489V58.3629C41.9819 58.352 42.1994 58.3438 42.2907 58.3438C42.7283 58.3438 42.9403 58.4854 42.9403 58.8123V58.8532Z" fill="#208BAD"/>
<path d="M144.47 0.166504C144.207 0.166504 143.941 0.185571 143.678 0.223706L51.6707 13.6009C50.213 13.8133 48.9512 14.6033 48.0948 15.7201C47.3538 16.6789 46.9189 17.8801 46.9189 19.1631V60.8799C46.9189 62.2473 47.4022 63.5003 48.2076 64.4755C49.2223 65.7094 50.7499 66.4966 52.4546 66.4966H144.464C147.517 66.4966 150 63.977 150 60.8799V5.78594C150 2.68613 147.519 0.166504 144.47 0.166504ZM147.541 60.8799C147.541 62.6014 146.164 63.9988 144.464 63.9988H52.4546C50.7579 63.9988 49.3807 62.6014 49.3807 60.8799V19.1631C49.3807 17.6105 50.5056 16.2948 52.0197 16.0742L144.029 2.6943C144.177 2.67251 144.325 2.66434 144.47 2.66434C146.137 2.66434 147.541 4.03719 147.541 5.78594V60.8799Z" fill="white"/>
<path d="M35.9174 34.8068C35.9174 34.8068 35.1523 36.038 34.9725 36.4084C34.7845 36.7898 34.4973 37.163 34.1778 37.1902C34.1778 37.1902 31.1764 48.7233 30.9107 49.2844C30.6476 49.8455 30.1429 49.8156 29.3616 50.6409C28.7093 49.5023 28.8811 48.0777 29.4851 46.3644C28.4328 47.868 26.9562 48.0777 26.0327 48.0559C22.8139 47.8189 20.6528 44.1471 25.0018 33.5483C29.3536 22.955 32.704 23.2192 33.6167 23.3745C34.5215 23.5325 35.4691 24.4014 35.6248 26.5887C35.7859 28.7706 35.3403 31.0069 34.559 32.4234C32.8087 31.7805 34.4678 26.3817 32.8087 26.0303C31.8207 25.8233 29.0099 30.4458 27.2193 34.834C25.4233 39.225 23.1038 46.3398 26.2153 46.5796C29.324 46.8193 31.1469 40.7504 32.1724 37.8358C32.0946 37.8766 30.8355 38.5549 30.1965 38.6884C29.5361 38.8218 28.3764 38.9281 28.3227 38.3669C28.2744 37.8058 28.6985 36.8388 28.8811 36.5991C29.0636 36.3567 33.1255 35.2372 35.9174 34.8068Z" fill="white"/>
<path d="M6.23092 55.7264V56.1895C6.23092 56.6335 6.41885 56.7806 6.68462 56.7806C6.85107 56.7806 7.06584 56.767 7.16785 56.7588H7.18128C7.22155 56.7588 7.24034 56.7833 7.24034 56.8269V57.0366C7.24034 57.0857 7.21349 57.0966 7.16785 57.1102C7.1249 57.1238 6.91819 57.1646 6.67389 57.1646C6.30341 57.1646 5.78796 56.9767 5.78796 56.1895V55.7264C5.78796 54.9229 6.30341 54.7485 6.67389 54.7485C6.91819 54.7485 7.1249 54.7894 7.16785 54.8057C7.21349 54.8085 7.24034 54.8275 7.24034 54.8738V55.0863C7.24034 55.1244 7.22155 55.1544 7.18128 55.1544H7.16785C7.06584 55.1435 6.85107 55.1244 6.68462 55.1244C6.41885 55.1244 6.23092 55.2688 6.23092 55.7264Z" fill="white"/>
<path d="M8.37066 54.7485C7.85253 54.7485 7.474 55.0427 7.474 55.74V56.1704C7.474 56.8732 7.85253 57.1646 8.37066 57.1646C8.88879 57.1646 9.25927 56.8732 9.25927 56.1704V55.74C9.25927 55.0427 8.8861 54.7485 8.37066 54.7485ZM8.82704 56.1704C8.82704 56.5899 8.67939 56.7724 8.37066 56.7724C8.06193 56.7724 7.91696 56.5899 7.91696 56.1704V55.74C7.91696 55.3233 8.06193 55.1326 8.37066 55.1326C8.67939 55.1326 8.82704 55.3233 8.82704 55.74V56.1704Z" fill="white"/>
<path d="M11.4337 54.8329V57.0093C11.4337 57.0828 11.372 57.1346 11.3049 57.1346H10.9854C10.9102 57.1346 10.8458 57.1346 10.7975 57.0229L10.1021 55.4757C10.0941 55.4512 10.0834 55.443 10.0834 55.443C10.0619 55.443 10.0592 55.4512 10.0592 55.4757V57.0747C10.0592 57.1046 10.0297 57.1346 9.99745 57.1346H9.73167C9.69408 57.1346 9.67261 57.1046 9.67261 57.0747V54.901C9.67261 54.8329 9.72898 54.7729 9.79342 54.7729H10.1344C10.1961 54.7729 10.2337 54.7947 10.2713 54.8765L10.9988 56.5108C10.9988 56.5108 11.0149 56.5353 11.0257 56.5353C11.0257 56.5353 11.0444 56.5244 11.0444 56.5054V54.8329C11.0444 54.8056 11.0713 54.7729 11.1035 54.7729H11.372C11.4069 54.7729 11.4337 54.8056 11.4337 54.8329Z" fill="white"/>
<path d="M13.3103 56.4918C13.3103 56.8133 13.1143 57.1646 12.4888 57.1646C12.2498 57.1646 12.0807 57.1374 11.9331 57.102C11.9008 57.0966 11.8713 57.0748 11.8713 57.0421V56.8105C11.8713 56.7724 11.9008 56.7506 11.9331 56.7506C12.0646 56.767 12.376 56.7806 12.4941 56.7806C12.7733 56.7806 12.8566 56.6771 12.8566 56.4918C12.8566 56.372 12.8002 56.3066 12.5962 56.1895L12.1747 55.9334C11.8874 55.7591 11.8069 55.5766 11.8069 55.356C11.8069 55.0046 12.0082 54.7485 12.5962 54.7485C12.8002 54.7485 13.0848 54.7785 13.1921 54.8057C13.2244 54.8085 13.2485 54.833 13.2485 54.8657V55.0999C13.2485 55.1326 13.2297 55.1571 13.1948 55.1571H13.1921C12.9774 55.1408 12.7733 55.1244 12.572 55.1244C12.3438 55.1244 12.2445 55.2089 12.2445 55.356C12.2445 55.4568 12.2955 55.5221 12.4968 55.6365L12.8754 55.8463C13.2244 56.0451 13.3103 56.2467 13.3103 56.4918Z" fill="white"/>
<path d="M14.1184 55.3996V55.7428H14.9721C15.0043 55.7428 15.0365 55.7754 15.0365 55.8054V56.0342C15.0365 56.0751 15.0043 56.0996 14.9721 56.0996H14.1184V56.5109C14.1184 56.7207 14.1882 56.7806 14.368 56.7806H15.007C15.0392 56.7806 15.0687 56.8105 15.0687 56.8487V57.053C15.0687 57.0938 15.0553 57.1102 15.007 57.1211C14.9077 57.132 14.7815 57.1646 14.411 57.1646C14.0003 57.1646 13.6888 57.053 13.6888 56.5109V55.3996C13.6888 54.8629 14.0003 54.7485 14.411 54.7485C14.7815 54.7485 14.9077 54.7758 15.007 54.7948C15.0553 54.8057 15.0687 54.8112 15.0687 54.8629V55.0618C15.0687 55.0945 15.0392 55.1244 15.007 55.1244H14.368C14.1882 55.1244 14.1184 55.1925 14.1184 55.3996Z" fill="white"/>
<path d="M15.9225 54.8329V57.0747C15.9225 57.1046 15.8983 57.1346 15.8634 57.1346H15.5573C15.5224 57.1346 15.4902 57.1046 15.4902 57.0747V54.8329C15.4902 54.8056 15.5224 54.7729 15.5573 54.7729H15.8634C15.8983 54.7729 15.9225 54.8056 15.9225 54.8329Z" fill="white"/>
<path d="M17.7184 56.8486V57.0529C17.7184 57.0937 17.6969 57.1046 17.6567 57.121C17.56 57.1373 17.2889 57.1645 17.1197 57.1645C16.7117 57.1645 16.3976 57.0529 16.3976 56.5108V54.8356C16.3976 54.8056 16.4217 54.7729 16.4566 54.7729H16.7734C16.803 54.7729 16.8325 54.8056 16.8325 54.8356V56.5108C16.8325 56.7206 16.8969 56.7805 17.0768 56.7805H17.6567C17.6862 56.7805 17.7184 56.8104 17.7184 56.8486Z" fill="white"/>
<path d="M19.4983 54.7485C19.2728 54.7485 18.9721 54.7676 18.8808 54.7894C18.8245 54.7976 18.7949 54.8248 18.7949 54.8847V57.023C18.7949 57.0884 18.8245 57.1156 18.8808 57.1238C18.9721 57.1374 19.2728 57.1646 19.4983 57.1646C20.1265 57.1646 20.4835 56.8133 20.4835 56.1895V55.7264C20.4835 55.089 20.1265 54.7485 19.4983 54.7485ZM20.0486 56.1895C20.0486 56.6689 19.8097 56.7833 19.4983 56.7833C19.3829 56.7833 19.2996 56.7806 19.2352 56.7751V55.1244C19.2996 55.1244 19.3829 55.1217 19.4983 55.1217C19.8097 55.1217 20.0486 55.2443 20.0486 55.7264V56.1895Z" fill="white"/>
<path d="M21.5708 55.1244H22.2097C22.242 55.1244 22.2742 55.0944 22.2742 55.0617V54.8629C22.2742 54.8111 22.2554 54.8057 22.2097 54.7948C22.1077 54.7757 21.9842 54.7485 21.6111 54.7485C21.2057 54.7485 20.8916 54.8629 20.8916 55.3995V56.5109C20.8916 57.0529 21.2057 57.1646 21.6111 57.1646C21.9842 57.1646 22.1077 57.1319 22.2097 57.121C22.2554 57.1101 22.2742 57.0938 22.2742 57.0529V56.8486C22.2742 56.8105 22.242 56.7805 22.2097 56.7805H21.5708C21.3909 56.7805 21.3211 56.7206 21.3211 56.5109V56.0996H22.1695C22.2044 56.0996 22.2366 56.075 22.2366 56.0342V55.8054C22.2366 55.7727 22.2044 55.7427 22.1695 55.7427H21.3211V55.3995C21.3211 55.1925 21.3909 55.1244 21.5708 55.1244ZM22.0406 54.1274H21.7104C21.6728 54.1274 21.6594 54.1438 21.6299 54.1765L21.3346 54.5605C21.3346 54.5605 21.3211 54.5796 21.3211 54.5905C21.3211 54.5987 21.3292 54.6123 21.3507 54.6123H21.6191C21.6567 54.6123 21.6701 54.596 21.6889 54.5714L22.0621 54.1765C22.0621 54.1765 22.0755 54.1574 22.0755 54.152C22.0755 54.1411 22.0621 54.1274 22.0406 54.1274Z" fill="white"/>
<path d="M23.4098 54.7485C23.1816 54.7485 22.9561 54.7649 22.7923 54.7921C22.7306 54.8057 22.6957 54.8248 22.6957 54.8847V57.0748C22.6957 57.1047 22.7225 57.1347 22.7547 57.1347H23.0715C23.1037 57.1347 23.1306 57.1047 23.1306 57.0748V56.2467C23.2031 56.2467 23.3266 56.2521 23.4098 56.2521C23.8984 56.2521 24.3064 56.0751 24.3064 55.5112V55.484C24.3064 54.9201 23.8984 54.7485 23.4098 54.7485ZM23.8769 55.5112C23.8769 55.7646 23.7507 55.8953 23.4098 55.8953C23.3534 55.8953 23.1816 55.8871 23.1306 55.8844V55.1244C23.187 55.1217 23.34 55.1163 23.4098 55.1163C23.7212 55.1163 23.8769 55.217 23.8769 55.484V55.5112Z" fill="white"/>
<path d="M25.6971 55.0754C25.6247 54.7758 25.3965 54.7485 25.2596 54.7485C25.1226 54.7485 24.9025 54.7758 24.8273 55.0754L24.3065 57.0666V57.0857C24.3065 57.1156 24.336 57.1347 24.3683 57.1347H24.6985C24.7253 57.1347 24.7522 57.1102 24.7548 57.0857L24.9025 56.4837H25.6247L25.7669 57.0857C25.7723 57.1102 25.7965 57.1347 25.8233 57.1347H26.1589C26.1884 57.1347 26.2099 57.1156 26.2099 57.0829V57.0666L25.6971 55.0754ZM24.9884 56.1159L25.2085 55.168C25.2193 55.1326 25.23 55.1217 25.2596 55.1217C25.2918 55.1217 25.2998 55.1326 25.3132 55.168L25.5361 56.1159H24.9884Z" fill="white"/>
<path d="M28.1937 57.0748L27.7025 56.1459C27.9629 56.0451 28.124 55.8354 28.124 55.4949V55.4704C28.124 54.9229 27.7052 54.7485 27.2219 54.7485C26.991 54.7485 26.7709 54.7649 26.6071 54.7921C26.5454 54.8057 26.5105 54.8248 26.5105 54.8847V57.0748C26.5105 57.1047 26.5373 57.1347 26.5696 57.1347H26.8837C26.9159 57.1347 26.9454 57.1047 26.9454 57.0748V56.2086C27.0152 56.214 27.1441 56.2249 27.2219 56.2249H27.2676L27.7186 57.0748C27.7347 57.102 27.7454 57.1347 27.7803 57.1347H28.1615C28.1857 57.1347 28.2045 57.1238 28.2045 57.0965C28.2045 57.0911 28.2045 57.0857 28.1937 57.0748ZM27.6944 55.4949C27.6944 55.7782 27.5441 55.8653 27.2219 55.8653C27.1682 55.8653 26.991 55.8626 26.9454 55.8517V55.1408C26.9991 55.1326 27.1548 55.1244 27.2219 55.1244C27.536 55.1244 27.6944 55.2279 27.6944 55.4704V55.4949Z" fill="white"/>
<path d="M29.9414 54.8329V55.0862C29.9414 55.1216 29.9119 55.1434 29.877 55.1434H29.332V57.0747C29.332 57.1046 29.3052 57.1346 29.2676 57.1346H28.9589C28.924 57.1346 28.8971 57.1046 28.8971 57.0747V55.1434H28.3468C28.3146 55.1434 28.2797 55.1216 28.2797 55.0862V54.8329C28.2797 54.8056 28.3146 54.7729 28.3468 54.7729H29.877C29.9119 54.7729 29.9414 54.8056 29.9414 54.8329Z" fill="white"/>
<path d="M30.6073 55.3996V55.7428H31.461C31.4932 55.7428 31.5227 55.7754 31.5227 55.8054V56.0342C31.5227 56.0751 31.4932 56.0996 31.461 56.0996H30.6073V56.5109C30.6073 56.7207 30.6771 56.7806 30.8569 56.7806H31.4986C31.5362 56.7806 31.5603 56.8105 31.5603 56.8487V57.053C31.5603 57.0938 31.5496 57.1102 31.4986 57.1211C31.3992 57.132 31.2731 57.1646 30.9026 57.1646C30.4918 57.1646 30.1831 57.053 30.1831 56.5109V55.3996C30.1831 54.8629 30.4918 54.7485 30.9026 54.7485C31.2731 54.7485 31.3992 54.7758 31.4986 54.7948C31.5496 54.8057 31.5603 54.8112 31.5603 54.8629V55.0618C31.5603 55.0945 31.5362 55.1244 31.4986 55.1244H30.8569C30.6771 55.1244 30.6073 55.1925 30.6073 55.3996Z" fill="white"/>
<path d="M33.9899 54.901V57.0883C33.9899 57.1237 33.9711 57.1346 33.9416 57.1346H33.6248C33.5953 57.1346 33.5711 57.1019 33.5711 57.0747V55.5956C33.5711 55.5683 33.5711 55.5602 33.5657 55.5602C33.5657 55.5602 33.555 55.5683 33.5496 55.582L33.2463 56.1894C33.2302 56.2248 33.1926 56.2466 33.1523 56.2466H32.8328C32.7899 56.2466 32.7496 56.2248 32.7308 56.1894L32.4248 55.582L32.4167 55.5602C32.4167 55.5602 32.4033 55.5683 32.4033 55.5956V57.0747C32.4033 57.1019 32.3845 57.1346 32.355 57.1346H32.0355C32.006 57.1346 31.9872 57.1237 31.9872 57.0883V54.901C31.9872 54.8329 32.0382 54.7729 32.108 54.7729H32.363C32.4167 54.7729 32.4597 54.8056 32.4812 54.8438L32.9536 55.8244C32.9671 55.8489 32.9751 55.868 32.9751 55.868C32.9993 55.868 33.01 55.8489 33.0234 55.8244L33.4932 54.8438C33.5201 54.8056 33.5604 54.7729 33.6167 54.7729H33.8718C33.9389 54.7729 33.9899 54.8329 33.9899 54.901Z" fill="white"/>
<path d="M34.8973 55.3996V55.7428H35.7483C35.7859 55.7428 35.8074 55.7754 35.8074 55.8054V56.0342C35.8074 56.0751 35.7859 56.0996 35.7483 56.0996H34.8973V56.5109C34.8973 56.7207 34.9644 56.7806 35.147 56.7806H35.7859C35.8154 56.7806 35.8477 56.8105 35.8477 56.8487V57.053C35.8477 57.0938 35.8289 57.1102 35.7859 57.1211C35.6839 57.132 35.5604 57.1646 35.1872 57.1646C34.7819 57.1646 34.4651 57.053 34.4651 56.5109V55.3996C34.4651 54.8629 34.7819 54.7485 35.1872 54.7485C35.5604 54.7485 35.6839 54.7758 35.7859 54.7948C35.8289 54.8057 35.8477 54.8112 35.8477 54.8629V55.0618C35.8477 55.0945 35.8154 55.1244 35.7859 55.1244H35.147C34.9644 55.1244 34.8973 55.1925 34.8973 55.3996Z" fill="white"/>
<path d="M38.033 54.8329V57.0093C38.033 57.0828 37.9739 57.1346 37.9068 57.1346H37.59C37.5121 57.1346 37.445 57.1346 37.3967 57.0229L36.7041 55.4757C36.696 55.4512 36.6906 55.443 36.6719 55.443C36.6719 55.443 36.6584 55.4512 36.6584 55.4757V57.0747C36.6584 57.1046 36.6316 57.1346 36.594 57.1346H36.3336C36.2987 57.1346 36.2692 57.1046 36.2692 57.0747V54.901C36.2692 54.8329 36.3255 54.7729 36.39 54.7729H36.7336C36.8034 54.7729 36.8356 54.7947 36.8678 54.8765L37.6034 56.5108L37.6168 56.5353C37.6303 56.5353 37.6464 56.5244 37.6464 56.5054V54.8329C37.6464 54.8056 37.6678 54.7729 37.7027 54.7729H37.9712C38.0061 54.7729 38.033 54.8056 38.033 54.8329Z" fill="white"/>
<path d="M39.9121 54.8329V55.0862C39.9121 55.1216 39.8826 55.1434 39.8477 55.1434H39.3V57.0747C39.3 57.1046 39.2732 57.1346 39.2356 57.1346H38.9269C38.892 57.1346 38.8678 57.1046 38.8678 57.0747V55.1434H38.3175C38.2799 55.1434 38.2531 55.1216 38.2531 55.0862V54.8329C38.2531 54.8056 38.2799 54.7729 38.3175 54.7729H39.8477C39.8826 54.7729 39.9121 54.8056 39.9121 54.8329Z" fill="white"/>
<path d="M41.7161 57.0666L41.198 55.0754C41.1228 54.7758 40.9 54.7485 40.7658 54.7485C40.6316 54.7485 40.406 54.7758 40.3309 55.0754L39.8181 57.0666V57.0857C39.8181 57.1156 39.8396 57.1347 39.8718 57.1347H40.202C40.2315 57.1347 40.2584 57.1102 40.2638 57.0857L40.406 56.4837H41.1228L41.2705 57.0857C41.2759 57.1102 41.3027 57.1347 41.3295 57.1347H41.6624C41.692 57.1347 41.7242 57.1156 41.7242 57.0829C41.7242 57.0829 41.7161 57.0748 41.7161 57.0666ZM40.4839 56.1159L40.7201 55.168C40.7255 55.1326 40.7336 55.1217 40.7658 55.1217C40.8007 55.1217 40.8061 55.1326 40.8195 55.168L41.045 56.1159H40.4839Z" fill="white"/>
<path d="M43.2705 56.8486V57.0529C43.2705 57.0937 43.2598 57.1046 43.2061 57.121C43.1175 57.1373 42.841 57.1645 42.6772 57.1645C42.2692 57.1645 41.9551 57.0529 41.9551 56.5108V54.8356C41.9551 54.8056 41.9792 54.7729 42.0115 54.7729H42.3229C42.3551 54.7729 42.3873 54.8056 42.3873 54.8356V56.5108C42.3873 56.7206 42.449 56.7805 42.6289 56.7805H43.2061C43.241 56.7805 43.2705 56.8104 43.2705 56.8486Z" fill="white"/>
<path d="M8.37598 57.9407V61.0378C8.37598 61.0814 8.3384 61.1222 8.28739 61.1222H7.86322C7.8149 61.1222 7.78 61.0814 7.78 61.0378V59.684H6.54508V61.0378C6.54508 61.0814 6.51018 61.1222 6.45917 61.1222H6.02963C5.98399 61.1222 5.94104 61.0814 5.94104 61.0378V57.9407C5.94104 57.8862 5.98399 57.8535 6.02963 57.8535H6.45917C6.51018 57.8535 6.54508 57.8862 6.54508 57.9407V59.1583H7.78V57.9407C7.78 57.8862 7.8149 57.8535 7.86322 57.8535H8.28739C8.3384 57.8535 8.37598 57.8862 8.37598 57.9407Z" fill="white"/>
<path d="M11.2003 61.0268L10.4888 58.2702C10.3868 57.8562 10.0727 57.8208 9.88748 57.8208C9.70224 57.8208 9.38814 57.8562 9.28344 58.2702L8.57471 61.0268C8.57471 61.0268 8.56934 61.0405 8.56934 61.0459C8.56934 61.0949 8.60155 61.1222 8.64987 61.1222H9.10894C9.14653 61.1222 9.18143 61.0841 9.1868 61.0459L9.38814 60.2124H10.3868L10.5855 61.0459C10.5935 61.0841 10.6257 61.1222 10.666 61.1222H11.1251C11.168 61.1222 11.2083 61.0949 11.2083 61.0459C11.2083 61.0405 11.2003 61.0377 11.2003 61.0268ZM9.50627 59.7112L9.815 58.4037C9.8311 58.352 9.84453 58.3356 9.88748 58.3356C9.92775 58.3356 9.94654 58.352 9.9546 58.4037L10.266 59.7112H9.50627Z" fill="white"/>
<path d="M13.6701 57.9407V59.9128C13.6701 60.8498 13.1788 61.1576 12.4835 61.1576C11.7882 61.1576 11.2861 60.8498 11.2861 59.9128V57.9407C11.2861 57.8862 11.3264 57.8535 11.372 57.8535H11.7989C11.8499 57.8535 11.8929 57.8862 11.8929 57.9407V59.9128C11.8929 60.414 12.0137 60.6537 12.4835 60.6537C12.9533 60.6537 13.0687 60.414 13.0687 59.9128V57.9407C13.0687 57.8862 13.1063 57.8535 13.1573 57.8535H13.5868C13.6352 57.8535 13.6701 57.8862 13.6701 57.9407Z" fill="white"/>
<path d="M16.1586 57.9407V58.2866C16.1586 58.3356 16.1237 58.3629 16.0727 58.3629H15.3157V61.0378C15.3157 61.0814 15.2727 61.1222 15.2244 61.1222H14.7948C14.7546 61.1222 14.7116 61.0814 14.7116 61.0378V58.3629H13.9572C13.9036 58.3629 13.8687 58.3356 13.8687 58.2866V57.9407C13.8687 57.8862 13.9036 57.8535 13.9572 57.8535H16.0727C16.1237 57.8535 16.1586 57.8862 16.1586 57.9407Z" fill="white"/>
<path d="M16.8675 58.7224V59.1991H18.0406C18.0863 59.1991 18.1265 59.24 18.1265 59.2808V59.6022C18.1265 59.6485 18.0863 59.684 18.0406 59.684H16.8675V60.256C16.8675 60.5447 16.9534 60.6346 17.2084 60.6346H18.089C18.14 60.6346 18.1802 60.6755 18.1802 60.7163V60.9996C18.1802 61.0677 18.1588 61.0841 18.089 61.0977C17.952 61.1167 17.7856 61.1576 17.2702 61.1576C16.7064 61.1576 16.2661 60.9996 16.2661 60.256V58.7224C16.2661 57.9761 16.7064 57.8208 17.2702 57.8208C17.7856 57.8208 17.952 57.8562 18.089 57.8834C18.1588 57.8862 18.1802 57.9134 18.1802 57.9761V58.2512C18.1802 58.3057 18.14 58.3438 18.089 58.3438H17.2084C16.9534 58.3438 16.8675 58.431 16.8675 58.7224Z" fill="white"/>
<path d="M19.4285 59.6352V59.9103C19.4285 59.9594 19.3936 59.9893 19.3453 59.9893H18.4969C18.4459 59.9893 18.4056 59.9594 18.4056 59.9103V59.6352C18.4056 59.5889 18.4459 59.5508 18.4969 59.5508H19.3453C19.3936 59.5508 19.4285 59.5889 19.4285 59.6352Z" fill="white"/>
<path d="M20.2393 59.1746V59.8065C20.2393 60.433 20.5427 60.6346 20.7977 60.6346C20.9561 60.6346 21.093 60.6346 21.2245 60.6183V59.5015C21.2245 59.4524 21.2594 59.4116 21.3078 59.4116H21.7427C21.7856 59.4116 21.8259 59.4524 21.8259 59.5015V60.9751C21.8259 61.0377 21.7964 61.0704 21.7427 61.0813C21.5252 61.1276 21.2433 61.1576 20.7977 61.1576C20.352 61.1576 19.6353 60.8471 19.6353 59.8065V59.1746C19.6353 58.1313 20.2984 57.8208 20.8057 57.8208C21.2245 57.8208 21.5977 57.8726 21.7427 57.9025C21.7964 57.9134 21.8259 57.9325 21.8259 57.9897V58.2866C21.8259 58.3465 21.8071 58.3765 21.7427 58.3765H21.7266C21.5252 58.3629 21.2245 58.3438 20.8057 58.3438C20.5185 58.3438 20.2393 58.5508 20.2393 59.1746Z" fill="white"/>
<path d="M24.6447 61.0268L23.9333 58.2702C23.8286 57.8562 23.5199 57.8208 23.3319 57.8208C23.144 57.8208 22.8353 57.8562 22.7333 58.2702L22.0192 61.0268C22.0192 61.0268 22.0111 61.0405 22.0111 61.0459C22.0111 61.0949 22.046 61.1222 22.0916 61.1222H22.5534C22.5937 61.1222 22.6259 61.0841 22.6339 61.0459L22.8353 60.2124H23.8286L24.0299 61.0459C24.0353 61.0841 24.0702 61.1222 24.1132 61.1222H24.5749C24.6125 61.1222 24.6501 61.0949 24.6501 61.0459C24.6501 61.0405 24.6447 61.0377 24.6447 61.0268ZM22.9507 59.7112L23.2621 58.4037C23.2756 58.352 23.2863 58.3356 23.3319 58.3356C23.3722 58.3356 23.3883 58.352 23.4044 58.4037L23.7158 59.7112H22.9507Z" fill="white"/>
<path d="M27.1709 61.0377L26.4944 59.7493C26.8461 59.6104 27.077 59.319 27.077 58.8532V58.8123C27.077 58.0605 26.4944 57.8208 25.8313 57.8208C25.5118 57.8208 25.2058 57.8426 24.9749 57.878C24.8944 57.8862 24.8353 57.9216 24.8353 58.0088V61.0377C24.8353 61.0813 24.881 61.1222 24.9293 61.1222H25.3615C25.4045 61.1222 25.442 61.0813 25.442 61.0377V59.8392C25.5414 59.8447 25.7132 59.8583 25.8313 59.8583H25.8904L26.5132 61.0377C26.5374 61.0786 26.5508 61.1222 26.5991 61.1222H27.1307C27.1629 61.1222 27.1817 61.1031 27.1817 61.0704C27.1817 61.065 27.1817 61.0459 27.1709 61.0377ZM26.4756 58.8532C26.4756 59.2427 26.277 59.3598 25.8313 59.3598C25.7561 59.3598 25.5118 59.3544 25.442 59.3489V58.3629C25.5226 58.352 25.74 58.3438 25.8313 58.3438C26.2635 58.3438 26.4756 58.4854 26.4756 58.8123V58.8532Z" fill="white"/>
<path d="M28.5159 57.8208C27.8018 57.8208 27.281 58.2239 27.281 59.1909V59.7847C27.281 60.7517 27.8018 61.1576 28.5159 61.1576C29.23 61.1576 29.7508 60.7517 29.7508 59.7847V59.1909C29.7508 58.2239 29.2327 57.8208 28.5159 57.8208ZM29.1441 59.7847C29.1441 60.3649 28.9401 60.6292 28.5159 60.6292C28.0918 60.6292 27.8877 60.3649 27.8877 59.7847V59.1909C27.8877 58.608 28.0918 58.352 28.5159 58.352C28.9401 58.352 29.1441 58.608 29.1441 59.1909V59.7847Z" fill="white"/>
<path d="M32.5321 57.9407V60.9506C32.5321 61.0378 32.4569 61.1222 32.363 61.1222H31.9227C31.8207 61.1222 31.7267 61.1222 31.6596 60.9615L30.6958 58.8205C30.6824 58.8014 30.6663 58.7851 30.6663 58.7851C30.6475 58.7851 30.6314 58.8014 30.6314 58.8205V61.0378C30.6314 61.0814 30.6019 61.1222 30.5536 61.1222H30.1884C30.1374 61.1222 30.0972 61.0814 30.0972 61.0378V58.0306C30.0972 57.9325 30.1723 57.8535 30.2717 57.8535H30.7361C30.8328 57.8535 30.8784 57.8835 30.9321 57.9979L31.9415 60.256C31.9469 60.2778 31.963 60.2941 31.963 60.2941C31.9871 60.2941 31.9979 60.2778 31.9979 60.2506V57.9407C31.9979 57.8862 32.0301 57.8535 32.0784 57.8535H32.4543C32.4945 57.8535 32.5321 57.8862 32.5321 57.9407Z" fill="white"/>
<path d="M35.402 57.9407V60.9506C35.402 61.0378 35.3268 61.1222 35.2302 61.1222H34.7926C34.6852 61.1222 34.5939 61.1222 34.5295 60.9615L33.5657 58.8205C33.5523 58.8014 33.5389 58.7851 33.5254 58.7851C33.5254 58.7851 33.5066 58.8014 33.5066 58.8205V61.0378C33.5066 61.0814 33.4717 61.1222 33.4207 61.1222H33.0529C33.0046 61.1222 32.967 61.0814 32.967 61.0378V58.0306C32.967 57.9325 33.0476 57.8535 33.1389 57.8535H33.6113C33.6999 57.8535 33.7509 57.8835 33.7966 57.9979L34.806 60.256C34.8194 60.2778 34.8328 60.2941 34.8463 60.2941C34.8543 60.2941 34.8677 60.2778 34.8677 60.2506V57.9407C34.8677 57.8862 34.8973 57.8535 34.9456 57.8535H35.3214C35.3698 57.8535 35.402 57.8862 35.402 57.9407Z" fill="white"/>
<path d="M36.4356 58.7224V59.1991H37.6114C37.6544 59.1991 37.6947 59.24 37.6947 59.2808V59.6022C37.6947 59.6485 37.6544 59.684 37.6114 59.684H36.4356V60.256C36.4356 60.5447 36.5269 60.6346 36.7819 60.6346H37.6598C37.7108 60.6346 37.7457 60.6755 37.7457 60.7163V60.9996C37.7457 61.0677 37.7296 61.0841 37.6598 61.0977C37.5175 61.1167 37.3591 61.1576 36.8383 61.1576C36.2718 61.1576 35.8369 60.9996 35.8369 60.256V58.7224C35.8369 57.9761 36.2718 57.8208 36.8383 57.8208C37.3591 57.8208 37.5175 57.8562 37.6598 57.8834C37.7296 57.8862 37.7457 57.9134 37.7457 57.9761V58.2512C37.7457 58.3057 37.7108 58.3438 37.6598 58.3438H36.7819C36.5269 58.3438 36.4356 58.431 36.4356 58.7224Z" fill="white"/>
<path d="M10.7143 51.5176H5.95178V53.1982H10.7143V51.5176Z" fill="white"/>
<path d="M16.1694 51.5176H11.4069V53.1982H16.1694V51.5176Z" fill="white"/>
<path d="M21.6246 51.5176H16.8647V53.1982H21.6246V51.5176Z" fill="white"/>
<path d="M27.0823 51.5176H22.3171V53.1982H27.0823V51.5176Z" fill="white"/>
<path d="M32.5375 51.5176H27.7723V53.1982H32.5375V51.5176Z" fill="white"/>
<path d="M37.998 51.5176H33.2301V53.1982H37.998V51.5176Z" fill="white"/>
<path d="M43.4505 51.5176H38.6853V53.1982H43.4505V51.5176Z" fill="white"/>
<path d="M38.6315 60.5395V61.038C38.6315 61.0816 38.5966 61.1224 38.5456 61.1224H38.159C38.108 61.1224 38.0731 61.0816 38.0731 61.038V60.5395C38.0731 60.4878 38.108 60.4551 38.159 60.4551H38.5456C38.5966 60.4551 38.6315 60.4878 38.6315 60.5395Z" fill="white"/>
<path d="M40.9323 57.9761V58.2512C40.9323 58.3029 40.8921 58.3438 40.8464 58.3438H39.9605C39.7081 58.3438 39.6195 58.4282 39.6195 58.7224V59.1991H40.7954C40.8437 59.1991 40.8813 59.24 40.8813 59.2808V59.6022C40.8813 59.6485 40.8437 59.684 40.7954 59.684H39.6195V61.0377C39.6195 61.0813 39.582 61.1222 39.531 61.1222H39.1068C39.0611 61.1222 39.0262 61.0813 39.0262 61.0377V58.7224C39.0262 57.9761 39.4585 57.8208 40.0222 57.8208C40.5404 57.8208 40.7068 57.8562 40.8464 57.8834C40.9108 57.8862 40.9323 57.9134 40.9323 57.9761Z" fill="white"/>
<path d="M43.6357 61.0377L42.9565 59.7493C43.3055 59.6104 43.5363 59.319 43.5363 58.8532V58.8123C43.5363 58.0605 42.9565 57.8208 42.2907 57.8208C41.9712 57.8208 41.6678 57.8426 41.4397 57.878C41.3511 57.8862 41.3054 57.9216 41.3054 58.0088V61.0377C41.3054 61.0813 41.3376 61.1222 41.3913 61.1222H41.8235C41.8665 61.1222 41.9041 61.0813 41.9041 61.0377V59.8392C42.0034 59.8447 42.1779 59.8583 42.2907 59.8583H42.3497L42.9752 61.0377C42.994 61.0786 43.0155 61.1222 43.0638 61.1222H43.5927C43.6276 61.1222 43.6437 61.1031 43.6437 61.0704C43.6437 61.065 43.6437 61.0459 43.6357 61.0377ZM42.9403 58.8532C42.9403 59.2427 42.7336 59.3598 42.2907 59.3598C42.2209 59.3598 41.9712 59.3544 41.9041 59.3489V58.3629C41.9819 58.352 42.1994 58.3438 42.2907 58.3438C42.7283 58.3438 42.9403 58.4854 42.9403 58.8123V58.8532Z" fill="white"/>
<path d="M35.1013 20.3834L34.2315 21.6663C32.3872 22.4781 30.0892 23.3116 27.724 24.0797C27.6757 24.2132 27.6301 24.3439 27.5844 24.4692C26.3414 28.0049 22.8702 35.8253 22.5749 37.4569C21.493 36.8958 21.3185 36.37 21.1521 35.9015C20.9695 35.3676 20.9937 34.4034 21.5467 33.1204C22.4917 30.628 23.5682 27.806 24.728 25.014C23.4098 25.4117 22.1132 25.7849 20.9158 26.1145C18.7628 32.1398 15.858 38.6663 12.8432 40.8808C14.7815 36.2148 16.6393 32.1698 18.4245 26.7682C16.8513 27.1659 15.6272 27.441 15.007 27.5282C12.4486 27.8987 11.4606 27.076 11.4284 26.5367C11.3962 26.0573 11.3962 25.9265 11.2942 24.8533C11.1841 23.7828 13.5868 24.6409 14.1614 25.3872C14.1614 25.3872 16.3037 24.7689 19.3078 23.9599C19.9386 21.8407 20.5615 19.5063 21.1816 16.8559C21.3373 16.2348 21.493 15.8944 21.5736 15.7854C22.0917 15.4449 22.3414 15.4122 22.5239 15.355C22.7092 15.3033 23.0206 15.3142 23.2622 15.5511C23.4931 15.7854 24.0005 16.2621 24.0005 16.2621C23.5548 17.9019 22.8273 20.4351 21.8904 23.2789C23.179 22.9384 24.5428 22.5952 25.9092 22.2629C27.1925 19.3347 28.5482 16.5617 29.8959 14.3553C30.1804 13.8896 30.465 13.4483 30.7496 13.037C31.1657 12.4323 32.0409 12.307 31.7858 12.8953C31.7187 13.0451 31.4878 13.6553 31.1576 14.5406C30.508 16.3057 29.4744 19.1685 28.5965 21.6282C31.0637 21.0616 33.3859 20.6013 35.1013 20.3834Z" fill="white"/>
<path d="M66.0656 21.8872H61.5394L54.35 39.2031H59.2628L60.4736 36.1088H67.0321L68.2428 39.2031H73.2792L66.0656 21.8872ZM61.8535 32.3988L63.7649 27.5366L65.6522 32.3988H61.8535Z" fill="white"/>
<path d="M82.235 25.9158V27.4875C81.2658 26.4306 80.1034 25.6216 78.1195 25.6216C75.1181 25.6216 72.455 27.9778 72.455 31.8103V31.8594C72.455 35.6647 75.0698 38.0236 78.2886 38.0236C80.1759 38.0236 81.3867 37.1138 82.3075 36.0351V36.5499C82.3075 38.6637 81.1692 39.8159 78.8926 39.8159C77.1262 39.8159 75.7221 39.3501 74.3181 38.5629L72.8415 41.66C74.7288 42.6406 76.8604 43.1827 79.3786 43.1827C82.1115 43.1827 83.9531 42.5426 85.1397 41.3141C86.2995 40.1618 86.8337 38.4403 86.8337 36.0106V25.9158H82.235ZM82.3316 31.8594C82.3316 33.333 81.2175 34.4389 79.6443 34.4389C78.0712 34.4389 76.957 33.3575 76.957 31.8839V31.8348C76.957 30.3367 78.0712 29.2308 79.6443 29.2308C81.2175 29.2308 82.3316 30.3367 82.3316 31.8103V31.8594Z" fill="white"/>
<path d="M88.3103 25.9155V39.2027H92.8848V25.9155H88.3103ZM88.2136 21.2739V24.7115H92.9815V21.2739H88.2136Z" fill="white"/>
<path d="M94.3615 25.9158H98.9602V28.5934C99.7119 26.7765 100.92 25.5971 103.1 25.6951V30.6064H102.713C100.316 30.6064 98.9602 32.0065 98.9602 35.0518V39.203H94.3615V25.9158Z" fill="white"/>
<path d="M62.0199 48.0067C61.3407 47.3148 60.2937 46.9443 58.7581 46.9443C57.2225 46.9443 56.256 47.2195 55.2895 47.6199L55.907 49.7581C56.6829 49.4694 57.3809 49.276 58.2829 49.276C59.44 49.276 59.993 49.7908 59.993 50.7061V50.8504C59.5017 50.6598 58.7259 50.5127 57.9339 50.5127C55.9231 50.5127 54.5754 51.4306 54.5754 53.2475V53.2774C54.5754 54.999 55.8104 55.9632 57.4426 55.9632C58.5675 55.9632 59.3755 55.5111 59.9769 54.8546V55.7698H62.9407V50.7714C62.9407 49.5484 62.6695 48.6495 62.0199 48.0067ZM60.0252 52.6183C60.0252 53.4872 59.4077 54.051 58.5191 54.051C57.9017 54.051 57.4587 53.6969 57.4587 53.1004V53.0704C57.4587 52.4112 57.9661 51.9918 58.8359 51.9918C59.2816 51.9918 59.7084 52.0898 60.0252 52.2178V52.6183Z" fill="white"/>
<path d="M62.9702 47.0752H66.1381L67.7864 52.1526L69.4482 47.0752H72.5543L69.1314 55.8326H66.3931L62.9702 47.0752Z" fill="white"/>
<path d="M80.8847 51.6378C80.8847 49.0828 79.5236 46.8818 76.5786 46.8818C74.0416 46.8818 72.2537 48.8894 72.2537 51.4308V51.4635C72.2537 54.1465 74.1544 55.9797 76.847 55.9797C78.541 55.9797 79.7303 55.2715 80.5545 54.2119L78.89 52.8118C78.2726 53.422 77.7168 53.6971 76.9893 53.6971C76.0551 53.6971 75.3732 53.2149 75.1369 52.267H80.8713C80.8847 52.0573 80.8847 51.8312 80.8847 51.6378ZM75.0886 50.7062C75.247 49.7419 75.7839 49.1318 76.5786 49.1318C77.3732 49.1318 77.9719 49.7419 78.082 50.7062H75.0886Z" fill="white"/>
<path d="M81.4404 51.4632V51.4305C81.4404 48.9708 83.3089 46.8979 86.0177 46.8979C87.7761 46.8979 88.9493 47.6688 89.6768 48.8265L87.6499 50.3709C87.2231 49.8071 86.764 49.4557 86.0499 49.4557C85.0673 49.4557 84.3559 50.3383 84.3559 51.4006V51.4333C84.3559 52.5583 85.0539 53.4108 86.066 53.4108C86.7935 53.4108 87.2553 53.0731 87.7144 52.5092L89.7251 53.9883C88.9332 55.1787 87.7922 55.9822 85.9237 55.9822C83.325 55.9822 81.4404 53.9257 81.4404 51.466V51.4632Z" fill="white"/>
<path d="M93.6984 47.0752H96.8662L98.5146 52.1526L100.176 47.0752H103.282L99.8596 55.8326H97.1186L93.6984 47.0752Z" fill="white"/>
<path d="M107.717 46.8818C104.976 46.8818 102.979 48.9547 102.979 51.4308V51.4635C102.979 53.9368 104.96 55.9797 107.685 55.9797C110.41 55.9797 112.437 53.9041 112.437 51.4308V51.3981C112.437 48.922 110.458 46.8818 107.717 46.8818ZM109.521 51.4635C109.521 52.5067 108.81 53.392 107.717 53.392C106.625 53.392 105.894 52.4904 105.894 51.4308V51.3981C105.894 50.3358 106.592 49.4532 107.685 49.4532C108.778 49.4532 109.521 50.3521 109.521 51.4308V51.4635Z" fill="white"/>
<path d="M113.229 52.7491V47.0752H116.238V51.7848C116.238 52.7328 116.73 53.2476 117.457 53.2476C118.185 53.2476 118.724 52.7328 118.724 51.7848V47.0752H121.718V55.7699H118.724V54.5632C118.169 55.2851 117.379 55.9606 116.158 55.9606C114.335 55.9606 113.226 54.724 113.226 52.7464L113.229 52.7491Z" fill="white"/>
<path d="M122.287 54.6611L123.412 52.8279C124.394 53.4871 125.455 53.8249 126.343 53.8249C126.867 53.8249 127.119 53.6642 127.119 53.3591V53.3264C127.119 52.9723 126.628 52.8279 125.726 52.5719C124.032 52.1224 122.684 51.5422 122.684 49.8071V49.7744C122.684 47.9249 124.142 46.8979 126.12 46.8979C127.371 46.8979 128.671 47.2684 129.653 47.9112L128.625 49.8398C127.739 49.325 126.773 49.0199 126.091 49.0199C125.632 49.0199 125.393 49.1969 125.393 49.453V49.4857C125.393 49.8234 125.9 49.9841 126.786 50.2565C128.48 50.7387 129.828 51.3325 129.828 53.0213V53.054C129.828 54.9662 128.418 55.9631 126.327 55.9631C124.885 55.9631 123.46 55.53 122.287 54.6611Z" fill="white"/>
<path d="M134.832 53.0375V55.7696H137.954V53.0375H134.832ZM134.674 44.5171V45.8845L135.608 52.1059H137.178L138.096 45.8845V44.5171H134.674Z" fill="white"/>
</g>
<defs>
<clipPath id="clip0_130_603">
<rect width="150" height="76" fill="white" transform="translate(0 0.166504)"/>
</clipPath>
</defs>
</svg>
