<?xml version="1.0" encoding="UTF-8"?>
<svg id="Calque_2" data-name="Calque 2" xmlns="http://www.w3.org/2000/svg" viewBox="0 0 390.31 170">
  <defs>
    <style>
      .cls-1 {
        fill: #d7d9dc;
      }

      .cls-2 {
        opacity: .6;
      }

      .cls-2, .cls-3, .cls-4 {
        fill: none;
      }

      .cls-5 {
        fill: #fff;
      }

      .cls-3, .cls-6 {
        opacity: .2;
      }

      .cls-7 {
        fill: #f9f4f0;
      }

      .cls-8 {
        opacity: .63;
      }

      .cls-8, .cls-9 {
        fill: #ec641d;
      }

      .cls-8, .cls-6 {
        isolation: isolate;
      }

      .cls-10 {
        fill: #0a1527;
      }

      .cls-11 {
        fill: #f0834a;
      }

      .cls-4 {
        stroke: #f9f4f0;
        stroke-miterlimit: 10;
      }

      .cls-6 {
        fill: #4f535a;
      }
    </style>
  </defs>
  <g id="Calque_1-2" data-name="Calque 1">
    <g>
      <path class="cls-9" d="m390.31,17v136c0,9.39-7.61,17-17,17H24.41c.61-18.86,4.2-36.97,10.3-53.87,1.83-5.11,3.91-10.1,6.19-14.98.44-.93.89-1.86,1.35-2.79,4.1-8.35,8.84-16.34,14.17-23.88.45-.64.91-1.29,1.37-1.92,3.08-4.24,6.34-8.33,9.77-12.27C98.39,24.91,143.14,1.97,193.28,0h180.03c9.39,0,17,7.61,17,17Z"/>
      <path class="cls-7" d="m88.25,118.99s-10.86-20.08-23-20.18c-12.14-.09-31.36,6.49-48.28-21.59C7.06,60.78,2.48,53.74.39,50.72c-.82-1.18-.29-2.8,1.06-3.27,9.56-3.31,41.41-12.63,58.25,3.17,19.96,18.74,28.55,68.37,28.55,68.37Z"/>
      <path class="cls-9" d="m12.65,51.55c14.31,3.05,33.82,11.76,48.22,23.4,2.16,2.04,7.36,6.04,13.64,14.82,5.3,7.29,9.58,15.75,11.66,21.78.13.38-.07.8-.45.93-.65.23-.94-.46-.92-.44-4.14-9.97-11.25-21.26-19.91-30.15-10.78-10.85-25.57-18.88-39.55-24.87l-1.41-.57c-10.69-4.4-12.02-3.72-11.76-4.6.06-.21.27-.33.48-.29h0Z"/>
      <path class="cls-11" d="m124.68,149.94c1.58-.1-20.61-8.97-39.26-32.19-8.78-10.94-17.43-26-27.59-27.89-8.46-1.58-26.08,12.55-31.75,17.33-.71.6-.4,1.75.51,1.92,4.5.82,14.45,3.13,19.62,8.24,6.82,6.74,17.33,7.48,24.93,4.97,7.6-2.51,12.15-3.34,21.7,5.67,9.55,9.01,27.35,22.23,31.83,21.95h0Z"/>
      <path class="cls-9" d="m36.93,104.48c8.28-4.29,19.07-5.55,27.44-1.14l.79.42c1.85,1,13.59,8.92,21.84,16.33.1.09.11.25.02.35-.16.17-.38.02-.35.03-5.06-3.96-11.83-8.78-17.04-12.29-5.64-3.86-9.51-6.45-17.39-6.54-8.69.02-15.18,3.22-15.15,3.21-.1.04-.22,0-.26-.1-.04-.1,0-.21.09-.26h0Z"/>
      <g>
        <path class="cls-7" d="m71.13,34.45c0-5.43,4.39-9.83,9.81-9.83h83.4c4.6,0,8.4,3.61,8.63,8.22l6.16,121.14c.18,3.6-2.65,6.64-6.25,6.71l-95.59,1.74c-3.38.06-6.16-2.67-6.16-6.06V34.45h0Z"/>
        <path class="cls-5" d="m91.26,160.38h0l-10.7-.14c-3.58-.05-6.49-3-6.49-6.58v-16.18c0-.13.1-.23.23-.23s.23.1.23.23v16.18c0,3.33,2.71,6.08,6.04,6.12l10.7.14c.13,0,.23.11.22.23,0,.12-.1.23-.23.23h0Z"/>
        <path class="cls-5" d="m74.31,132.69c-.13,0-.23-.1-.23-.23v-2.62c0-.13.1-.23.23-.23s.23.1.23.23v2.62c0,.13-.1.23-.23.23Z"/>
        <path class="cls-7" d="m77.97,26.49c-.01-1.74,1.51-3.08,3.23-2.85,11.39,1.55,50.55,6.33,82.93,3.84,1.48-.11,2.76,1.01,2.84,2.49l6.46,121.68c.09,1.67-1.18,3.1-2.85,3.19-13.62.81-69.7,3.93-89.71,1.83-1.22-.13-2.14-1.15-2.15-2.38l-.75-127.81h0Z"/>
        <path class="cls-1" d="m79.31,29.54c-.01-1.67,1.46-2.96,3.11-2.74,10.96,1.49,48.65,6.09,79.81,3.7,1.42-.11,2.65.97,2.73,2.4l6.21,117.1c.08,1.61-1.14,2.98-2.74,3.07-13.11.78-67.08,3.78-86.33,1.76-1.17-.12-2.06-1.11-2.07-2.29l-.72-123h0Z"/>
        <g class="cls-2">
          <path class="cls-10" d="m157.24,41.34c.14,0,.25-.12.25-.26l-.03-1.17c0-.14-.12-.26-.27-.26l-31.52-.56c-.14,0-.22.1-.17.24l.62,1.77c.05.13.2.24.34.24h30.78Z"/>
        </g>
        <g class="cls-2">
          <path class="cls-10" d="m125.68,43.77c-.14,0-.22.1-.17.24l.62,1.77c.05.13.2.24.34.24h30.78c.14,0,.25-.12.25-.26l-.03-1.17c0-.14-.12-.26-.27-.26l-31.52-.56h0Z"/>
        </g>
        <g class="cls-2">
          <path class="cls-10" d="m125.68,48.52c-.14,0-.22.1-.17.24l.62,1.77c.05.13.2.24.34.24h30.78c.14,0,.25-.12.25-.26l-.03-1.17c0-.14-.12-.26-.27-.26l-31.52-.56h0Z"/>
        </g>
        <g class="cls-2">
          <path class="cls-10" d="m159.83,60.24c.14,0,.25-.12.24-.26l-.08-1.17c0-.14-.13-.26-.27-.26l-71.91-.57c-.14,0-.18.09-.1.2l1.47,1.85c.09.11.27.2.42.2h70.23Z"/>
        </g>
        <g class="cls-2">
          <path class="cls-10" d="m87.81,62.67c-.14,0-.18.09-.1.2l1.47,1.85c.09.11.27.2.42.2h70.23c.14,0,.25-.12.24-.26l-.08-1.17c0-.14-.13-.26-.27-.26l-71.91-.57h0Z"/>
        </g>
        <path class="cls-10" d="m97.55,81.64h-.02l-5.95-.06c-.85,0-1.55-.59-1.63-1.36l-.52-5c-.03-.29.06-.58.26-.82.22-.26.55-.43.91-.45.5-.03,1.21-.09,1.95-.16,1.57-.13,3.53-.3,4.63-.31.8,0,1.48.47,1.67,1.17.31,1.15.28,3.32.22,5.63-.02.75-.7,1.36-1.52,1.36h0Zm-6.92-7.23c-.24.02-.45.12-.59.29-.12.14-.17.31-.15.48l.52,5c.06.54.56.95,1.18.95l5.95.06h.01c.58,0,1.05-.41,1.07-.91.06-2.28.09-4.41-.21-5.5-.13-.49-.64-.83-1.22-.83-1.09.01-3.03.18-4.6.31-.75.06-1.46.12-1.96.16h0Z"/>
        <g class="cls-2">
          <path class="cls-10" d="m102.77,78.33c.17.65.77,1.11,1.44,1.1l55.03-.47c.62,0,1.12-.52,1.11-1.14-.01-.61-.51-1.09-1.11-1.09l-55.03-.25c-.97,0-1.68.92-1.43,1.86h0Z"/>
        </g>
        <path class="cls-9" d="m91.52,75.72c.44-.26,1.01-.1,1.26.34l1.17,2.11c.12.21.42.2.52-.02l2.91-6.49c.14-.32.63-.21.62.14-.03,1.99-.56,5.76-3.72,8.92,0,0-1.74-.68-3.15-3.77-.2-.45-.04-.98.39-1.22h0Z"/>
        <path class="cls-10" d="m97.55,94.42h-.02l-5.95-.06c-.85,0-1.55-.59-1.63-1.36l-.52-5c-.03-.29.06-.58.26-.82.22-.26.55-.43.91-.45.5-.03,1.21-.09,1.95-.16,1.57-.13,3.53-.3,4.63-.31h.02c.78,0,1.46.48,1.64,1.17.31,1.15.28,3.32.22,5.63-.02.75-.7,1.36-1.52,1.36h0Zm-6.92-7.23c-.24.02-.45.12-.59.29-.12.14-.17.31-.15.47l.52,5c.06.54.56.95,1.18.95l5.95.06h.01c.58,0,1.05-.41,1.07-.91.06-2.28.09-4.42-.21-5.5-.13-.49-.65-.84-1.22-.83-1.09.01-3.03.18-4.6.31-.75.06-1.46.12-1.96.16h0Z"/>
        <g class="cls-2">
          <path class="cls-10" d="m102.77,91.1c.17.65.77,1.11,1.44,1.1l55.03-.47c.62,0,1.12-.52,1.11-1.14-.01-.61-.51-1.09-1.11-1.09l-55.03-.25c-.97,0-1.68.92-1.43,1.86h0Z"/>
        </g>
        <path class="cls-9" d="m91.52,88.49c.44-.26,1.01-.1,1.26.34l1.17,2.11c.12.21.42.2.52-.02l2.91-6.49c.14-.32.63-.21.62.14-.03,1.99-.56,5.76-3.72,8.92,0,0-1.74-.68-3.15-3.77-.2-.45-.04-.98.39-1.23h0Z"/>
        <path class="cls-10" d="m97.55,107.19h-.02l-5.95-.06c-.85,0-1.55-.59-1.63-1.36l-.52-5c-.03-.29.06-.58.26-.82.22-.26.55-.43.91-.45.5-.03,1.21-.09,1.95-.16,1.57-.13,3.53-.3,4.63-.32h.02c.78,0,1.45.48,1.64,1.17.31,1.15.28,3.32.22,5.63-.02.75-.7,1.36-1.52,1.36Zm-6.92-7.23c-.24.02-.45.12-.59.29-.12.14-.17.31-.15.47l.52,5c.06.54.56.95,1.18.95l5.95.06h.01c.58,0,1.05-.41,1.07-.91.06-2.28.09-4.41-.21-5.5-.13-.49-.65-.84-1.22-.83-1.09.01-3.03.18-4.6.31-.75.06-1.46.12-1.96.16h0Z"/>
        <g class="cls-2">
          <path class="cls-10" d="m102.77,103.87c.17.65.77,1.11,1.44,1.1l55.03-.47c.62,0,1.12-.52,1.11-1.14-.01-.61-.51-1.09-1.11-1.09l-55.03-.25c-.97,0-1.68.92-1.43,1.86h0Z"/>
        </g>
        <path class="cls-10" d="m97.55,119.96h-.02l-5.95-.06c-.85,0-1.55-.59-1.63-1.36l-.52-5c-.03-.29.06-.58.26-.82.22-.26.55-.42.91-.45.5-.03,1.21-.09,1.95-.16,1.57-.14,3.53-.3,4.63-.32h.02c.78,0,1.45.48,1.64,1.17.31,1.15.28,3.32.22,5.64-.02.75-.7,1.36-1.52,1.36Zm-6.92-7.23c-.24.02-.45.12-.59.29-.12.14-.17.31-.15.47l.52,5c.06.54.56.95,1.18.95l5.95.06h.01c.58,0,1.05-.41,1.07-.91.06-2.28.09-4.41-.21-5.5-.13-.49-.65-.84-1.22-.83-1.09.01-3.03.18-4.6.31-.75.06-1.46.12-1.96.16h0Z"/>
        <g class="cls-2">
          <path class="cls-10" d="m102.77,116.64c.17.65.77,1.11,1.44,1.1l55.03-.47c.62,0,1.12-.52,1.11-1.14-.01-.61-.51-1.09-1.11-1.09l-55.03-.25c-.97,0-1.68.92-1.43,1.86h0Z"/>
        </g>
        <path class="cls-10" d="m98.18,132.27h-.02l-5.95-.06c-.85,0-1.55-.59-1.63-1.36l-.52-5c-.03-.29.06-.58.26-.82.22-.26.55-.42.91-.45.5-.03,1.21-.1,1.95-.16,1.57-.14,3.53-.3,4.63-.32h.02c.78,0,1.46.48,1.64,1.17.31,1.15.28,3.32.22,5.64-.02.75-.7,1.36-1.52,1.36Zm-6.92-7.23c-.24.02-.45.12-.59.29-.11.14-.17.31-.15.47l.52,5c.06.54.57.95,1.18.95l5.95.06h.01c.58,0,1.05-.41,1.07-.91.06-2.28.09-4.41-.21-5.5-.13-.49-.65-.84-1.22-.83-1.09.01-3.03.18-4.6.31-.75.06-1.46.12-1.96.16h0Z"/>
        <g class="cls-2">
          <path class="cls-10" d="m103.4,128.95c.17.65.77,1.11,1.44,1.1l55.03-.47c.62,0,1.12-.52,1.11-1.14-.01-.61-.51-1.09-1.11-1.1l-55.03-.25c-.97,0-1.68.91-1.43,1.86h0Z"/>
        </g>
        <path class="cls-9" d="m91.89,101.37c.44-.26,1.01-.11,1.26.34l1.17,2.11c.12.21.43.2.52-.02l2.91-6.49c.14-.32.63-.21.62.14-.03,1.99-.56,5.76-3.72,8.92,0,0-1.74-.68-3.15-3.77-.2-.45-.04-.98.38-1.22h0Z"/>
        <path class="cls-7" d="m127.81,8.11c-3.01-2.1-5.63-2.06-7.48-1.51-1.68.5-2.77,2.12-2.61,3.87l.8,8.7,9.46.84s5.74-7.78-.17-11.9h0Zm-4.16,7.02c-1.3,0-2.36-1.06-2.36-2.36s1.06-2.36,2.36-2.36,2.36,1.06,2.36,2.36-1.06,2.36-2.36,2.36Z"/>
        <path class="cls-7" d="m119.47,15.51c-.12,0-.22-.09-.23-.21l-.13-1.38c-.01-.13.08-.24.21-.25.13-.01.24.08.25.21l.13,1.38c.01.13-.08.24-.21.25,0,0-.01,0-.02,0h0Zm-.25-2.71c-.12,0-.22-.09-.23-.21l-.1-1.05c-.15-1.67.9-3.22,2.49-3.69,1.13-.33,2.29-.38,3.46-.14.12.03.2.15.18.27-.03.12-.15.2-.27.18-1.09-.22-2.18-.18-3.24.13-1.39.41-2.3,1.76-2.16,3.21l.1,1.05c.01.13-.08.24-.21.25,0,0-.01,0-.02,0h0Z"/>
        <path class="cls-7" d="m105.61,24.79v-4.37c0-1.51,1.25-2.72,2.75-2.67l30.09,1.03c1.34.05,2.42,1.1,2.5,2.44l.25,4.2-35.59-.63h0Z"/>
        <path class="cls-7" d="m116.83,19.4h-1.29c-.13,0-.23-.1-.23-.23s.1-.23.23-.23h1.29c.13,0,.23.1.23.23s-.1.23-.23.23Z"/>
        <path class="cls-7" d="m107.23,23.42c-.13,0-.23-.1-.23-.23v-1.77c0-1.37,1.11-2.48,2.47-2.48h4.76c.13,0,.23.1.23.23s-.1.23-.23.23h-4.76c-1.11,0-2.02.91-2.02,2.02v1.77c0,.13-.1.23-.23.23h0Z"/>
        <path class="cls-7" d="m93.35,25.89c.07-1.51,1.32-2.7,2.83-2.7h52.61c1.89,0,3.51,1.36,3.83,3.23l.04.26c.35,2.05-1.22,3.92-3.29,3.92h-53.98c-1.24,0-2.23-1.04-2.17-2.28l.12-2.42h0Z"/>
      </g>
      <path class="cls-1" d="m218.85,92.25s10.86-20.08,23.01-20.18c12.14-.09,31.35,6.5,48.27-21.59,9.91-16.44,14.49-23.49,16.58-26.51.82-1.18.29-2.8-1.06-3.27-9.56-3.31-41.41-12.63-58.25,3.17-19.96,18.74-28.55,68.37-28.55,68.37Z"/>
      <path class="cls-9" d="m294.45,24.81c-14.31,3.05-33.82,11.76-48.23,23.4-2.16,2.04-7.35,6.04-13.64,14.82-5.29,7.29-9.57,15.75-11.65,21.78-.14.38.07.8.45.93.65.23.94-.46.92-.44,4.14-9.97,11.25-21.26,19.91-30.16,10.78-10.85,25.57-18.88,39.55-24.87l1.41-.57c10.69-4.4,12.02-3.72,11.76-4.6-.06-.21-.27-.33-.48-.29h0Z"/>
      <path class="cls-10" d="m181.4,117.19c-1.58-.1,20.61-8.97,39.26-32.19,8.78-10.94,17.43-26,27.59-27.89,8.45-1.58,26.07,12.55,31.75,17.33.71.6.4,1.75-.51,1.92-4.51.82-14.46,3.13-19.63,8.24-6.81,6.74-17.33,7.48-24.92,4.97-7.6-2.51-12.15-3.34-21.7,5.67-9.56,9.01-27.35,22.23-31.84,21.95Z"/>
      <path class="cls-9" d="m269.14,72.72c-8.28-4.28-19.07-5.55-27.44-1.14l-.79.42c-1.85,1-13.6,8.92-21.85,16.33-.1.09-.11.25-.02.35.16.17.38.02.35.03,5.06-3.96,11.83-8.78,17.03-12.29,5.64-3.86,9.52-6.45,17.39-6.54,8.69.02,15.18,3.22,15.15,3.21.11.05.22,0,.27-.1.04-.1,0-.21-.09-.26h0Z"/>
      <path class="cls-7" d="m171.75,57.42c-2.61,13.6-11.52,60.5-13.65,77.29-.23,1.78,1.14,3.46,3.13,3.84,9.81,1.89,45.84,8.51,62.06,10.54,3.38.42,6.44-1.56,7-4.53,2.67-14.28,9.98-54.48,11.24-73.24.15-2.25-1.52-4.33-3.98-4.96-10.58-2.7-46.5-10.95-60.57-12.42-2.54-.27-4.8,1.24-5.23,3.46Z"/>
      <path class="cls-7" d="m233.44,69.53l-55.18-9c-2.22-.36-4.3,1.15-4.66,3.36l-1.89,11.57c-.36,2.22,1.14,4.31,3.35,4.67l55.19,8.99c2.21.36,4.3-1.15,4.66-3.36l1.89-11.57c.36-2.22-1.14-4.31-3.36-4.67Z"/>
      <path class="cls-6" d="m234,73.68c-.41-.58-1.03-.98-1.73-1.11l-51.5-9.24c-1.38-.25-2.71.61-3.07,1.97l-2.94,11.3c-.24.93,1.17,1.97,3.14,2.31l50.66,8.89c1.96.34,3.71-.14,3.88-1.08l1.99-11.04c.13-.7-.03-1.42-.43-2.01h0Z"/>
      <path class="cls-9" d="m182.94,93.48c-.33,2.04-2.25,3.43-4.29,3.1l-4.49-.73c-2.04-.33-3.42-2.26-3.09-4.3.33-2.04,2.25-3.43,4.29-3.1l4.49.73c2.04.33,3.42,2.26,3.09,4.3Z"/>
      <path class="cls-9" d="m199.63,96.2c-.33,2.04-2.26,3.43-4.29,3.1l-4.49-.73c-2.04-.33-3.42-2.26-3.09-4.3.33-2.04,2.26-3.43,4.29-3.1l4.49.73c2.04.33,3.42,2.26,3.09,4.3Z"/>
      <path class="cls-9" d="m215.66,98.81c-.33,2.04-2.25,3.43-4.29,3.1l-4.49-.73c-2.04-.33-3.42-2.26-3.09-4.3.33-2.04,2.25-3.43,4.29-3.1l4.5.73c2.03.33,3.42,2.26,3.08,4.3Z"/>
      <path class="cls-10" d="m231.84,102.01c-.34,2.07-2.3,3.48-4.37,3.15l-4.34-.71c-2.07-.34-3.47-2.29-3.13-4.37.33-2.07,2.29-3.48,4.36-3.15l4.34.71c2.07.34,3.47,2.29,3.14,4.37Z"/>
      <path class="cls-9" d="m181.05,105.05c-.33,2.04-2.25,3.43-4.29,3.1l-4.49-.73c-2.04-.33-3.42-2.26-3.09-4.3.33-2.04,2.25-3.43,4.29-3.1l4.49.73c2.04.33,3.42,2.26,3.09,4.3Z"/>
      <path class="cls-9" d="m197.74,107.77c-.33,2.04-2.25,3.43-4.29,3.1l-4.49-.73c-2.04-.33-3.42-2.26-3.09-4.3s2.25-3.43,4.29-3.1l4.49.73c2.04.33,3.42,2.26,3.09,4.3Z"/>
      <path class="cls-9" d="m213.78,110.39c-.34,2.04-2.26,3.43-4.3,3.1l-4.49-.73c-2.04-.33-3.42-2.26-3.09-4.3s2.26-3.43,4.29-3.1l4.49.73c2.04.33,3.42,2.26,3.09,4.3Z"/>
      <path class="cls-9" d="m230.46,113.11c-.33,2.04-2.26,3.43-4.29,3.1l-4.49-.73c-2.04-.33-3.42-2.26-3.09-4.3.33-2.04,2.25-3.43,4.29-3.1l4.49.73c2.04.33,3.42,2.26,3.09,4.3Z"/>
      <path class="cls-8" d="m179.38,115.3c-.33,2.04-2.26,3.43-4.29,3.1l-4.49-.73c-2.04-.33-3.42-2.26-3.09-4.3s2.26-3.43,4.29-3.1l4.49.73c2.04.33,3.42,2.26,3.09,4.3Z"/>
      <path class="cls-8" d="m196.07,118.02c-.33,2.04-2.25,3.43-4.29,3.1l-4.49-.73c-2.04-.33-3.42-2.26-3.09-4.3.33-2.04,2.25-3.43,4.29-3.1l4.49.73c2.04.33,3.42,2.26,3.09,4.3Z"/>
      <path class="cls-8" d="m212.1,120.64c-.33,2.04-2.25,3.43-4.29,3.1l-4.49-.73c-2.04-.33-3.42-2.26-3.09-4.3.33-2.04,2.26-3.43,4.29-3.1l4.49.73c2.04.33,3.42,2.26,3.08,4.3Z"/>
      <path class="cls-8" d="m177.55,126.56c-.33,2.04-2.25,3.43-4.29,3.1l-4.49-.73c-2.04-.33-3.42-2.26-3.09-4.3.33-2.04,2.26-3.43,4.29-3.1l4.49.73c2.04.33,3.42,2.26,3.09,4.3Z"/>
      <path class="cls-8" d="m194.23,129.28c-.33,2.04-2.25,3.43-4.29,3.1l-4.49-.73c-2.04-.33-3.42-2.26-3.09-4.3.33-2.04,2.25-3.43,4.29-3.1l4.49.73c2.04.33,3.42,2.26,3.09,4.3Z"/>
      <path class="cls-8" d="m210.28,131.89c-.33,2.04-2.26,3.43-4.29,3.1l-4.49-.73c-2.04-.33-3.42-2.26-3.09-4.3.33-2.04,2.26-3.43,4.29-3.1l4.49.73c2.04.33,3.42,2.26,3.09,4.3Z"/>
      <path class="cls-9" d="m222.95,119.64l-.28-.05c-2.58-.42-5.01,1.33-5.43,3.92l-1.47,8.97c-.42,2.58,1.33,5.02,3.91,5.44l.29.05c2.58.42,5.01-1.33,5.43-3.92l1.46-8.97c.42-2.58-1.33-5.02-3.91-5.44Z"/>
      <g class="cls-3">
        <path class="cls-5" d="m335.21,116.12l-42.91,43.19,15.83-.04c4.81-.01,9.32-1.9,12.71-5.31l29.98-30.18c4.24-4.26,4.22-11.15-.03-15.39l-25.49-25.41c-.71-.71-1.32-1.53-1.68-2.47-1.19-3.13-.46-6.36,1.71-8.55l23.36-23.52c3.78-3.8,5.89-8.94,5.88-14.3l-.04-14.96-58,58.38,38.67,38.56h.01Z"/>
        <path class="cls-5" d="m366.39,48.4c-3.8-3.78-5.93-8.91-5.94-14.27l-.03-14.96,29.89,29.8v23.33c-.14-.17-.29-.33-.45-.49l-23.47-23.41Z"/>
        <path class="cls-5" d="m390.31,105.84l-10.1,10.17,10.1,10.07v23.28l-25.69-25.62c-4.25-4.24-4.27-11.13-.04-15.39l25.36-25.53c.13-.13.25-.26.37-.39v23.41Z"/>
      </g>
      <rect class="cls-4" x="223.07" y="74" width="6" height="10" rx="1.15" ry="1.15" transform="translate(17.36 -38.43) rotate(10.1)"/>
    </g>
  </g>
</svg>