<?xml version="1.0" encoding="UTF-8"?>
<svg id="Calque_2" data-name="Calque 2" xmlns="http://www.w3.org/2000/svg" viewBox="0 0 167 156">
  <defs>
    <style>
      .cls-1 {
        fill: #fff;
      }

      .cls-2 {
        fill: #ec641d;
      }
    </style>
  </defs>
  <g id="Calque_1-2" data-name="Calque 1">
    <g>
      <path class="cls-1" d="m10.08,76.69c2.44,0,3.84-1.3,3.84-3.22v-.07c0-2.15-1.5-3.26-3.93-3.26h-4.98v6.54h5.07ZM0,65.62h10.41c2.89,0,5.14.81,6.64,2.31,1.27,1.27,1.95,3.06,1.95,5.21v.07c0,3.68-1.98,5.99-4.88,7.06l5.56,8.14h-3.06c-1.75,0-3.37-.87-4.35-2.32l-3.32-4.97h-3.94v7.29H0v-22.79h0Z"/>
      <path class="cls-1" d="m24.82,65.62h17.17v1.32c0,1.73-1.4,3.14-3.14,3.14h-9.06v4.62h8.85v4.46h-8.85v4.79h9.22c1.73,0,3.14,1.41,3.14,3.14v1.32h-17.34v-22.79h0Z"/>
      <path class="cls-1" d="m48.12,65.62h5.4l5.99,9.64,5.99-9.64h5.4v22.79h-1.84c-1.73,0-3.14-1.4-3.14-3.14v-11.74l-6.41,9.73h-.13l-6.34-9.64v11.64c0,1.73-1.4,3.14-3.14,3.14h-1.78v-22.79h0Z"/>
      <path class="cls-1" d="m86.7,77.11c2.5,0,3.97-1.5,3.97-3.45v-.07c0-2.25-1.56-3.45-4.06-3.45h-3.87v6.97h3.97Zm-8.98-11.49h9.3c5.43,0,8.72,3.22,8.72,7.88v.07c0,5.27-4.1,8.01-9.2,8.01h-3.81v3.7c0,1.73-1.4,3.14-3.14,3.14h-1.87v-22.79h0Z"/>
      <path class="cls-1" d="m111.62,78.87l-3.03-7.39-3.03,7.39h6.05Zm-5.27-13.41h4.62l9.76,22.95h-3.13c-1.28,0-2.42-.77-2.9-1.95l-1.29-3.16h-9.63l-1.29,3.16c-.48,1.18-1.63,1.95-2.9,1.95h-3l9.76-22.95h0Z"/>
      <path class="cls-1" d="m135.26,76.69c2.44,0,3.84-1.3,3.84-3.22v-.07c0-2.15-1.5-3.26-3.93-3.26h-4.98v6.54h5.07Zm-10.08-11.07h10.41c2.9,0,5.14.81,6.64,2.31,1.27,1.27,1.95,3.06,1.95,5.21v.07c0,3.68-1.98,5.99-4.88,7.06l5.56,8.14h-3.13c-1.7,0-3.29-.85-4.23-2.26l-3.37-5.03h-3.93v4.15c0,1.73-1.4,3.14-3.14,3.14h-1.87v-22.79h0Z"/>
      <path class="cls-1" d="m155.06,70.24h-6.93v-4.62h18.86v4.62h-6.93v18.17h-1.87c-1.73,0-3.14-1.41-3.14-3.14v-15.02Z"/>
      <path class="cls-1" d="m34.35,100.31h2.26l2.51,4.03,2.5-4.03h2.26v9.54h-2.08v-6.23l-2.68,4.08h-.06l-2.65-4.03v6.19h-2.06v-9.54Z"/>
      <path class="cls-1" d="m49.43,105.76v-5.45h2.1v5.4c0,1.55.78,2.36,2.06,2.36s2.06-.78,2.06-2.29v-5.47h2.1v5.38c0,2.89-1.62,4.31-4.18,4.31s-4.13-1.43-4.13-4.24Z"/>
      <path class="cls-1" d="m65.49,102.25h-2.9v-1.94h7.9v1.94h-2.9v7.6h-2.1v-7.6Z"/>
      <path class="cls-1" d="m75.35,105.76v-5.45h2.1v5.4c0,1.55.78,2.36,2.06,2.36s2.06-.78,2.06-2.29v-5.47h2.1v5.38c0,2.89-1.62,4.31-4.18,4.31s-4.13-1.43-4.13-4.24Z"/>
      <path class="cls-1" d="m89.2,100.31h7.19v1.87h-5.11v1.93h4.49v1.87h-4.49v2h5.18v1.87h-7.26v-9.54Z"/>
      <path class="cls-1" d="m101.73,100.31h2.1v7.63h4.75v1.91h-6.85v-9.54Z"/>
      <path class="cls-1" d="m113.56,100.31h2.1v7.63h4.75v1.91h-6.85v-9.54Z"/>
      <path class="cls-1" d="m125.39,100.31h7.19v1.87h-5.11v1.93h4.49v1.87h-4.49v2h5.17v1.87h-7.26v-9.54Z"/>
      <path class="cls-2" d="m75.66,33.6l-14.88,14.97h5.49c1.67-.02,3.23-.67,4.41-1.85l10.4-10.46c1.47-1.48,1.46-3.86-.01-5.33l-8.84-8.81c-.25-.25-.46-.53-.58-.85-.41-1.08-.16-2.21.59-2.96l8.1-8.15c1.31-1.32,2.04-3.1,2.04-4.95V.01s-20.13,20.23-20.13,20.23l13.41,13.36h0Z"/>
      <path class="cls-2" d="m91.27,33.56l14.95,14.9h-5.49c-1.67.02-3.23-.63-4.42-1.81l-10.45-10.41c-1.48-1.47-1.48-3.86-.01-5.33l8.8-8.85c.25-.25.46-.53.58-.86.41-1.09.15-2.21-.61-2.96l-8.14-8.11c-1.31-1.31-2.06-3.09-2.06-4.94V0s20.2,20.14,20.2,20.14l-13.35,13.43h0Z"/>
      <path class="cls-2" d="m109.37,127.12h-51.74v.58h51.74v-.58Z"/>
      <path class="cls-1" d="m9.06,148.21c-.22.47-.53.86-.92,1.18-.39.32-.85.55-1.37.71-.52.16-1.08.24-1.68.24h-1.78v3.2H.95v-10.68h4.36c.64,0,1.21.09,1.71.27.5.18.93.43,1.28.76s.62.71.81,1.17c.19.45.28.95.28,1.5v.03c0,.62-.11,1.17-.34,1.63h0Zm-2.04-1.62c0-.53-.17-.93-.51-1.21-.34-.27-.81-.41-1.39-.41h-1.81v3.26h1.86c.59,0,1.05-.15,1.37-.47.33-.31.49-.69.49-1.15v-.03h0Z"/>
      <path class="cls-1" d="m15.68,147.63c-.77,0-1.38.23-1.82.7s-.66,1.2-.66,2.18v3.02h-2.32v-8.18h2.32v1.65c.23-.56.55-1.01.96-1.34.41-.34.96-.49,1.65-.46v2.43h-.12,0Z"/>
      <path class="cls-1" d="m25.36,151.11c-.22.51-.53.96-.93,1.35-.4.39-.86.69-1.4.91-.54.22-1.13.34-1.77.34s-1.21-.11-1.75-.33c-.54-.22-1-.52-1.39-.9-.39-.38-.7-.83-.92-1.34-.22-.51-.34-1.06-.34-1.65v-.03c0-.59.11-1.14.34-1.65.22-.51.53-.96.93-1.35.4-.39.86-.69,1.4-.91.54-.22,1.13-.34,1.77-.34s1.21.11,1.75.33c.54.22,1,.52,1.39.9.39.38.7.83.92,1.34.22.51.34,1.07.34,1.65v.03c0,.59-.11,1.14-.34,1.66h0Zm-1.95-1.65c0-.31-.05-.59-.15-.86-.1-.27-.25-.51-.44-.72-.19-.21-.42-.37-.69-.5-.26-.12-.55-.18-.87-.18-.34,0-.63.06-.89.18-.26.12-.48.28-.66.48-.18.2-.32.44-.42.71-.1.27-.15.56-.15.86v.03c0,.31.05.59.15.86.1.27.25.51.44.72.19.21.42.37.68.5.26.12.55.18.88.18s.63-.06.89-.18c.26-.12.48-.28.66-.48.18-.2.32-.44.42-.71.1-.27.15-.56.15-.86v-.03Z"/>
      <path class="cls-1" d="m31.15,153.54c-.3.08-.63.13-1.02.13-.36,0-.68-.04-.97-.12-.29-.07-.54-.21-.75-.4-.21-.19-.37-.45-.49-.76-.12-.31-.18-.7-.18-1.18v-3.87h-.98v-1.98h.98v-2.09h2.32v2.09h1.92v1.98h-1.92v3.49c0,.53.25.79.75.79.41,0,.79-.1,1.14-.29v1.86c-.24.14-.51.26-.81.34h0Z"/>
      <path class="cls-1" d="m41.3,149.96c0,.08-.01.18-.02.29h-5.68c.11.53.34.93.69,1.2.35.27.78.4,1.3.4.39,0,.73-.07,1.04-.2.31-.13.62-.35.95-.64l1.33,1.18c-.39.48-.85.85-1.4,1.12-.55.27-1.19.4-1.93.4-.61,0-1.18-.1-1.7-.31-.52-.2-.98-.49-1.36-.87-.38-.38-.68-.82-.89-1.33-.21-.51-.32-1.08-.32-1.71v-.03c0-.58.1-1.13.3-1.65.2-.52.47-.97.83-1.36.35-.39.78-.69,1.27-.91.49-.22,1.04-.34,1.64-.34.68,0,1.27.12,1.77.37s.91.57,1.24.98c.33.41.57.88.73,1.42.16.53.24,1.09.24,1.67v.03c0,.11,0,.21,0,.29h0Zm-2.8-2.42c-.3-.32-.69-.48-1.17-.48s-.88.16-1.18.47c-.3.32-.49.74-.59,1.27h3.49c-.07-.52-.25-.94-.55-1.26h0Zm-2.1-3.09l1.72-2.7,2,.87-1.95,1.83h-1.77Z"/>
      <path class="cls-1" d="m50.96,153.66c-.19.54-.47.99-.85,1.33-.38.35-.86.6-1.42.76-.57.16-1.23.24-2,.24-.67,0-1.31-.07-1.92-.22-.61-.15-1.17-.36-1.69-.63l.79-1.74c.43.23.86.42,1.29.55.43.13.92.2,1.47.2.79,0,1.38-.19,1.76-.56.38-.38.57-.93.57-1.66v-.4c-.35.42-.72.74-1.13.98-.41.23-.92.35-1.54.35-.48,0-.94-.08-1.37-.25-.44-.17-.82-.41-1.16-.74-.33-.32-.6-.72-.8-1.2-.2-.47-.3-1.01-.3-1.62v-.03c0-.61.1-1.15.31-1.62.2-.47.47-.87.81-1.2.33-.33.72-.57,1.16-.74.44-.17.89-.25,1.36-.25.63,0,1.15.12,1.55.35.41.23.77.52,1.08.87v-1.07h2.32v6.33c0,.77-.09,1.43-.28,1.98h0Zm-2-4.64c0-.27-.05-.53-.15-.76-.1-.24-.24-.44-.42-.6-.18-.17-.39-.3-.63-.39-.24-.09-.51-.14-.79-.14s-.55.05-.78.14c-.24.09-.45.22-.62.39-.18.17-.32.37-.42.6-.1.23-.15.49-.15.76v.03c0,.57.19,1.03.56,1.37.38.35.85.52,1.42.52.28,0,.55-.05.79-.14.24-.09.45-.22.63-.39.18-.17.32-.37.42-.6.1-.23.15-.49.15-.76v-.03h0Z"/>
      <path class="cls-1" d="m60.93,149.96c0,.08-.01.18-.02.29h-5.68c.11.53.34.93.69,1.2.35.27.78.4,1.3.4.39,0,.73-.07,1.04-.2s.62-.35.95-.64l1.33,1.18c-.39.48-.85.85-1.4,1.12-.55.27-1.19.4-1.93.4-.61,0-1.18-.1-1.7-.3-.52-.2-.98-.49-1.36-.87-.38-.38-.68-.82-.89-1.33-.21-.51-.32-1.08-.32-1.71v-.03c0-.58.1-1.13.3-1.65.2-.52.47-.97.83-1.36.35-.39.78-.69,1.27-.91.49-.22,1.04-.34,1.64-.34.68,0,1.27.12,1.77.37.5.24.91.57,1.24.98.33.41.57.88.73,1.42.16.53.24,1.09.24,1.67v.03c0,.11,0,.21,0,.29h0Zm-2.8-2.42c-.3-.32-.69-.48-1.17-.48s-.88.16-1.18.47c-.3.32-.49.74-.59,1.27h3.49c-.07-.52-.25-.94-.55-1.26h0Z"/>
      <path class="cls-1" d="m67.46,147.63c-.77,0-1.38.23-1.82.7s-.66,1.2-.66,2.18v3.02h-2.32v-8.18h2.32v1.65c.23-.56.55-1.01.96-1.34.41-.34.96-.49,1.65-.46v2.43h-.12,0Z"/>
      <path class="cls-1" d="m69.86,153.53h-.93v-2.44h2.45v2.06c0,1.01-.24,1.73-.73,2.17-.49.44-1.18.67-2.09.68l-.2-.96c1.08-.11,1.57-.62,1.49-1.51h0Z"/>
      <path class="cls-1" d="m82.74,153.53v-.88c-.29.32-.62.57-1.02.75-.4.19-.88.28-1.45.28-.39,0-.75-.05-1.09-.16-.34-.11-.64-.27-.89-.48-.25-.22-.45-.48-.6-.79-.15-.31-.22-.67-.22-1.07v-.03c0-.45.08-.83.24-1.16.16-.32.39-.6.68-.81.29-.21.63-.37,1.04-.48.4-.11.85-.16,1.33-.16.42,0,.78.03,1.09.09.31.06.61.14.91.24v-.14c0-.49-.15-.86-.44-1.11-.3-.25-.73-.38-1.31-.38-.45,0-.84.04-1.18.11-.34.08-.7.19-1.07.33l-.58-1.77c.45-.19.91-.35,1.4-.47.49-.12,1.08-.18,1.77-.18,1.27,0,2.19.31,2.77.93.58.62.87,1.48.87,2.59v4.74h-2.24Zm.05-3.29c-.2-.09-.43-.17-.68-.22-.25-.06-.52-.09-.8-.09-.5,0-.89.1-1.17.29-.29.19-.43.47-.43.84v.03c0,.32.12.56.35.73.23.17.54.26.91.26.55,0,.99-.13,1.32-.4.33-.26.49-.61.49-1.04v-.41h0Z"/>
      <path class="cls-1" d="m92.08,153.53v-1.17c-.13.17-.28.34-.43.5-.16.16-.33.3-.53.42-.19.12-.41.22-.64.29-.23.07-.5.11-.79.11-.88,0-1.57-.27-2.05-.81-.48-.54-.72-1.28-.72-2.23v-5.29h2.32v4.55c0,.55.12.96.37,1.24.24.28.59.42,1.04.42s.8-.14,1.06-.42.39-.69.39-1.24v-4.55h2.32v8.18h-2.32,0Z"/>
      <path class="cls-1" d="m106.79,152.23c-.16.33-.38.6-.66.82-.28.21-.62.37-1,.48-.38.11-.79.16-1.23.16-.58,0-1.17-.1-1.78-.3-.6-.2-1.18-.51-1.73-.94l.99-1.53c.45.33.89.57,1.33.73.44.16.86.24,1.24.24.34,0,.58-.05.74-.17.16-.11.24-.26.24-.44v-.03c0-.12-.05-.23-.14-.32-.09-.09-.22-.17-.37-.24-.16-.07-.34-.13-.54-.19-.2-.06-.42-.13-.64-.2-.29-.08-.57-.18-.86-.3-.29-.12-.55-.27-.78-.46-.23-.19-.42-.42-.57-.69-.15-.27-.22-.61-.22-1.01v-.03c0-.42.08-.78.24-1.11.16-.32.37-.59.64-.82.27-.22.59-.39.95-.5.36-.11.75-.17,1.17-.17.52,0,1.04.08,1.58.25.53.17,1.02.4,1.47.69l-.88,1.6c-.41-.23-.8-.42-1.19-.56-.39-.14-.73-.21-1.02-.21s-.5.05-.64.16c-.14.11-.21.24-.21.4v.03c0,.11.04.21.14.3.09.09.21.17.37.24.15.07.33.15.53.22.2.07.41.14.63.21.28.09.57.2.87.33.3.13.56.28.79.47.23.18.43.41.58.67.15.26.23.58.23.96v.03c0,.46-.08.85-.24,1.18h0Z"/>
      <path class="cls-1" d="m116.3,149.96c0,.08-.01.18-.02.29h-5.68c.11.53.34.93.69,1.2.35.27.78.4,1.3.4.39,0,.73-.07,1.04-.2.31-.13.62-.35.94-.64l1.33,1.18c-.39.48-.85.85-1.4,1.12-.55.27-1.19.4-1.93.4-.61,0-1.18-.1-1.7-.3-.52-.2-.97-.49-1.36-.87-.38-.38-.68-.82-.89-1.33-.21-.51-.32-1.08-.32-1.71v-.03c0-.58.1-1.13.3-1.65.2-.52.48-.97.83-1.36.36-.39.78-.69,1.27-.91.49-.22,1.04-.34,1.64-.34.68,0,1.27.12,1.77.37.5.24.91.57,1.24.98.33.41.57.88.73,1.42.16.53.24,1.09.24,1.67v.03c0,.11,0,.21,0,.29h0Zm-2.8-2.42c-.29-.32-.69-.48-1.17-.48s-.88.16-1.18.47c-.3.32-.5.74-.59,1.27h3.49c-.07-.52-.25-.94-.55-1.26h0Z"/>
      <path class="cls-1" d="m123.19,153.53v-4.55c0-.55-.12-.96-.37-1.24-.24-.28-.59-.42-1.04-.42s-.8.14-1.06.42c-.26.28-.39.69-.39,1.24v4.55h-2.31v-8.18h2.31v1.17c.13-.17.28-.34.44-.5.16-.16.33-.3.53-.42.19-.12.41-.22.64-.29.23-.07.5-.11.79-.11.88,0,1.57.27,2.05.81.48.54.72,1.28.72,2.23v5.29h-2.32Z"/>
      <path class="cls-1" d="m133.27,152.23c-.16.33-.38.6-.66.82-.28.21-.62.37-1,.48-.38.11-.79.16-1.23.16-.58,0-1.17-.1-1.77-.3-.6-.2-1.18-.51-1.73-.94l.99-1.53c.45.33.89.57,1.33.73.44.16.86.24,1.24.24.34,0,.58-.05.74-.17.16-.11.24-.26.24-.44v-.03c0-.12-.05-.23-.14-.32-.09-.09-.22-.17-.37-.24-.16-.07-.34-.13-.54-.19-.2-.06-.42-.13-.64-.2-.29-.08-.57-.18-.86-.3-.29-.12-.55-.27-.78-.46-.23-.19-.42-.42-.57-.69-.15-.27-.22-.61-.22-1.01v-.03c0-.42.08-.78.24-1.11.16-.32.37-.59.64-.82.27-.22.58-.39.95-.5.36-.11.75-.17,1.17-.17.52,0,1.04.08,1.58.25.53.17,1.02.4,1.47.69l-.88,1.6c-.41-.23-.8-.42-1.19-.56-.39-.14-.73-.21-1.02-.21s-.5.05-.64.16c-.14.11-.21.24-.21.4v.03c0,.11.04.21.14.3.09.09.21.17.37.24.15.07.33.15.53.22s.41.14.63.21c.28.09.57.2.87.33.29.13.56.28.79.47.23.18.43.41.58.67.15.26.23.58.23.96v.03c0,.46-.08.85-.24,1.18h0Z"/>
      <path class="cls-1" d="m143.81,144.29c-.16-.04-.35-.05-.55-.05-.56,0-.84.29-.84.88v.32h1.87v1.89h-1.84v6.19h-2.32v-6.19h-.96v-1.91h.96v-.52c0-.9.21-1.57.65-1.99.43-.42,1.06-.63,1.88-.63.37,0,.68.02.94.06.26.04.49.1.71.17v1.92c-.17-.06-.34-.11-.5-.14h0Z"/>
      <path class="cls-1" d="m153.66,151.11c-.22.51-.53.96-.93,1.35-.4.39-.86.69-1.4.91-.54.22-1.13.34-1.77.34s-1.21-.11-1.75-.33c-.54-.22-1-.52-1.4-.9-.39-.38-.7-.83-.92-1.34s-.34-1.06-.34-1.65v-.03c0-.59.11-1.14.34-1.65.22-.51.53-.96.93-1.35.4-.39.86-.69,1.4-.91s1.13-.34,1.77-.34,1.21.11,1.75.33,1,.52,1.39.9c.39.38.7.83.92,1.34.22.51.33,1.07.33,1.65v.03c0,.59-.11,1.14-.33,1.66h0Zm-1.95-1.65c0-.31-.05-.59-.15-.86-.1-.27-.25-.51-.44-.72-.19-.21-.42-.37-.69-.5-.26-.12-.55-.18-.87-.18-.34,0-.63.06-.89.18-.26.12-.48.28-.66.48-.18.2-.32.44-.42.71-.1.27-.15.56-.15.86v.03c0,.31.05.59.15.86.1.27.25.51.44.72.19.21.42.37.68.5.26.12.55.18.88.18s.63-.06.89-.18c.26-.12.48-.28.66-.48.18-.2.32-.44.42-.71.1-.27.15-.56.15-.86v-.03Z"/>
      <path class="cls-1" d="m160.47,147.63c-.77,0-1.38.23-1.82.7-.44.47-.66,1.2-.66,2.18v3.02h-2.32v-8.18h2.32v1.65c.23-.56.55-1.01.96-1.34.41-.34.96-.49,1.65-.46v2.43h-.12,0Z"/>
      <path class="cls-1" d="m165.82,153.54c-.3.08-.63.13-1.02.13-.36,0-.68-.04-.97-.12-.29-.07-.54-.21-.75-.4-.21-.19-.37-.45-.49-.76-.12-.31-.18-.7-.18-1.18v-3.87h-.98v-1.98h.98v-2.09h2.32v2.09h1.92v1.98h-1.92v3.49c0,.53.25.79.75.79.41,0,.79-.1,1.14-.29v1.86c-.24.14-.51.26-.81.34h0Z"/>
    </g>
  </g>
</svg>