<?xml version="1.0" encoding="UTF-8"?>
<svg id="Calque_2" data-name="Calque 2" xmlns="http://www.w3.org/2000/svg" viewBox="0 0 171 85.01">
  <defs>
    <style>
      .cls-1 {
        fill: #fff;
      }

      .cls-2 {
        fill: #c8444e;
      }

      .cls-3 {
        fill: #f8db09;
      }

      .cls-4 {
        fill: #d8851c;
      }

      .cls-5 {
        fill: #c7dae6;
      }

      .cls-6 {
        fill: #208bad;
      }

      .cls-7 {
        fill: #4baee7;
      }

      .cls-8 {
        fill: #b5c832;
      }

      .cls-9 {
        fill: #494691;
      }

      .cls-10 {
        fill: #7a3887;
      }
    </style>
  </defs>
  <g id="Calque_1-2" data-name="Calque 1">
    <g>
      <path class="cls-1" d="m5.94,9.08c-3.33,0-5.94,2.63-5.94,5.99v53.16c0,3.2,2.62,5.81,5.83,5.81h2.6l.13,5.57.12,5.39,4.35-3.21,10.51-7.75h26.92c3.22,0,5.84-2.61,5.84-5.81V21.25c0-3.13-2.49-5.69-5.6-5.81L6.82,9.14h-.02c-.28-.04-.57-.06-.85-.06"/>
      <path class="cls-6" d="m5.94,11.87c.16,0,.32.01.48.03l44.03,6.32c1.67,0,3.03,1.35,3.03,3.03v46.98c0,1.67-1.36,3.02-3.03,3.02h-27.84l-11.26,8.3-.19-8.3h-5.34c-1.67,0-3.03-1.35-3.03-3.02V15.06c0-1.85,1.37-3.19,3.14-3.19Z"/>
      <path class="cls-6" d="m59.8,71.39h104.89c1.94,0,3.51-1.56,3.51-3.49V6.29c0-2.13-1.89-3.76-4-3.45l-104.89,14.96c-1.73.25-3.01,1.72-3.01,3.45v46.66c0,1.93,1.57,3.49,3.51,3.49"/>
      <path class="cls-1" d="m164.7,2.8c1.9,0,3.5,1.54,3.5,3.49v61.62c0,1.93-1.57,3.49-3.51,3.49H59.8c-1.94,0-3.51-1.56-3.51-3.49V21.25c0-1.74,1.28-3.21,3.01-3.45L164.19,2.83c.17-.02.34-.04.51-.04m0-2.79c-.3,0-.6.02-.9.06L58.9,15.03c-3.09.44-5.42,3.11-5.42,6.22v46.66c0,3.46,2.83,6.28,6.31,6.28h104.89c3.48,0,6.31-2.82,6.31-6.28V6.29C171,2.82,168.17,0,164.69,0"/>
      <path class="cls-1" d="m39.4,36.08c.89-1.58,1.4-4.09,1.22-6.53-.18-2.45-1.26-3.42-2.29-3.59-1.04-.17-4.86-.47-9.82,11.38-4.96,11.85-2.49,15.96,1.18,16.22,1.05.02,2.73-.21,3.93-1.89-.69,1.92-.88,3.51-.14,4.78.89-.92,1.47-.89,1.77-1.52.3-.63,3.72-13.53,3.72-13.53.36-.03.69-.45.9-.87.21-.41,1.08-1.79,1.08-1.79-3.18.48-7.81,1.73-8.02,2-.21.27-.69,1.35-.63,1.98.06.62,1.38.51,2.14.36.75-.15,2.26-.95,2.26-.95-1.17,3.26-3.25,10.05-6.79,9.78-3.55-.27-.9-8.23,1.14-13.14,2.04-4.91,5.25-10.08,6.37-9.85,1.89.39,0,6.43,2,7.15"/>
      <path class="cls-1" d="m8.17,63.69c-.05.02-.28.06-.56.06-.43,0-1.01-.21-1.01-1.09v-.52c0-.9.59-1.09,1.01-1.09.28,0,.51.05.56.06.05,0,.08.02.08.08v.24s-.02.08-.07.08h-.02c-.12-.01-.36-.03-.55-.03-.3,0-.52.16-.52.67v.52c0,.49.21.66.52.66.19,0,.43-.02.55-.02h.02s.07.03.07.08v.23c0,.05-.03.07-.08.08"/>
      <path class="cls-1" d="m9.54,63.75c-.59,0-1.02-.33-1.02-1.11v-.48c0-.78.43-1.11,1.02-1.11s1.01.33,1.01,1.11v.48c0,.79-.43,1.11-1.01,1.11Zm.52-1.59c0-.46-.17-.68-.52-.68s-.52.22-.52.68v.48c0,.47.17.68.52.68s.52-.21.52-.68v-.48Z"/>
      <path class="cls-1" d="m12.89,63.72h-.36c-.09,0-.16,0-.21-.12l-.79-1.73s-.02-.03-.02-.03c-.02,0-.03,0-.03.03v1.79s-.03.07-.07.07h-.3s-.07-.03-.07-.07v-2.43c0-.08.06-.15.13-.15h.39c.07,0,.11.02.16.12l.83,1.83s.02.02.03.02c0,0,.02-.01.02-.03v-1.87s.03-.07.07-.07h.31s.07.04.07.07v2.43c0,.08-.07.14-.15.14"/>
      <path class="cls-1" d="m14.24,63.75c-.27,0-.47-.03-.63-.07-.04,0-.07-.03-.07-.07v-.26s.03-.07.07-.07c.15.02.51.03.64.03.32,0,.41-.12.41-.32,0-.13-.06-.21-.3-.34l-.48-.29c-.33-.19-.42-.4-.42-.65,0-.39.23-.68.9-.68.24,0,.56.04.68.07.03,0,.06.03.06.07v.26s-.02.06-.06.06c-.24-.02-.48-.04-.71-.04-.26,0-.37.09-.37.26,0,.11.06.18.29.31l.43.24c.4.22.5.44.5.72,0,.36-.22.75-.93.75"/>
      <path class="cls-1" d="m17.1,63.7c-.11.01-.25.05-.68.05-.47,0-.82-.12-.82-.73v-1.24c0-.6.36-.73.82-.73.42,0,.57.03.68.05.06.01.07.02.07.08v.22s-.03.07-.07.07h-.73c-.21,0-.28.08-.28.31v.38h.97s.07.04.07.07v.26s-.04.07-.07.07h-.97v.46c0,.23.08.3.28.3h.73s.07.03.07.08v.23s-.02.06-.07.08"/>
      <path class="cls-1" d="m18.08,63.72h-.35s-.08-.03-.08-.07v-2.5s.04-.07.08-.07h.35s.07.04.07.07v2.5s-.03.07-.07.07Z"/>
      <path class="cls-1" d="m20.13,63.7c-.11.02-.42.05-.61.05-.46,0-.82-.12-.82-.73v-1.88s.03-.07.07-.07h.36s.07.04.07.07v1.88c0,.23.07.3.28.3h.66s.07.03.07.08v.23s-.02.06-.07.08"/>
      <path class="cls-1" d="m22.23,63.75c-.26,0-.6-.03-.7-.04-.06-.01-.1-.04-.1-.11v-2.39c0-.07.03-.1.1-.11.1-.02.45-.05.7-.05.72,0,1.12.38,1.12,1.09v.52c0,.7-.41,1.09-1.12,1.09m.63-1.61c0-.54-.27-.67-.63-.67h-.3v1.85c.07,0,.17,0,.3,0,.35,0,.63-.13.63-.66v-.52h0Z"/>
      <path class="cls-1" d="m25.32,63.7c-.12.01-.26.05-.68.05-.47,0-.82-.12-.82-.73v-1.24c0-.6.36-.73.82-.73.43,0,.57.03.68.05.05.01.07.02.07.08v.22s-.04.07-.07.07h-.73c-.2,0-.28.08-.28.31v.38h.97s.08.04.08.07v.26s-.04.07-.08.07h-.97v.46c0,.23.08.3.28.3h.73s.07.03.07.08v.23s-.02.06-.07.08m-.17-3.29l-.42.44s-.04.04-.08.04h-.31s-.03-.01-.03-.02,0-.02.02-.03l.34-.43s.05-.05.09-.05h.38s.04.02.04.03c0,0,0,.02-.02.03"/>
      <path class="cls-1" d="m26.69,62.73c-.1,0-.24,0-.32,0v.93s-.03.07-.07.07h-.36s-.07-.03-.07-.07v-2.45c0-.07.04-.09.11-.1.19-.03.44-.05.7-.05.55,0,1.02.19,1.02.83v.03c0,.63-.47.83-1.02.83m.53-.86c0-.3-.18-.41-.53-.41-.08,0-.25,0-.32,0v.85c.06,0,.25.01.32.01.39,0,.53-.15.53-.43v-.03h0Z"/>
      <path class="cls-1" d="m29.82,63.72h-.38s-.06-.03-.07-.05l-.16-.67h-.82l-.17.67s-.04.05-.07.05h-.38s-.07-.02-.07-.05v-.02l.59-2.23c.09-.34.34-.37.5-.37s.42.03.5.37l.58,2.23v.02s-.02.06-.06.06Zm-.96-2.2s-.02-.05-.06-.05-.05,0-.06.05l-.25,1.06h.63l-.26-1.06Z"/>
      <path class="cls-1" d="m32.1,63.72h-.43s-.05-.03-.07-.07l-.51-.95h-.06c-.09,0-.23-.01-.32-.02v.97s-.03.07-.07.07h-.36s-.07-.03-.07-.07v-2.45c0-.07.04-.09.11-.1.19-.03.44-.05.7-.05.55,0,1.03.19,1.03.81v.03c0,.38-.19.62-.48.73l.56,1.04s0,.02,0,.02c0,.03-.02.04-.05.04m-.53-1.86c0-.27-.18-.39-.54-.39-.08,0-.25,0-.32.02v.8c.05,0,.25.01.32.01.37,0,.54-.1.54-.41v-.03h0Z"/>
      <path class="cls-1" d="m34.06,61.49h-.62v2.16s-.03.07-.07.07h-.35s-.07-.03-.07-.07v-2.16h-.63s-.08-.02-.08-.06v-.28s.04-.07.08-.07h1.74s.07.04.07.07v.28s-.03.06-.07.06Z"/>
      <path class="cls-1" d="m35.91,63.7c-.11.01-.26.05-.68.05-.47,0-.82-.12-.82-.73v-1.24c0-.6.35-.73.82-.73.43,0,.57.03.68.05.06.01.07.02.07.08v.22s-.03.07-.07.07h-.73c-.21,0-.28.08-.28.31v.38h.97s.07.04.07.07v.26s-.03.07-.07.07h-.97v.46c0,.23.08.3.28.3h.73s.07.03.07.08v.23s-.01.06-.07.08"/>
      <path class="cls-1" d="m38.69,63.72h-.36s-.06-.03-.06-.07v-1.65s0-.04,0-.04c0,0-.01,0-.02.02l-.35.68s-.06.06-.11.06h-.36s-.09-.02-.12-.06l-.35-.68v-.02s-.03,0-.03.04v1.65s-.02.07-.06.07h-.36s-.06-.01-.06-.05v-2.45c0-.08.06-.15.14-.15h.29c.06,0,.11.04.14.08l.54,1.1s.02.05.02.05c.03,0,.04-.02.06-.05l.53-1.1s.08-.08.14-.08h.29c.08,0,.14.07.14.15v2.45s-.02.05-.06.05"/>
      <path class="cls-1" d="m40.8,63.7c-.12.01-.26.05-.68.05-.46,0-.83-.12-.83-.73v-1.24c0-.6.36-.73.83-.73.43,0,.57.03.68.05.05.01.07.02.07.08v.22s-.04.07-.07.07h-.73c-.21,0-.28.08-.28.31v.38h.97s.06.04.06.07v.26s-.02.07-.06.07h-.97v.46c0,.23.08.3.28.3h.73s.07.03.07.08v.23s-.02.06-.07.08"/>
      <path class="cls-1" d="m43.21,63.72h-.36c-.09,0-.17,0-.22-.12l-.79-1.73s-.02-.03-.04-.03c0,0-.01,0-.01.03v1.79s-.03.07-.07.07h-.3s-.07-.03-.07-.07v-2.43c0-.08.06-.15.14-.15h.39c.08,0,.12.02.15.12l.84,1.83.02.02s.03-.01.03-.03v-1.87s.02-.07.06-.07h.31s.07.04.07.07v2.43c0,.08-.07.14-.15.14"/>
      <path class="cls-1" d="m45.42,61.49h-.62v2.16s-.03.07-.07.07h-.35s-.07-.03-.07-.07v-2.16h-.63s-.07-.02-.07-.06v-.28s.03-.07.07-.07h1.74s.08.04.08.07v.28s-.03.06-.08.06Z"/>
      <path class="cls-1" d="m47.49,63.72h-.38s-.06-.03-.07-.05l-.17-.67h-.82l-.16.67s-.03.05-.07.05h-.38s-.06-.02-.06-.05v-.02l.58-2.23c.09-.34.34-.37.5-.37s.41.03.5.37l.59,2.23v.02s-.02.06-.06.06m-.96-2.2s-.02-.05-.06-.05c-.04,0-.05,0-.05.05l-.27,1.06h.64l-.26-1.06Z"/>
      <path class="cls-1" d="m49.26,63.7c-.1.02-.42.05-.6.05-.47,0-.82-.12-.82-.73v-1.88s.03-.07.06-.07h.35s.07.04.07.07v1.88c0,.23.07.3.28.3h.66s.07.03.07.08v.23s-.02.06-.07.08"/>
      <path class="cls-1" d="m9.45,68.18h-.49c-.05,0-.09-.05-.09-.09v-1.51h-1.41v1.51c0,.05-.04.09-.1.09h-.49c-.06,0-.1-.05-.1-.09v-3.46c0-.06.05-.1.1-.1h.49c.06,0,.1.04.1.1v1.36h1.41v-1.36c0-.06.04-.1.09-.1h.49c.06,0,.1.04.1.1v3.46c0,.05-.04.09-.1.09Z"/>
      <path class="cls-1" d="m12.68,68.18h-.52s-.08-.04-.09-.09l-.23-.93h-1.14l-.23.93s-.05.09-.09.09h-.52c-.06,0-.09-.03-.09-.09,0,0,0,0,0-.02l.81-3.08c.12-.46.48-.51.69-.51s.57.04.69.51l.81,3.08s0,.02,0,.02c0,.05-.05.09-.09.09m-1.33-3.04c0-.06-.03-.08-.08-.08-.05,0-.06.02-.08.08l-.35,1.46h.87l-.36-1.46h0Z"/>
      <path class="cls-1" d="m14.23,68.22c-.8,0-1.36-.34-1.36-1.39v-2.21c0-.06.05-.1.1-.1h.49c.06,0,.11.04.11.1v2.21c0,.56.14.83.67.83s.67-.27.67-.83v-2.21c0-.06.04-.1.1-.1h.49c.06,0,.09.04.09.1v2.21c0,1.05-.56,1.39-1.35,1.39"/>
      <path class="cls-1" d="m18.32,65.09h-.86v2.99s-.05.09-.1.09h-.49s-.1-.05-.1-.09v-2.99h-.86c-.06,0-.1-.03-.1-.09v-.39c0-.06.04-.1.1-.1h2.41c.06,0,.1.04.1.1v.39c0,.05-.04.09-.1.09Z"/>
      <path class="cls-1" d="m20.62,68.15c-.16.02-.35.07-.94.07-.64,0-1.14-.18-1.14-1.01v-1.72c0-.83.5-1.01,1.14-1.01.59,0,.78.04.94.07.08,0,.1.03.1.1v.31c0,.06-.05.1-.1.1h-1c-.29,0-.39.1-.39.42v.53h1.34s.1.05.1.09v.36c0,.05-.05.09-.1.09h-1.34v.64c0,.32.1.42.39.42h1c.06,0,.1.05.1.09v.32c0,.07-.02.09-.1.11"/>
      <path class="cls-1" d="m22.05,66.91h-.97c-.06,0-.1-.04-.1-.09v-.31c0-.05.05-.09.1-.09h.97c.06,0,.09.04.09.09v.31c0,.05-.04.09-.09.09Z"/>
      <path class="cls-1" d="m24.78,68.13c-.24.05-.57.09-1.08.09s-1.33-.35-1.33-1.51v-.71c0-1.16.75-1.51,1.33-1.51.48,0,.9.06,1.07.09.06,0,.09.03.09.1v.33c0,.07-.02.1-.09.1h-.02c-.23-.02-.57-.04-1.05-.04-.33,0-.65.23-.65.93v.71c0,.7.35.93.64.93.18,0,.33,0,.49-.02v-1.25c0-.05.04-.1.09-.1h.5s.09.05.09.1v1.65c0,.07-.03.11-.09.12"/>
      <path class="cls-1" d="m28.01,68.18h-.53s-.09-.04-.09-.09l-.23-.93h-1.13l-.23.93s-.05.09-.09.09h-.53c-.05,0-.09-.03-.09-.09,0,0,0,0,0-.02l.81-3.08c.12-.46.47-.51.68-.51s.57.04.69.51l.81,3.08s0,.02,0,.02c0,.05-.04.09-.09.09m-1.33-3.04c-.02-.06-.04-.08-.08-.08s-.06.02-.08.08l-.35,1.46h.87l-.35-1.46Z"/>
      <path class="cls-1" d="m30.93,68.18h-.6c-.06,0-.07-.05-.1-.09l-.71-1.32h-.07c-.13,0-.33-.02-.44-.02v1.34c0,.05-.04.09-.09.09h-.5c-.06,0-.1-.05-.1-.09v-3.38c0-.1.06-.14.16-.15.26-.04.61-.06.98-.06.76,0,1.42.27,1.42,1.11v.04c0,.52-.26.85-.66,1.01l.77,1.44s.01.03.01.04c0,.04-.02.06-.06.06m-.74-2.58c0-.37-.24-.53-.74-.53-.1,0-.35.01-.44.02v1.1c.08,0,.36.02.44.02.51,0,.74-.13.74-.57v-.04Z"/>
      <path class="cls-1" d="m32.51,68.22c-.81,0-1.41-.45-1.41-1.54v-.67c0-1.08.59-1.53,1.41-1.53s1.41.45,1.41,1.53v.67c0,1.08-.59,1.54-1.41,1.54Zm.72-2.2c0-.65-.23-.94-.72-.94s-.71.29-.71.94v.67c0,.65.23.94.71.94s.72-.3.72-.94v-.67Z"/>
      <path class="cls-1" d="m36.89,68.18h-.5c-.12,0-.22,0-.3-.18l-1.1-2.39s-.03-.04-.03-.04c-.02,0-.04.02-.04.04v2.48c0,.05-.03.09-.09.09h-.42c-.06,0-.1-.05-.1-.09v-3.36c0-.11.09-.19.2-.19h.53c.11,0,.16.03.22.16l1.15,2.53s.02.04.02.04c.03,0,.04-.02.04-.05v-2.58c0-.06.04-.1.09-.1h.43s.09.04.09.1v3.37c0,.1-.09.19-.2.19"/>
      <path class="cls-1" d="m40.16,68.18h-.5c-.12,0-.23,0-.3-.18l-1.1-2.39s-.03-.04-.04-.04c0,0-.02.02-.02.04v2.48c0,.05-.04.09-.1.09h-.42c-.06,0-.1-.05-.1-.09v-3.36c0-.11.09-.19.2-.19h.54c.1,0,.16.03.21.16l1.15,2.53s.03.04.05.04c0,0,.02-.02.02-.05v-2.58c0-.06.04-.1.09-.1h.43c.05,0,.09.04.09.1v3.37c0,.1-.09.19-.2.19"/>
      <path class="cls-1" d="m42.93,68.15c-.16.02-.34.07-.94.07-.65,0-1.14-.18-1.14-1.01v-1.72c0-.83.5-1.01,1.14-1.01.59,0,.77.04.94.07.08,0,.1.03.1.1v.31c0,.06-.04.1-.1.1h-1c-.29,0-.39.1-.39.42v.53h1.34c.05,0,.09.05.09.09v.36c0,.05-.04.09-.09.09h-1.34v.64c0,.32.1.42.39.42h1c.06,0,.1.05.1.09v.32c0,.07-.02.09-.1.11"/>
      <path class="cls-10" d="m12.21,57.44h-5.43v1.88h5.43v-1.88Z"/>
      <path class="cls-9" d="m18.43,57.44h-5.43v1.88h5.43v-1.88Z"/>
      <path class="cls-7" d="m24.65,57.44h-5.43v1.88h5.43v-1.88Z"/>
      <path class="cls-8" d="m30.87,57.44h-5.43v1.88h5.43v-1.88Z"/>
      <path class="cls-3" d="m37.09,57.44h-5.43v1.88h5.43v-1.88Z"/>
      <path class="cls-4" d="m43.31,57.44h-5.44v1.88h5.44v-1.88Z"/>
      <path class="cls-2" d="m49.53,57.44h-5.43v1.88h5.43v-1.88Z"/>
      <path class="cls-5" d="m43.94,68.18h-.44c-.06,0-.1-.05-.1-.09v-.55c0-.06.04-.09.1-.09h.44c.06,0,.1.04.1.09v.55c0,.05-.04.09-.1.09Z"/>
      <path class="cls-5" d="m46.56,65.07h-1.01c-.29,0-.39.1-.39.42v.53h1.34c.06,0,.1.05.1.09v.36c0,.05-.04.09-.1.09h-1.34v1.51s-.04.09-.1.09h-.48c-.05,0-.09-.05-.09-.09v-2.59c0-.83.5-1.01,1.14-1.01.59,0,.78.04.94.07.08,0,.1.03.1.1v.31c0,.06-.05.1-.1.1"/>
      <path class="cls-5" d="m49.69,68.18h-.6c-.06,0-.08-.05-.1-.09l-.71-1.32h-.07c-.13,0-.33-.02-.44-.02v1.34c0,.05-.04.09-.09.09h-.49c-.06,0-.1-.05-.1-.09v-3.38c0-.1.06-.14.15-.15.26-.04.61-.06.97-.06.76,0,1.42.27,1.42,1.11v.04c0,.52-.26.85-.66,1.01l.77,1.44s.01.03.01.04c0,.04-.02.06-.06.06m-.74-2.58c0-.37-.24-.53-.74-.53-.1,0-.35.01-.44.02v1.1c.08,0,.36.02.44.02.5,0,.74-.13.74-.57v-.04Z"/>
      <path class="cls-1" d="m40.02,22.62c-1.96.24-4.61.76-7.42,1.39,1.5-4.13,3.4-9.26,3.64-9.77.29-.66-.7-.52-1.18.16-1.85,2.64-3.75,6.35-5.52,10.32-1.56.37-3.11.76-4.58,1.14,1.07-3.18,1.9-6.01,2.41-7.84,0,0-.58-.54-.84-.8-.28-.26-.63-.28-.84-.22-.21.06-.49.1-1.08.48-.09.12-.27.5-.45,1.2-.71,2.96-1.41,5.58-2.14,7.95-3.42.91-5.87,1.6-5.87,1.6-.65-.83-3.39-1.79-3.27-.6.12,1.2.12,1.35.15,1.88.04.6,1.17,1.53,4.08,1.11.71-.1,2.1-.4,3.9-.85-2.04,6.04-4.15,10.57-6.37,15.79,3.44-2.48,6.75-9.78,9.21-16.52,1.36-.37,2.84-.79,4.34-1.23-1.32,3.12-2.55,6.28-3.62,9.06-.63,1.43-.66,2.51-.45,3.11.19.52.39,1.11,1.62,1.74.34-1.82,4.29-10.57,5.71-14.53.05-.14.1-.29.16-.44,2.7-.86,5.32-1.79,7.42-2.7l.99-1.43h0Z"/>
      <path class="cls-1" d="m70.15,24.3h5.16l8.22,19.37h-5.74l-1.38-3.46h-7.48l-1.38,3.46h-5.6l8.2-19.37Zm4.69,11.76l-2.15-5.44-2.18,5.44h4.33,0Z"/>
      <path class="cls-1" d="m83.04,46.41l1.68-3.46c1.6.88,3.2,1.4,5.21,1.4,2.6,0,3.89-1.29,3.89-3.65v-.58c-1.05,1.21-2.43,2.22-4.58,2.22-3.67,0-6.65-2.64-6.65-6.89v-.05c0-4.28,3.04-6.92,6.46-6.92,2.26,0,3.59.91,4.69,2.09v-1.76h5.24v11.29c0,2.72-.61,4.64-1.93,5.93-1.35,1.37-3.45,2.09-6.57,2.09-2.87,0-5.3-.6-7.45-1.7m10.82-10.96v-.05c0-1.65-1.3-2.88-3.06-2.88s-3.06,1.24-3.06,2.91v.05c0,1.65,1.27,2.86,3.06,2.86s3.06-1.24,3.06-2.89Z"/>
      <path class="cls-1" d="m100.56,23.61h5.44v3.84h-5.44v-3.84Zm.11,5.19h5.22v14.86h-5.22v-14.86Z"/>
      <path class="cls-1" d="m107.57,28.8h5.24v2.99c.86-2.03,2.23-3.35,4.72-3.24v5.49h-.44c-2.73,0-4.28,1.57-4.28,4.97v4.64h-5.24v-14.86Z"/>
      <path class="cls-1" d="m62.22,59.4v-.04c0-2.03,1.54-3.06,3.83-3.06.9,0,1.79.16,2.35.38v-.16c0-1.02-.63-1.6-1.95-1.6-1.03,0-1.82.22-2.71.54l-.7-2.39c1.1-.45,2.27-.76,3.95-.76s2.94.41,3.72,1.19c.74.72,1.05,1.72,1.05,3.09v5.59h-3.38v-1.02c-.69.74-1.61,1.24-2.89,1.24-1.86,0-3.27-1.08-3.27-3Zm6.21-.74v-.45c-.36-.14-.85-.25-1.36-.25-.99,0-1.57.47-1.57,1.2v.04c0,.66.51,1.06,1.21,1.06,1.01,0,1.72-.63,1.72-1.6Z"/>
      <path class="cls-1" d="m71.79,52.47h3.61l1.88,5.68,1.9-5.68h3.54l-3.9,9.8h-3.12l-3.9-9.8Z"/>
      <path class="cls-1" d="m82.37,57.37v-.04c0-2.84,2.04-5.09,4.93-5.09,3.36,0,4.91,2.46,4.91,5.32,0,.22,0,.47-.02.7h-6.54c.27,1.06,1.05,1.6,2.11,1.6.83,0,1.46-.3,2.17-.99l1.9,1.56c-.94,1.19-2.29,1.98-4.23,1.98-3.07,0-5.24-2.05-5.24-5.05m6.64-.84c-.13-1.08-.78-1.76-1.72-1.76s-1.52.68-1.7,1.76h3.42Z"/>
      <path class="cls-1" d="m92.84,57.37v-.04c0-2.75,2.13-5.07,5.22-5.07,2,0,3.34.86,4.17,2.16l-2.31,1.73c-.49-.63-1.01-1.02-1.82-1.02-1.12,0-1.93.99-1.93,2.18v.04c0,1.26.8,2.21,1.95,2.21.83,0,1.36-.38,1.88-1.01l2.29,1.65c-.9,1.33-2.2,2.23-4.33,2.23-2.96,0-5.11-2.3-5.11-5.05"/>
      <path class="cls-1" d="m106.81,52.47h3.61l1.88,5.68,1.9-5.68h3.54l-3.9,9.8h-3.12l-3.9-9.8Z"/>
      <path class="cls-1" d="m117.4,57.37v-.04c0-2.77,2.27-5.09,5.4-5.09s5.38,2.28,5.38,5.05v.04c0,2.77-2.27,5.09-5.42,5.09s-5.36-2.28-5.36-5.05Zm7.46,0v-.04c0-1.2-.88-2.21-2.09-2.21s-2.04.99-2.04,2.18v.04c0,1.19.87,2.19,2.08,2.19s2.06-.99,2.06-2.16"/>
      <path class="cls-1" d="m129.08,58.81v-6.35h3.43v5.27c0,1.06.56,1.64,1.39,1.64s1.45-.58,1.45-1.64v-5.27h3.41v9.72h-3.41v-1.35c-.63.81-1.53,1.56-2.93,1.56-2.08,0-3.34-1.38-3.34-3.59"/>
      <path class="cls-1" d="m139.41,60.95l1.28-2.05c1.12.74,2.33,1.11,3.34,1.11.6,0,.88-.18.88-.52v-.04c0-.4-.56-.56-1.59-.84-1.93-.5-3.47-1.15-3.47-3.09v-.04c0-2.07,1.66-3.22,3.92-3.22,1.43,0,2.91.41,4.03,1.13l-1.17,2.16c-1.01-.58-2.11-.92-2.89-.92-.52,0-.8.2-.8.48v.04c0,.38.58.56,1.59.86,1.93.54,3.47,1.2,3.47,3.09v.04c0,2.14-1.61,3.25-3.99,3.25-1.64,0-3.27-.48-4.61-1.46Z"/>
      <path class="cls-1" d="m153.53,51.14v-1.53h3.9v1.53l-1.05,6.96h-1.79l-1.06-6.96h0Zm.18,8h3.56v3.06h-3.56v-3.06Z"/>
    </g>
  </g>
</svg>