<?xml version="1.0" encoding="UTF-8"?>
<svg id="Calque_2" data-name="Calque 2" xmlns="http://www.w3.org/2000/svg" viewBox="0 0 1814.34 363.94">
  <defs>
    <style>
      .cls-1 {
        fill: #fff;
      }

      .cls-2 {
        fill: #ec641d;
      }
    </style>
  </defs>
  <g id="Calque_1-2" data-name="Calque 1">
    <g>
      <g>
        <path class="cls-1" d="m448.6,1.33h85.11c23.67,0,42.03,6.65,54.26,18.88,10.37,10.37,15.96,25,15.96,42.56v.53c0,30.06-16.22,48.94-39.9,57.72l45.48,66.49h-25.04c-14.27,0-27.6-7.12-35.54-18.97l-27.19-40.61h-32.18v59.58h-40.96V1.33Zm82.45,90.43c19.95,0,31.39-10.64,31.39-26.33v-.53c0-17.55-12.23-26.6-32.18-26.6h-40.7v53.46h41.49Z"/>
        <path class="cls-1" d="m651.58,1.33h140.44v10.8c0,14.16-11.48,25.64-25.64,25.64h-74.1v37.77h72.41v36.44h-72.41v39.1h75.43c14.16,0,25.64,11.48,25.64,25.64v10.8h-141.77V1.33Z"/>
        <path class="cls-1" d="m842.12,1.33h44.15l48.94,78.73L984.15,1.33h44.15v186.19h-15.06c-14.16,0-25.64-11.48-25.64-25.64v-95.91l-52.4,79.53h-1.06l-51.87-78.73v95.12c0,14.16-11.48,25.64-25.64,25.64h-14.52V1.33Z"/>
        <path class="cls-1" d="m1084.22,1.33h76.07c44.42,0,71.28,26.33,71.28,64.37v.53c0,43.09-33.51,65.43-75.27,65.43h-31.12v30.22c0,14.16-11.48,25.64-25.64,25.64h-15.32V1.33Zm73.41,93.89c20.48,0,32.45-12.23,32.45-28.19v-.53c0-18.35-12.77-28.19-33.25-28.19h-31.65v56.92h32.45Z"/>
        <path class="cls-1" d="m1318.35,0h37.77l79.8,187.52h-25.59c-10.42,0-19.81-6.31-23.74-15.96l-10.52-25.8h-78.73l-10.52,25.8c-3.93,9.65-13.32,15.96-23.74,15.96h-24.52L1318.35,0Zm43.09,109.58l-24.74-60.38-24.74,60.38h49.47Z"/>
        <path class="cls-1" d="m1472.34,1.33h85.11c23.67,0,42.02,6.65,54.26,18.88,10.37,10.37,15.96,25,15.96,42.56v.53c0,30.06-16.23,48.94-39.9,57.72l45.48,66.49h-25.63c-13.9,0-26.88-6.93-34.62-18.48l-27.52-41.1h-32.18v33.94c0,14.16-11.48,25.64-25.64,25.64h-15.32V1.33Zm82.45,90.43c19.95,0,31.39-10.64,31.39-26.33v-.53c0-17.55-12.24-26.6-32.18-26.6h-40.7v53.46h41.49Z"/>
        <path class="cls-1" d="m1716.73,39.1h-56.65V1.33h154.27v37.77h-56.65v148.42h-15.29c-14.18,0-25.67-11.49-25.67-25.67V39.1Z"/>
      </g>
      <g>
        <path class="cls-1" d="m450.9,284.77h18.48l20.49,32.96,20.49-32.96h18.48v77.95h-17.04v-50.89l-21.94,33.29h-.44l-21.71-32.96v50.55h-16.81v-77.95Z"/>
        <path class="cls-1" d="m574.17,329.31v-44.54h17.15v44.09c0,12.69,6.35,19.26,16.82,19.26s16.81-6.35,16.81-18.71v-44.65h17.15v43.99c0,23.6-13.25,35.18-34.18,35.18s-33.74-11.69-33.74-34.63Z"/>
        <path class="cls-1" d="m705.56,300.58h-23.72v-15.81h64.59v15.81h-23.72v62.13h-17.15v-62.13Z"/>
        <path class="cls-1" d="m786.18,329.31v-44.54h17.15v44.09c0,12.69,6.35,19.26,16.82,19.26s16.81-6.35,16.81-18.71v-44.65h17.15v43.99c0,23.6-13.25,35.18-34.19,35.18s-33.74-11.69-33.74-34.63Z"/>
        <path class="cls-1" d="m899.42,284.77h58.79v15.26h-41.76v15.81h36.75v15.25h-36.75v16.37h42.31v15.25h-59.35v-77.95Z"/>
        <path class="cls-1" d="m1001.87,284.77h17.15v62.36h38.86v15.59h-56.01v-77.95Z"/>
        <path class="cls-1" d="m1098.62,284.77h17.15v62.36h38.86v15.59h-56.01v-77.95Z"/>
        <path class="cls-1" d="m1195.39,284.77h58.79v15.26h-41.76v15.81h36.75v15.25h-36.75v16.37h42.31v15.25h-59.35v-77.95Z"/>
      </g>
      <g>
        <path class="cls-2" d="m111.24,250.94L0,362.71l41.06-.1c12.46-.03,24.16-4.91,32.95-13.74l77.75-78.11c10.97-11.03,10.93-28.86-.09-39.83l-66.07-65.76c-1.84-1.83-3.43-3.96-4.35-6.39-3.08-8.1-1.19-16.47,4.43-22.12l60.58-60.87c9.78-9.83,15.26-23.14,15.23-37.01l-.09-38.73L10.99,151.16l100.25,99.78Z"/>
        <path class="cls-2" d="m227.89,250.64l111.77,111.25-41.06.1c-12.46.03-24.19-4.8-33.01-13.59l-78.11-77.74c-11.03-10.97-11.07-28.81-.09-39.83l65.76-66.07c1.83-1.84,3.41-3.97,4.32-6.41,3.05-8.11,1.11-16.48-4.53-22.1l-60.87-60.58c-9.83-9.78-15.37-23.07-15.4-36.93l-.09-38.73,151.09,150.39-99.78,100.25Z"/>
      </g>
    </g>
  </g>
</svg>