<svg width="19" height="19" viewBox="0 0 19 19" fill="none" xmlns="http://www.w3.org/2000/svg">
<path d="M10.7906 4.77637H8.99079V8.37634H5.3907V10.1764H8.99079V13.7764H10.7906V10.1764H14.3907V8.37634H10.7906V4.77637ZM9.8907 0.276367C8.11066 0.276367 6.37049 0.804158 4.89045 1.79309C3.41041 2.78202 2.25694 4.18774 1.57575 5.83228C0.894566 7.47681 0.71628 9.2864 1.06355 11.0322C1.41081 12.7781 2.26801 14.3817 3.52668 15.6404C4.78535 16.8991 6.38901 17.7561 8.13484 18.1034C9.88066 18.4507 11.6903 18.2725 13.3348 17.5913C14.9793 16.9101 16.3849 15.7565 17.3738 14.2765C18.3628 12.7964 18.8907 11.0564 18.8907 9.27637C18.8907 6.88942 17.9425 4.60018 16.2547 2.91235C14.5669 1.22453 12.2776 0.276367 9.8907 0.276367ZM9.8907 16.4763C8.46667 16.4763 7.07473 16.0541 5.8907 15.2629C4.70666 14.4718 3.78379 13.3474 3.23884 12.0317C2.69389 10.7161 2.55111 9.26837 2.82893 7.8717C3.10674 6.47504 3.79269 5.19212 4.79963 4.18518C5.80657 3.17824 7.08949 2.49254 8.48615 2.21472C9.88282 1.93691 11.3304 2.07944 12.6461 2.62439C13.9617 3.16934 15.0861 4.09221 15.8773 5.27625C16.6684 6.46028 17.0906 7.85234 17.0906 9.27637C17.088 11.1851 16.3285 13.0149 14.9788 14.3646C13.6291 15.7143 11.7994 16.4737 9.8907 16.4763Z" fill="#EC641D"/>
</svg>
