<svg width="38" height="33" viewBox="0 0 38 33" fill="none" xmlns="http://www.w3.org/2000/svg">
<path d="M8.1375 3.73962C8.25295 5.2915 8.55807 6.83157 9.04833 8.3396L6.62231 10.4727C5.77402 8.28004 5.2583 6.01929 5.08584 3.7356H8.1375M28.0687 25.1016C29.7737 25.5254 31.5376 25.794 33.3241 25.9016V28.5496C30.6965 28.3877 28.1123 27.9388 25.6494 27.2166L28.0741 25.1016M10.0837 0.180664H3.0098C2.43646 0.213246 1.90279 0.418092 1.52446 0.750854C1.14613 1.08362 0.953639 1.51748 0.988377 1.95862C0.988377 18.6496 16.3706 32.1766 35.3509 32.1766C35.9239 32.1438 36.4571 31.9391 36.8353 31.6066C37.2135 31.2741 37.4064 30.8406 37.3723 30.3997V24.1996C37.4067 23.7585 37.2139 23.3248 36.8356 22.9921C36.4574 22.6594 35.9241 22.4545 35.3509 22.4216C32.8859 22.4211 30.4412 22.0779 28.1351 21.4086C27.937 21.3441 27.7232 21.3134 27.5082 21.3186C27.2361 21.3231 26.9683 21.3713 26.7219 21.4602C26.4754 21.5491 26.2557 21.6766 26.0772 21.8346L21.631 25.7446C15.7114 23.0022 11.054 18.9069 8.30931 14.0306L12.7568 10.1196C13.0283 9.87261 13.2166 9.57795 13.3046 9.26172C13.3926 8.94549 13.3779 8.61745 13.2617 8.30664C12.4919 6.24339 12.1039 4.10701 12.1092 1.96057C12.1428 1.5187 11.9485 1.08454 11.5684 0.752075C11.1882 0.419615 10.6529 0.215658 10.0786 0.18457L10.0837 0.180664Z" fill="#F9F4F0"/>
</svg>
