<?xml version="1.0" encoding="UTF-8"?>
<svg id="Calque_2" data-name="Calque 2" xmlns="http://www.w3.org/2000/svg" viewBox="0 0 281.78 301.45">
  <defs>
    <style>
      .cls-1 {
        fill: #ec641d;
      }

      .cls-2 {
        fill: none;
        opacity: .3;
      }
    </style>
  </defs>
  <g id="Calque_1-2" data-name="Calque 1">
    <g class="cls-2">
      <path class="cls-1" d="m92.29,208.55L0,301.45l34.06-.08c10.34-.03,20.05-4.08,27.33-11.42l64.49-64.92c9.11-9.16,9.07-23.99-.08-33.1l-54.82-54.66c-1.53-1.52-2.85-3.29-3.61-5.31-2.56-6.74-.99-13.69,3.67-18.38l50.25-50.59c8.11-8.17,12.66-19.23,12.63-30.76l-.07-32.19L9.11,125.62l83.16,82.93h.02Z"/>
      <path class="cls-1" d="m189.06,208.3l92.72,92.46-34.06.08c-10.33.03-20.07-3.98-27.39-11.29l-64.81-64.61c-9.14-9.12-9.18-23.94-.08-33.1l54.56-54.92c1.52-1.53,2.83-3.31,3.58-5.32,2.53-6.75.93-13.7-3.76-18.37l-50.49-50.35c-8.16-8.13-12.74-19.17-12.77-30.7l-.07-32.19,125.34,124.98-82.77,83.33h0Z"/>
    </g>
  </g>
</svg>